<svg xmlns="http://www.w3.org/2000/svg" fill-rule="evenodd" stroke-linejoin="round" stroke-miterlimit="1.414" clip-rule="evenodd" viewBox="0 0 256 256"><rect width="256" height="256" fill="none"/><path d="M82.741,78.609c3.771,-19.122 12.921,-40.965 30.666,-50.988c0.099,-0.058 0.198,-0.119 0.295,-0.181c3.015,-1.981 5.516,-5.026 7.804,-7.76l0.061,-0.073c0.513,-0.555 1.158,-0.861 1.912,-0.906c0.091,0.004 0.182,0.009 0.273,0.013c0.56,0.09 1.028,0.304 1.462,0.674c0.278,0.263 0.559,0.524 0.84,0.785c2.16,1.992 4.848,4.987 7.682,6.13c0.217,0.083 0.435,0.164 0.652,0.249c19.64,7.848 31.036,32.529 35.339,51.745c1.949,-0.208 3.907,-0.325 5.866,-0.354c0.401,-0.005 0.802,-0.007 1.203,-0.005c10.488,0.08 20.457,2.771 28.917,8.902c0.091,0.065 0.183,0.127 0.276,0.188c2.618,1.684 5.789,2.688 8.736,3.599c0,0 1.823,1.457 1.848,2.49c-0.013,0.433 -0.021,0.867 -0.028,1.301c-0.044,3.096 -0.21,6.469 0.678,9.493c0.049,0.172 0.098,0.344 0.146,0.516c4.282,15.841 -1.107,34.157 -10.59,47.127c8.709,13.065 15.85,29.042 13.487,45.065c-0.015,0.114 -0.028,0.229 -0.038,0.344c-0.286,3.597 0.582,7.441 1.337,10.925c0,0 -0.832,2.854 -2.046,3.107c-0.378,0.057 -0.756,0.118 -1.134,0.18c-2.936,0.49 -7.212,0.889 -10.012,2.582c-0.225,0.133 -0.224,0.133 -0.45,0.264c-20.729,11.786 -51.891,3.314 -70.705,-8.685c-3.656,5.02 -7.187,10.137 -10.675,15.274l-0.169,0.25c-1.094,1.447 -3.172,1.366 -4.185,-0.068c-0.442,-0.7 -0.886,-1.398 -1.33,-2.097c-2.636,-4.127 -5.788,-8.979 -8.611,-13.104c-19.535,12.293 -49.871,19.803 -71.25,7.864c-0.076,-0.04 -0.152,-0.076 -0.23,-0.111c-3.162,-1.385 -6.95,-1.81 -10.319,-2.334l-0.101,-0.015c-1.442,-0.3 -2.3,-1.593 -2.066,-3.013c0.06,-0.267 0.116,-0.535 0.172,-0.803c0.745,-3.639 1.612,-7.662 1.004,-11.41c-0.036,-0.229 -0.07,-0.458 -0.102,-0.687c-2.057,-15.335 5.539,-31.278 13.797,-43.625c-10.074,-13.844 -14.438,-31.796 -10.107,-48.437c0.015,-0.061 0.028,-0.122 0.042,-0.184c0.601,-3.017 0.422,-6.696 0.344,-9.629l-0.002,-0.09c0.028,-1.128 0.735,-2.089 1.772,-2.467c0.291,-0.088 0.58,-0.18 0.869,-0.273c3.101,-1.012 6.288,-2.111 8.933,-4.072c0.194,-0.142 0.389,-0.282 0.585,-0.421c7.878,-5.517 17.633,-7.791 27.136,-7.941c0.402,-0.005 0.803,-0.007 1.204,-0.005c2.979,0.023 5.835,0.231 8.812,0.671m58.102,74.617c-3.679,5.248 -9.682,8.677 -16.141,8.689c-0.059,1.497 -0.075,2.996 -0.053,4.495c0.932,-0.563 2.007,-0.863 3.09,-0.91c0.153,-0.002 0.152,-0.002 0.305,-0.002c9.753,0.285 6.528,16.035 -2.563,12.235c0.377,2.989 0.869,5.964 1.454,8.92c1.08,-0.879 2.434,-1.365 3.821,-1.424c0.152,-0.003 0.152,-0.003 0.304,-0.002c10.255,0.294 5.941,16.887 -3.141,11.958c-1.395,1.007 -3.061,0.162 -3.497,-1.273c-0.113,-0.447 -0.225,-0.894 -0.336,-1.341c-0.529,-2.167 -0.982,-4.166 -1.418,-6.311c-8.766,6.835 -15.153,-10.915 -4.108,-11.381c0.153,-0.003 0.152,-0.003 0.305,-0.002c0.713,0.02 1.328,0.119 2.022,0.365c-0.614,-5.223 -0.898,-10.628 -0.668,-15.854c-4.302,-1.039 -8.11,-3.571 -10.891,-7.035c-3.586,10.291 -4.549,17.149 -4.684,28.016c-0.04,3.266 0.613,8.982 4.1,10.881c0.097,0.057 0.096,0.056 0.191,0.116c5.375,3.583 13.634,18.735 15.198,21.169l0.242,0.379c0.478,-0.697 0.958,-1.394 1.437,-2.09c0.442,-0.638 0.883,-1.276 1.325,-1.913c0.71,-1.02 8.903,-14.995 13.55,-16.974c0.064,-0.029 0.127,-0.059 0.189,-0.09c3.327,-1.738 4.218,-7.442 4.247,-10.5c0.107,-11.298 -0.703,-19.345 -4.28,-30.121m3.529,-8.057c-0.137,0.613 -0.298,1.221 -0.483,1.822c0.051,0.128 0.102,0.256 0.153,0.385c4.53,11.593 8.189,26.819 5.849,39.386c-0.879,4.718 -2.594,9.794 -7.355,11.822c-0.068,0.027 -0.106,0.101 -0.157,0.154c-0.671,0.7 -1.56,1.819 -2.155,2.584c12.894,8.094 28.574,12.859 43.835,12.834c7.656,-0.013 15.475,-0.867 22.213,-4.974c0.099,-0.058 0.099,-0.058 0.199,-0.114c2.746,-1.471 6.763,-2.057 9.592,-2.567l0.119,-0.021c-0.06,-0.319 -0.116,-0.639 -0.173,-0.959c-0.07,-0.409 -0.139,-0.819 -0.204,-1.229c-0.496,-3.172 -0.807,-6.284 -0.31,-9.455c0.036,-0.241 0.07,-0.483 0.101,-0.725c1.658,-13.465 -5.058,-27.542 -12.124,-38.487c-17.723,19.543 -45.692,8.581 -59.1,-10.456m-39.251,0.713c-13.613,18.714 -41.151,29.07 -58.669,9.657c-7.487,11.553 -14.192,26.132 -11.918,40.258c0.019,0.124 0.035,0.247 0.05,0.371c0.367,3.308 -0.314,7.112 -0.887,10.251c0,0 0.667,0.183 1.007,0.246c0.489,0.092 0.977,0.187 1.465,0.284c2.234,0.454 5.206,0.99 7.327,2.175c0.253,0.147 0.5,0.304 0.752,0.453c18.993,11.025 48.03,2.552 65.122,-8.085c-0.97,-1.334 -1.917,-2.779 -3.135,-3.907l-0.022,-0.019c-0.056,-0.03 -0.11,-0.061 -0.165,-0.092c-0.138,-0.08 -0.138,-0.08 -0.274,-0.162c-4.912,-3.106 -6.01,-9.316 -6.375,-14.631c-0.762,-11.108 2.56,-23.705 6.677,-33.886c-0.383,-0.949 -0.702,-1.922 -0.955,-2.913m25.757,43.346c-1.462,0.062 -2.565,1.505 -2.213,2.935c0.193,0.786 0.702,1.27 1.41,1.623c0.21,0.104 0.606,0.162 0.836,0.166c0.234,0.004 0.624,-0.04 0.841,-0.137c0.446,-0.2 0.936,-0.492 1.184,-0.939c0.841,-1.512 -0.008,-3.505 -1.829,-3.644c-0.077,-0.004 -0.152,-0.006 -0.229,-0.004m-12.195,-8.351c-1.909,0.081 -2.974,2.351 -1.749,3.849c0.211,0.258 0.48,0.476 0.779,0.625c0.328,0.165 0.635,0.235 1.002,0.251c0.218,0.009 0.639,-0.046 0.841,-0.138c0.72,-0.327 1.245,-0.793 1.466,-1.572c0.402,-1.417 -0.651,-2.899 -2.111,-3.011c-0.076,-0.004 -0.152,-0.005 -0.228,-0.004m9.179,-11.378c-1.824,0.078 -2.742,2.036 -1.955,3.577c0.232,0.456 0.713,0.766 1.152,0.981c0.214,0.105 0.602,0.162 0.836,0.166c0.229,0.004 0.627,-0.04 0.84,-0.137c0.72,-0.328 1.245,-0.794 1.466,-1.572c0.402,-1.417 -0.651,-2.899 -2.111,-3.011c-0.076,-0.004 -0.152,-0.006 -0.228,-0.004m74.596,-20.511c9.211,-12.352 14.053,-29.476 9.704,-44.545c-0.026,-0.097 -0.051,-0.194 -0.076,-0.291c-0.673,-2.864 -0.572,-6.318 -0.549,-9.13l0.002,-0.171c-0.24,-0.08 -0.479,-0.163 -0.718,-0.246c-0.255,-0.09 -0.51,-0.18 -0.765,-0.272c-2.843,-1.037 -5.586,-2.197 -8.021,-4.001c-0.167,-0.122 -0.334,-0.243 -0.503,-0.362c-7.109,-4.978 -15.974,-6.929 -24.544,-7.03c-0.222,-0.002 -0.443,-0.003 -0.664,-0.003c-6.714,0.025 -15.792,1.421 -21.894,4.603c-12.168,6.346 -16.755,20.903 -14.678,33.753c11.06,-1.365 21.595,-7.066 27.622,-16.592l0.101,-0.147c0.487,-0.615 1.21,-0.983 1.994,-1.016c0.059,0.001 0.119,0.003 0.178,0.005c1.862,0.187 2.868,2.263 1.952,3.831c-0.139,0.221 -0.28,0.44 -0.423,0.659c-6.802,10.286 -18.242,16.538 -30.357,18.164c0.204,0.743 0.425,1.482 0.664,2.215c0.196,0.407 0.389,0.815 0.576,1.226c0.119,0.014 0.169,0.028 0.312,0.059c0.206,0.061 0.41,0.129 0.616,0.192c11.422,3.401 24.575,1.559 34.002,-5.906l0.154,-0.113c0.45,-0.278 0.921,-0.417 1.447,-0.426c0.064,0.003 0.128,0.007 0.191,0.011c2.151,0.292 3.029,2.978 1.312,4.448c-0.205,0.162 -0.411,0.323 -0.617,0.482c-9.945,7.558 -23.042,9.635 -35.132,7.009c8.141,16.339 31.449,34.653 49.814,21.825c2.595,-1.813 4.925,-4.043 6.937,-6.489c0.151,-0.728 0.69,-1.419 1.363,-1.742m-92.504,-26.053c0.655,-3.294 1.091,-6.692 0.833,-10.041c-1.56,-20.241 -17.538,-29.664 -36.445,-29.952c-0.294,-0.003 -0.589,-0.005 -0.884,-0.005c-9.435,0.04 -18.592,2.414 -26.256,7.968c-0.122,0.087 -0.246,0.172 -0.371,0.255c-2.316,1.517 -5.808,2.82 -8.344,3.684c0,0 -0.016,0.912 -0.016,1.368c0,0.293 -0.002,0.585 -0.004,0.878c-0.031,2.778 -0.1,5.539 -0.885,8.213c-0.064,0.223 -0.126,0.446 -0.186,0.671c-3.828,14.571 1.387,31.348 10.243,43.139c0.507,0.313 0.888,0.803 1.068,1.371c2.132,2.63 4.658,4.982 7.43,6.927c17.475,12.264 40.227,-4.984 48.558,-20.177c0.034,-0.175 0.071,-0.349 0.11,-0.523c-9.894,2.36 -16.045,1.405 -25.703,-1.214c-2.78,-0.754 -9.282,-4.367 -11.13,-6.354c-1.475,-1.586 -0.213,-4.083 1.784,-4.199c0.064,0.001 0.128,0.002 0.192,0.003c0.524,0.05 0.983,0.224 1.41,0.537c0.183,0.144 0.366,0.288 0.551,0.43c9.34,7.099 22.763,9.108 33.883,5.338l0.184,-0.055c0.237,-0.051 0.476,-0.086 0.72,-0.076c0.486,-1.119 1.029,-2.249 1.584,-3.33c-9.442,-1.095 -17.616,-4.701 -24.704,-10.78c-2.3,-1.973 -5.993,-6.205 -7.12,-8.786c-0.705,-1.612 1.058,-3.148 2.421,-3.187c0.06,0.002 0.119,0.005 0.178,0.007c0.78,0.09 1.474,0.508 1.917,1.156c0.125,0.197 0.251,0.393 0.378,0.589c6.313,9.55 17.321,15.181 28.604,16.145m26.885,7.362c-3.116,-6.367 -7.235,-12.435 -11.427,-18.119l-0.282,-0.38l-0.169,-0.226c-0.068,0.087 -0.136,0.175 -0.204,0.263c-3.699,4.798 -7.832,10.647 -10.854,16.055c-1.072,3.808 -2.565,7.496 -4.415,10.991c-0.339,2.48 0.3,5.64 1.114,7.759c0.499,0.458 0.796,1.101 0.809,1.797c1.92,3.692 5.202,6.666 9.2,7.877c0.588,-5.25 1.63,-11.01 4.322,-15.656l0.05,-0.084l0.037,-0.06l0.121,-0.176c0.464,-0.558 1.133,-0.879 1.858,-0.893c0.072,0.005 0.143,0.01 0.214,0.016c1.993,0.344 2.264,2.257 1.465,3.718c-0.08,0.151 -0.158,0.304 -0.234,0.457c-1.976,4.06 -2.887,8.862 -3.373,13.273c9.876,-0.289 16.897,-11.147 14.259,-20.397c-0.952,-2.019 -1.787,-4.095 -2.491,-6.215m27.929,-51.266c-4.036,-17.628 -14.553,-41.124 -32.855,-48.072c-0.106,-0.042 -0.106,-0.042 -0.211,-0.087c-2.847,-1.265 -5.775,-4.077 -7.914,-5.997l-0.09,-0.081c-0.215,0.243 -0.433,0.483 -0.651,0.724c-0.28,0.307 -0.561,0.613 -0.845,0.916c-2.139,2.274 -4.362,4.464 -7.118,5.961c-0.16,0.089 -0.32,0.178 -0.479,0.269c-15.573,9.037 -23.663,30.153 -26.953,46.879c10.792,2.524 20.484,8.26 24.95,18.792c1.139,2.687 2.007,5.51 2.539,8.379c0.54,2.914 0.6,5.902 0.658,8.865c2.169,-3.107 4.677,-6.459 7.056,-9.4l0.157,-0.193c0.507,-0.617 1.223,-0.952 2.011,-0.98c0.074,0.004 0.148,0.008 0.222,0.012c0.676,0.098 1.268,0.421 1.715,0.938c0.259,0.328 0.514,0.658 0.769,0.989c2.208,2.88 4.454,6.012 6.487,9.057c-0.7,-20.061 11.476,-33.341 30.552,-36.971"/></svg>
