<svg xmlns="http://www.w3.org/2000/svg" fill-rule="evenodd" stroke-linejoin="round" stroke-miterlimit="1.414" clip-rule="evenodd" viewBox="0 0 256 256"><rect width="256" height="256" fill="none"/><path d="M124.154,177.263c-2.988,-0.638 -5.007,-2.517 -6.797,-4.873c-0.467,-0.62 -0.928,-1.244 -1.395,-1.864c-1.442,-1.897 -1.86,-2.251 -3.767,-4.392c-0.184,-0.208 -0.367,-0.416 -0.548,-0.626c-2.775,-3.233 -5.946,-8.508 0.713,-10.055c6.082,-1.413 13.986,-1.029 20.334,-1.06c0.487,-0.001 0.974,-0.001 1.461,-0.001c3.035,0.012 11.137,-1.16 13.291,2.088c0,0 0.097,0.166 0.141,0.251c0,0 0.087,0.196 0.125,0.296c0,0 0.064,0.209 0.091,0.315c0,0 0.04,0.232 0.053,0.35c0,0 0.009,0.299 0.002,0.449c-0.021,0.186 -0.044,0.372 -0.069,0.557c-1.163,8.117 -10.477,18.172 -18.635,18.855c-0.012,0.099 -0.023,0.198 -0.034,0.297c-1.737,15.792 -1.047,32.83 4.314,47.924c0,0 -0.306,2.614 -1.317,3.111c-1.292,0.634 -2.9,-0.216 -3.395,-1.438c-0.094,-0.266 -0.188,-0.533 -0.281,-0.8c-3.513,-10.292 -4.411,-18.949 -4.993,-29.734c-0.187,-3.471 -0.101,-6.954 0.023,-10.427c0.111,-3.081 0.397,-6.153 0.683,-9.223m8.557,-17.87c-6.133,0.03 -12.372,0.133 -18.509,0.577l-0.267,0.021c0,0 -0.076,0.218 -0.021,0.303c0.568,0.862 1.342,1.754 2.02,2.521c0.653,0.733 1.317,1.457 1.97,2.191c1.595,1.81 1.783,2.185 3.562,4.527c0.114,0.15 0.23,0.299 0.347,0.447c0.642,0.804 1.496,1.46 2.417,1.92c6.639,3.318 12.091,-3.432 15.602,-7.98c0.908,-1.176 2.088,-2.834 2.61,-4.248l0.001,-0.001c-2.261,-0.218 -5.449,-0.261 -7.598,-0.276c-0.711,-0.003 -1.423,-0.003 -2.134,-0.002m-63.748,-61.146c-8.155,1.504 -15.113,0.554 -23.076,-1.346c-2.719,-0.648 -1.513,-4.833 1.151,-4.346c0.286,0.063 0.571,0.126 0.857,0.189c8.927,1.909 18.898,2.936 27.37,-1.275l0.181,-0.092l0.095,-0.049c-0.314,-0.059 -0.627,-0.122 -0.939,-0.187c-11.282,-2.378 -21.002,-9.397 -29.713,-16.611l-0.131,-0.118c-1.386,-1.455 -0.423,-3.758 1.532,-3.865c0.059,0.002 0.118,0.003 0.177,0.004c0.484,0.05 0.904,0.216 1.293,0.513c0.421,0.349 0.844,0.697 1.267,1.043c9.79,7.952 19.622,13.763 32.112,15.551c0.821,0.097 1.931,0.228 2.277,0.978c0.44,0.952 0.411,2.438 -0.383,3.124c-0.171,0.137 -0.342,0.272 -0.515,0.407c-1.999,1.54 -3.995,2.787 -6.299,3.832c0.713,0.566 0.966,1.51 0.77,2.356c-0.057,0.211 -0.116,0.422 -0.177,0.632c-2.188,7.461 -6.704,13.207 -13.069,17.825c3.065,0.903 7.454,2.614 9.79,4.959c1.267,1.272 0.84,3.487 -1.041,3.921c-0.934,0.177 -1.869,0.353 -2.802,0.534c-9.23,1.827 -17.107,6.416 -24.394,12.327c3.807,-0.386 7.656,-0.776 11.327,-1.854c3.596,-1.056 6.992,-2.744 10.304,-4.498l0.725,-0.382c0.335,-0.161 0.668,-0.244 1.039,-0.261c0.06,0.002 0.12,0.005 0.18,0.007c1.424,0.164 2.314,1.488 2.001,2.838c-0.057,0.211 -0.117,0.421 -0.177,0.632c-0.204,0.694 -0.425,1.383 -0.669,2.064c2.767,-1.563 5.86,-2.473 9.036,-2.518c0.193,-0.001 0.193,-0.001 0.386,0.001c1.916,0.034 14.709,2.318 9.8,6.173c-0.449,0.329 -0.9,0.656 -1.347,0.989c-6.183,4.654 -7.376,12.859 -8.283,20.063l-0.023,0.145c-0.623,2.741 -4.698,2.049 -4.442,-0.708c0.051,-0.4 0.103,-0.8 0.156,-1.199c0.975,-7.109 2.452,-15.27 7.994,-20.353l0.032,-0.029c-6.155,-1.683 -11.358,0.677 -15.985,5.092l-0.11,0.098c-0.489,0.383 -1.102,0.585 -1.724,0.507c-3.966,5.148 -14.261,15.118 -22.207,15.173c-2.28,0.016 -3.433,-3.164 -1.073,-4.307c0.268,-0.116 0.536,-0.233 0.804,-0.351c8.39,-3.731 17.135,-8.826 21.472,-17.317l0.048,-0.095c-0.288,0.136 -0.579,0.27 -0.869,0.401c-0.281,0.126 -0.562,0.25 -0.844,0.372c-7.247,3.082 -15.177,3.961 -23.017,4.001c-0.251,0.225 -0.5,0.45 -0.749,0.676l-0.136,0.113c-1.113,0.793 -2.779,0.558 -3.421,-0.844c-1.878,-0.055 -3.756,-0.148 -5.632,-0.265l-0.185,-0.019c-2.76,-0.521 -2.226,-4.529 0.466,-4.472c0.546,0.034 1.093,0.067 1.639,0.097c2.101,0.112 4.205,0.19 6.31,0.211c8.105,-7.123 17.101,-13.741 27.753,-16.292l0.055,-0.013c-2.405,-1.111 -4.95,-1.815 -7.57,-2.172c-3.179,1.806 -4.81,4.579 -8.934,4.229c-1.821,-0.154 -3.702,-2.776 -1.321,-4.181c-3.62,0.433 -7.188,1.219 -10.704,2.171l-0.172,0.039c-2.783,0.411 -3.617,-3.564 -1.004,-4.383c0.292,-0.079 0.585,-0.157 0.877,-0.235c5.189,-1.355 10.51,-2.336 15.881,-2.438c0.321,-0.004 0.642,-0.005 0.963,-0.005c1.2,0.012 2.275,0.057 3.439,0.164c5.356,-3.213 10.363,-7.468 13.244,-13.107l0.048,-0.096c-0.288,0.137 -0.579,0.27 -0.869,0.402c-0.281,0.126 -0.562,0.249 -0.844,0.371c-10.304,4.382 -21.978,4.368 -32.955,3.682l-0.185,-0.02c-2.773,-0.523 -2.321,-4.53 0.466,-4.472c0.546,0.035 1.093,0.067 1.639,0.098c10.433,0.553 21.417,0.376 31.034,-4.229m112.174,26.782c-0.355,-0.548 -0.693,-1.106 -1.02,-1.672l-0.106,-0.187c-0.858,-1.668 0.588,-3.673 2.483,-3.299c0.924,0.222 1.848,0.447 2.773,0.666c11.956,2.785 23.648,0.197 35.176,-3.523l0.179,-0.05c0.32,-0.061 0.298,-0.053 0.554,-0.058c0.062,0.003 0.123,0.007 0.185,0.011c2.324,0.333 2.718,3.548 0.464,4.379c-0.532,0.172 -1.065,0.342 -1.598,0.511c-10.637,3.319 -21.915,5.878 -33.04,3.749c0.688,0.813 1.385,1.637 2.22,2.299c1.741,1.38 3.499,2.785 5.475,3.801c6.248,3.211 11.379,4.476 18.27,5.587c0,0 2.016,1.822 1.774,2.94c-0.24,1.108 -1.508,1.62 -2.49,1.503c-0.299,-0.049 -0.597,-0.097 -0.896,-0.147c-4.95,-0.843 -9.869,-2.017 -14.532,-3.916c5.796,3.41 12.823,6.045 19.001,8.073c0.643,0.501 1.408,1.098 1.536,1.903c0.264,1.651 -1.573,2.763 -2.939,2.372c-0.531,-0.174 -1.062,-0.35 -1.592,-0.528c-10.555,-3.574 -21.175,-8.143 -28.92,-16.409c0.078,1.062 0.157,2.138 0.442,3.164c0.596,2.14 1.19,4.311 2.19,6.295c3.163,6.272 6.567,10.315 11.485,15.268c0.345,0.739 0.758,1.62 0.503,2.394c-0.519,1.573 -2.662,1.742 -3.697,0.777c-0.213,-0.215 -0.426,-0.43 -0.638,-0.646c-4.543,-4.658 -8.789,-9.784 -11.639,-15.693c-0.237,-0.118 -0.366,-0.22 -0.556,-0.389c-0.18,-0.172 -0.361,-0.343 -0.544,-0.512c-4.515,-4.114 -9.558,-6.141 -15.411,-4.59c0,0 0.211,0.232 0.325,0.339c0.109,0.105 0.217,0.21 0.324,0.317c5.191,5.255 7.614,14.506 7.474,21.667c-0.049,2.491 -4.079,2.075 -4.437,-0.17c-0.048,-0.387 -0.098,-0.773 -0.15,-1.159c-1.103,-8.027 -2.744,-14.953 -9.48,-19.893l-0.115,-0.091c-1.22,-1.094 -0.897,-3.091 0.537,-3.782c0.224,-0.099 0.449,-0.196 0.674,-0.292c2.811,-1.177 5.679,-1.954 8.705,-2.008c0.193,-0.002 0.192,-0.002 0.385,-0.001c3.428,0.049 6.611,1.049 9.611,2.854c-0.667,-3.218 -0.758,-6.527 -0.41,-9.788l0.024,-0.213c0.123,-0.816 0.534,-1.51 1.441,-1.853m-38.441,-11.015c-0.803,-0.495 -1.614,-0.994 -2.323,-1.616c-1.844,-1.619 -3.724,-3.225 -5.318,-5.091c-4.178,-4.895 -5.702,-8.406 -8.649,-14.058c-0.371,-0.71 -1.681,-2.95 -1.205,-3.913c0.819,-1.657 3.185,-2.524 4.244,-0.326c0.115,0.269 0.232,0.537 0.349,0.805c3.718,8.41 8.79,17.152 17.273,21.508l0.095,0.048c-0.136,-0.289 -0.269,-0.579 -0.4,-0.87c-0.125,-0.281 -0.248,-0.562 -0.369,-0.845c-4.362,-10.315 -4.324,-21.984 -3.613,-32.962l0.019,-0.185c0.202,-1.054 1.122,-1.856 2.185,-1.919c0.062,0.001 0.124,0.003 0.186,0.004c1.193,0.127 2.128,1.192 2.1,2.391c-0.035,0.546 -0.069,1.092 -0.101,1.638c-0.694,12.612 0.365,23.959 6.25,35.128c0.311,0.784 0.651,1.641 0.526,2.475c-0.178,1.187 -1.805,1.683 -2.736,1.466c-0.211,-0.058 -0.421,-0.118 -0.632,-0.178c-1.611,-0.476 -3.096,-1.019 -4.593,-1.714c0.062,0.673 -0.193,1.3 -0.644,1.791c-0.206,0.207 -0.412,0.415 -0.617,0.624c-6.414,6.577 -12.646,14.547 -13.529,24.039l-0.009,0.106c0.217,-0.234 0.437,-0.465 0.658,-0.695c0.214,-0.221 0.43,-0.44 0.647,-0.657c7.945,-7.888 18.8,-12.201 29.246,-15.627l0.166,-0.048c2.682,-0.549 3.866,3.348 1.237,4.323c-0.521,0.171 -1.04,0.343 -1.559,0.517c-11.964,4.052 -22.1,9.26 -30.275,18.88l-0.531,0.624c-1.288,1.402 -3.654,0.751 -3.949,-1.207c-0.024,-0.218 -0.047,-0.435 -0.069,-0.653c-0.957,-10.101 3.336,-19.541 9.692,-27.125c1.958,-2.337 3.55,-5.26 6.248,-6.678m-39.922,-3.511c-1.922,10.958 -1.802,21.149 1.909,31.613c0,0 0.585,1.846 0.136,2.582c-0.581,0.954 -1.851,1.406 -2.889,1c-0.2,-0.088 -0.4,-0.177 -0.599,-0.267c-9.173,-4.221 -14.287,-12.006 -18.184,-20.914c-1.357,-3.101 -2.762,-6.475 -3.056,-9.892c-0.224,-2.596 3.749,-2.559 4.417,-0.435c0.076,0.282 0.153,0.565 0.23,0.847c2.477,8.867 6.233,18.232 14.007,23.764l0.088,0.061c-0.094,-0.305 -0.183,-0.611 -0.271,-0.918c-0.084,-0.296 -0.165,-0.592 -0.245,-0.889c-2.842,-10.856 -1.125,-22.364 1.156,-33.14l0.046,-0.18c0.31,-0.897 1.116,-1.525 2.066,-1.602c0.062,0 0.124,0 0.186,0c1.318,0.112 2.328,1.391 2.104,2.714c-0.106,0.501 -0.21,1.002 -0.313,1.503c0.273,-0.099 0.455,-0.119 0.742,-0.134c0.062,0.002 0.124,0.004 0.185,0.006c0.816,0.093 1.521,0.585 1.889,1.318c0.23,0.51 0.459,1.021 0.685,1.532c4.484,10.196 8.283,21.126 7.409,32.416l-0.004,0.056c6.682,-7.242 8.267,-17.693 8.724,-27.162l0.017,-0.185c0.463,-2.664 4.497,-2.394 4.478,0.402c-0.015,0.302 -0.03,0.604 -0.046,0.906c-0.72,12.596 -3.944,25.435 -14.567,33.254l-0.173,0.125c-1.602,1.071 -3.718,-0.178 -3.555,-2.099c0.118,-0.943 0.238,-1.886 0.352,-2.83c1.384,-11.767 -2.173,-22.753 -6.924,-33.452m55.918,-30.787c0.726,0.095 1.366,0.505 1.756,1.135c0.275,0.488 0.548,0.976 0.82,1.465c5.379,9.757 10.141,20.297 10.278,31.623l0.001,0.057c6.008,-7.812 6.652,-18.363 6.26,-27.834l-0.001,-0.182c0.213,-2.67 4.264,-2.843 4.497,-0.005c0.012,0.303 0.024,0.605 0.035,0.907c0.41,12.608 -1.654,25.691 -11.534,34.424l-0.16,0.14c-1.491,1.202 -3.72,0.206 -3.73,-1.772c0.033,-0.95 0.069,-1.9 0.098,-2.851c0.341,-12.398 -4.462,-23.082 -10.484,-33.761l-0.082,-0.161c-0.608,-1.469 0.43,-3.145 2.065,-3.194c0.06,0.003 0.121,0.006 0.181,0.009m42.132,15.804c-5.42,2.622 -9.689,6.186 -13.89,10.428l-0.577,0.582c-1.404,1.309 -3.703,0.41 -3.846,-1.504c-0.008,-0.219 -0.014,-0.437 -0.02,-0.656c-0.193,-10.535 5.06,-18.726 11.727,-26.31c1.501,-1.707 4.814,-6.241 7.617,-6.368c0.059,0.002 0.118,0.004 0.177,0.006c1.931,0.217 2.78,2.57 1.308,3.946c-0.221,0.191 -0.442,0.383 -0.662,0.575c-6.871,6.048 -13.618,13.424 -15.284,22.741l-0.035,0.2l-0.017,0.106c0.235,-0.217 0.472,-0.431 0.71,-0.643c3.437,-3.044 7.088,-5.327 11.204,-7.333c1.968,-0.959 4.017,-1.745 6.06,-2.53c0.427,-0.687 0.848,-1.377 1.266,-2.07l0.094,-0.144c0.431,-0.557 1.067,-0.894 1.76,-0.943c0.058,0.001 0.115,0.001 0.173,0.002c0.858,0.071 1.609,0.509 1.975,1.381c2.812,-0.866 5.656,-1.626 8.512,-2.328l0.173,-0.035c2.719,-0.336 3.604,3.627 0.901,4.405c-0.532,0.131 -1.063,0.263 -1.593,0.397c-3.461,0.885 -6.903,1.865 -10.276,3.044c-5.562,8.765 -12.111,17.202 -21.203,22.493c1.053,0.161 2.12,0.323 3.184,0.277c2.166,-0.093 4.362,-0.175 6.468,-0.691c6.941,-1.701 11.575,-4.06 17.608,-7.81l0.15,-0.086c2.434,-1.149 4.575,2.32 2.226,3.907c-0.257,0.16 -0.514,0.319 -0.772,0.478c-10.775,6.564 -23.172,11.205 -35.641,6.906l-0.202,-0.071c-1.785,-0.706 -1.96,-3.167 -0.293,-4.118c0.843,-0.439 1.688,-0.876 2.529,-1.318c7.623,-4.039 13.464,-9.865 18.489,-16.916m-90.547,-33.898c1.1,0.15 1.962,1.075 2.034,2.183c0.014,0.547 0.029,1.094 0.046,1.642c0.445,12.865 2.385,23.64 9.366,34.428c0,0 0.965,1.603 0.746,2.417c-0.309,1.154 -1.427,1.869 -2.594,1.705c-0.215,-0.039 -0.43,-0.079 -0.645,-0.121c-9.9,-1.983 -16.68,-8.372 -22.531,-16.137c-2.029,-2.691 -4.18,-5.662 -5.26,-8.898c-0.823,-2.466 3.038,-3.404 4.194,-1.464c0.139,0.257 0.279,0.514 0.42,0.771c4.468,8.064 10.282,16.295 19.127,19.876l0.099,0.04c-0.161,-0.276 -0.319,-0.553 -0.476,-0.831c-0.15,-0.269 -0.298,-0.538 -0.444,-0.808c-5.277,-9.905 -6.271,-21.493 -6.546,-32.507l0.002,-0.181c0.112,-1.162 1.114,-2.096 2.281,-2.125c0.061,0.003 0.121,0.006 0.181,0.01m75.953,-17.185c1.245,0.148 2.195,1.333 2.046,2.595c-0.088,0.553 -0.177,1.105 -0.268,1.657c-1.85,10.988 -4.669,22.203 -11.6,31.162l-0.035,0.045c9.559,-2.383 16.627,-10.256 22.202,-17.916l0.11,-0.139c1.834,-1.98 5.108,0.428 3.529,2.787c-0.179,0.245 -0.357,0.489 -0.536,0.733c-7.517,10.134 -17.25,19.096 -30.429,19.801l-0.213,0.01c-1.915,0.015 -3.042,-2.15 -1.821,-3.706c0.617,-0.724 1.235,-1.446 1.848,-2.172c7.972,-9.504 10.849,-20.855 12.768,-32.966l0.035,-0.173c0.274,-0.973 1.17,-1.685 2.187,-1.725c0.059,0.003 0.118,0.005 0.177,0.007m-112.484,-2.423c1.011,0.113 1.854,0.888 2.057,1.878c0.089,0.54 0.18,1.08 0.272,1.62c2.207,12.643 5.632,23.101 14.02,32.809c0.437,0.448 0.932,0.956 1.021,1.575c0.211,1.46 -0.747,2.765 -2.284,2.763c-0.218,-0.009 -0.437,-0.02 -0.655,-0.031c-10.086,-0.601 -17.664,-6.001 -24.54,-12.879c-2.026,-2.027 -5.599,-5.085 -6.43,-8.071c-0.659,-2.369 2.399,-3.981 3.947,-2.045c0.173,0.235 0.347,0.47 0.522,0.705c5.536,7.372 12.429,14.723 21.683,17.052l0.104,0.025c-0.198,-0.25 -0.393,-0.503 -0.586,-0.757c-0.186,-0.245 -0.369,-0.492 -0.551,-0.74c-6.592,-9.082 -9.174,-20.425 -10.963,-31.295l-0.022,-0.175c-0.058,-1.269 0.976,-2.383 2.228,-2.44c0.059,0.002 0.118,0.004 0.177,0.006m91.329,-5.949c1.369,0.156 2.283,1.425 2.023,2.76c-0.067,0.284 -0.133,0.569 -0.199,0.854c-2.032,8.983 -3.173,19.005 1.043,27.566l0.048,0.095c0.063,-0.313 0.13,-0.625 0.198,-0.937c0.067,-0.3 0.136,-0.599 0.207,-0.898c2.652,-10.904 9.627,-20.217 16.752,-28.617l0.12,-0.13c1.976,-1.84 5.062,0.805 3.312,3.041c-0.354,0.417 -0.707,0.835 -1.058,1.255c-8.231,9.897 -13.957,19.229 -15.927,31.927l-0.127,0.81c-0.367,1.869 -2.72,2.549 -3.997,1.036c-0.134,-0.172 -0.268,-0.346 -0.4,-0.52c-6.418,-8.538 -6.898,-18.403 -5.875,-28.576c0.178,-1.769 0.129,-9.517 3.704,-9.672c0.059,0.002 0.117,0.004 0.176,0.006m-66.436,-7.431c1.193,0.127 2.128,1.192 2.1,2.391c-0.035,0.546 -0.069,1.092 -0.1,1.639c-0.709,12.86 0.254,23.748 6.249,35.128c0.311,0.783 0.652,1.64 0.526,2.474c-0.178,1.188 -1.805,1.684 -2.736,1.466c-0.211,-0.058 -0.421,-0.118 -0.632,-0.178c-9.683,-2.862 -15.862,-9.832 -20.997,-18.088c-1.8,-2.893 -3.648,-5.988 -4.445,-9.352c-0.578,-2.442 3.352,-3.053 4.31,-1.064c0.116,0.269 0.232,0.537 0.349,0.805c3.724,8.421 8.784,17.15 17.273,21.509l0.095,0.048c-0.136,-0.289 -0.269,-0.58 -0.4,-0.871c-0.125,-0.28 -0.248,-0.562 -0.369,-0.844c-4.373,-10.335 -4.325,-21.971 -3.613,-32.963l0.019,-0.185c0.2,-1.046 1.114,-1.855 2.186,-1.919c0.061,0.001 0.123,0.003 0.185,0.004m39.778,-1.427c0.815,0.093 1.52,0.585 1.888,1.318c0.23,0.51 0.459,1.02 0.686,1.532c4.483,10.196 8.282,21.127 7.408,32.416l-0.004,0.056c6.68,-7.24 8.269,-17.698 8.724,-27.162l0.017,-0.185c0.457,-2.634 4.497,-2.449 4.478,0.401c-0.015,0.302 -0.03,0.605 -0.046,0.907c-0.72,12.596 -3.944,25.435 -14.566,33.253l-0.173,0.126c-1.646,1.099 -3.718,-0.191 -3.556,-2.099c0.118,-0.943 0.238,-1.886 0.352,-2.83c1.448,-12.319 -2.378,-23.387 -7.421,-34.564l-0.07,-0.172c-0.441,-1.429 0.564,-2.923 2.097,-3.003c0.062,0.002 0.124,0.004 0.186,0.006m-29.443,-0.065c0.655,0.058 1.244,0.363 1.67,0.872c0.342,0.443 0.682,0.887 1.021,1.332c6.725,8.885 12.948,18.631 14.711,29.82l0.009,0.056c4.824,-8.592 3.948,-19.127 2.2,-28.444l-0.026,-0.175c-0.19,-2.815 3.825,-3.384 4.449,-0.655c0.056,0.298 0.111,0.595 0.165,0.893c2.216,12.422 2.049,25.655 -6.473,35.722l-0.14,0.163c-1.304,1.408 -3.662,0.679 -3.945,-1.219c-0.103,-0.946 -0.205,-1.891 -0.312,-2.836c-1.441,-12.318 -7.728,-22.204 -15.221,-31.907l-0.102,-0.144c-0.872,-1.455 0.079,-3.36 1.818,-3.48c0.058,0.001 0.117,0.001 0.176,0.002"/></svg>