<svg xmlns="http://www.w3.org/2000/svg" fill-rule="evenodd" stroke-linejoin="round" stroke-miterlimit="1.414" clip-rule="evenodd" viewBox="0 0 256 256"><rect width="256" height="256" fill="none"/><path d="M145.308,150.175c-1.81,-5.21 -3.597,-11.444 -3.238,-17.096c0.99,-15.561 18.531,-34.351 34.1,-36.161c0.132,-0.016 0.264,-0.034 0.397,-0.052c2.878,-0.411 8.574,-1.472 11.054,-1.936l0.446,-0.083c0.248,-0.034 0.248,-0.034 0.498,-0.043c0.084,0.005 0.167,0.01 0.25,0.016c0.682,0.113 1.251,0.436 1.698,0.962c0.558,0.728 1.118,1.454 1.678,2.18c1.999,2.582 4.09,5.743 6.522,8.077c0.125,0.123 0.124,0.122 0.248,0.247c5.025,5.211 5.602,12.697 5.651,19.364c0.105,14.122 -3.497,29.738 -16.869,37.138c1.84,-0.243 3.69,-0.402 5.546,-0.435c0.216,-0.003 0.432,-0.004 0.648,-0.004c14.171,0.092 26.038,13.582 32.512,24.768c2.682,4.634 4.591,9.642 3.8,15.145c-0.016,0.126 -0.027,0.253 -0.038,0.38c-0.296,3.733 -0.298,7.552 -0.369,11.279l-0.011,0.581l-0.008,0.504l-0.017,0.25c-0.142,0.838 -0.648,1.55 -1.394,1.958c-1.026,0.496 -2.05,0.996 -3.074,1.497c-2.805,1.377 -5.652,2.724 -8.361,4.291c-0.139,0.078 -0.278,0.155 -0.418,0.23c-10.845,5.722 -23.265,2.104 -34.231,-0.718c-3.58,-0.921 -9.801,-3.526 -12.363,-6.397c-4.65,-5.211 -7.006,-11.988 -9.002,-18.492c-10.907,16.027 -41.399,18.284 -55.837,5.613c-0.101,-0.087 -0.203,-0.174 -0.305,-0.26c-2.238,-1.861 -6.839,-5.371 -8.848,-6.902l-0.361,-0.275c-0.717,-0.603 -1.072,-1.497 -0.947,-2.442c0.166,-0.902 0.33,-1.804 0.492,-2.706c0.576,-3.213 1.518,-6.886 1.619,-10.254c0.007,-0.176 0.007,-0.175 0.017,-0.351c0.91,-13.236 15.269,-21.807 25.546,-27.301c3.755,-2.007 8.56,-4.381 12.981,-4.436c0.196,0 0.196,0 0.391,0.001c3.267,0.063 6.501,0.857 9.597,1.863m19.205,41.713c0.018,0.068 0.036,0.136 0.055,0.203c1.319,4.819 3.242,12.702 6.428,17.409c3.29,4.862 8.056,6.968 13.529,8.466c9.449,2.584 21.451,5.577 30.619,0.312c0.144,-0.081 0.288,-0.161 0.432,-0.24c2.404,-1.297 6.792,-3.443 9.148,-4.592l0.127,-0.062c0.015,-0.753 0.031,-1.505 0.047,-2.258c0.023,-0.952 0.046,-1.904 0.072,-2.855c0.069,-2.405 0.051,-4.91 0.427,-7.304c0.016,-0.111 0.031,-0.222 0.044,-0.334c0.715,-6.743 -4.214,-12.995 -8.188,-17.675c-2.176,-2.562 -4.567,-4.949 -7.094,-7.165c-2.614,-2.292 -5.345,-4.48 -8.292,-6.326c-6.156,-3.856 -14.665,-1.803 -21.17,-0.271c6.137,4.224 10.022,11.595 11.168,18.862c-0.186,0.835 -0.403,1.803 -1.078,2.328c-1.269,0.987 -3.051,-0.263 -3.342,-1.483c-0.036,-0.203 -0.067,-0.406 -0.104,-0.608c-0.482,-2.512 -1.333,-5 -2.469,-7.296c-5.167,5.863 -13.585,-3.906 -6.607,-8.013c-1.223,-0.858 -2.534,-1.541 -3.939,-2.054c-2.82,7.173 -6.002,14.251 -9.813,20.956m4.903,-24.127c-0.148,-0.093 -0.296,-0.186 -0.445,-0.279c-9.439,-5.86 -21.539,-13.826 -33.184,-14.167c-0.144,-0.003 -0.287,-0.004 -0.431,-0.004c-3.475,0.043 -7.782,2.305 -10.714,3.874c-8.833,4.728 -22.546,12.137 -22.879,23.778c-0.008,0.151 -0.008,0.151 -0.02,0.301c-0.338,3.707 -1.176,7.568 -1.826,11.17c0,0 1.448,1.469 2.263,2.096c0.716,0.552 1.432,1.105 2.146,1.661c1.576,1.229 3.145,2.457 4.643,3.779c0.111,0.096 0.224,0.191 0.338,0.284c4.542,3.633 10.701,4.561 16.221,5.061c7.924,0.717 18.818,1.085 25.563,-4.11c3.514,-2.706 5.987,-6.555 8.207,-10.293c0.097,-0.624 0.425,-1.189 0.916,-1.577c2.802,-4.931 5.558,-10.813 7.744,-16.017c-0.959,0.345 -1.932,0.634 -2.925,0.868c2.729,8.396 -11.966,8.969 -10.141,0.525c-1.551,-0.185 -3.097,-0.485 -4.605,-0.888l0.031,0.087c0.481,1.405 -0.666,2.355 -1.931,2.37c-0.06,0.002 -0.12,0.005 -0.18,0.009c-0.246,0.021 -0.223,0.03 -0.463,0.092c-0.104,0.024 -0.104,0.024 -0.208,0.045c-0.696,0.124 -1.248,0.084 -1.914,-0.115l-0.068,-0.023c-0.041,0.033 -0.083,0.065 -0.125,0.098l-0.122,0.091c-0.751,0.531 -1.348,0.807 -2.143,0.919c-0.181,0.016 -0.364,0.026 -0.546,0.039c-1.308,0.073 -2.606,-0.43 -3.358,-1.535c-0.082,0.014 -0.082,0.012 -0.165,0.024c-0.702,0.075 -1.303,-0.091 -1.959,-0.27c-0.043,-0.01 -0.086,-0.018 -0.129,-0.026c-0.152,-0.023 -0.304,-0.031 -0.457,-0.039l-0.096,-0.011c-1.309,-0.219 -1.902,-1.774 -1.139,-2.81c0.064,-0.077 0.129,-0.152 0.196,-0.227c0.515,-0.574 1.053,-1.128 1.61,-1.661c-0.028,-0.076 -0.054,-0.152 -0.079,-0.228c-0.375,-1.234 -0.242,-1.933 0.195,-2.853c0.044,-0.096 0.089,-0.192 0.136,-0.287c0.245,-0.484 0.495,-0.848 0.877,-1.235l0.042,-0.041c-0.032,-0.108 -0.06,-0.217 -0.088,-0.327c-0.024,-0.097 -0.046,-0.195 -0.067,-0.293c-0.278,-1.405 0.046,-2.591 0.804,-3.755c0.035,-0.056 0.065,-0.113 0.096,-0.17c0.071,-0.146 0.13,-0.295 0.188,-0.446l0.041,-0.089c1.057,-2.027 3.01,-0.367 3.996,0.709l0.082,0.091c0.071,-0.031 0.144,-0.059 0.216,-0.088c0.09,-0.033 0.09,-0.033 0.181,-0.065c0.348,-0.112 0.563,-0.161 0.894,-0.187c0.069,-0.003 0.135,-0.005 0.203,-0.004c0.104,-0.003 0.209,-0.009 0.313,-0.013c0.125,-0.002 0.125,-0.002 0.25,-0.001c1.23,0.041 2.355,0.573 3.008,1.651c0.216,-0.075 0.433,-0.148 0.651,-0.219c0.367,-0.117 0.734,-0.231 1.106,-0.332l0.094,-0.023c1.544,-0.287 2.393,1.295 1.878,2.632c-0.028,0.078 -0.055,0.156 -0.077,0.236c-0.017,0.067 -0.022,0.122 -0.027,0.192l-0.012,0.115c-0.104,0.779 -0.447,1.47 -0.933,2.081c0,0 0.023,0.167 0.057,0.244c0.038,0.095 0.038,0.095 0.074,0.191c0.129,0.375 0.204,0.714 0.23,1.109c5.975,1.599 12.456,1.227 17.966,-1.714m12.031,8.077c-0.148,-0.045 -0.302,-0.071 -0.459,-0.078c-0.043,-0.001 -0.043,-0.001 -0.086,-0.001c-0.399,0.012 -0.696,0.129 -1.023,0.351c-0.905,0.614 -0.903,2.008 -0.122,2.711c0.596,0.536 1.545,0.576 2.196,0.119c0.293,-0.206 0.466,-0.442 0.609,-0.769c0.103,-0.234 0.145,-0.545 0.123,-0.798c-0.389,-0.531 -0.802,-1.044 -1.238,-1.535m-19.987,-1.053c-0.98,0.1 -1.961,0.148 -2.946,0.146c-0.167,0.29 -0.241,0.598 -0.238,0.932c0.003,0.264 0.094,0.6 0.233,0.825c0.205,0.332 0.422,0.552 0.779,0.713c1.163,0.523 2.557,-0.378 2.502,-1.664c-0.015,-0.34 -0.131,-0.675 -0.33,-0.952m-13.621,-5.391c-0.077,-0.099 -0.172,-0.163 -0.276,-0.246l-0.072,-0.065c-0.475,-0.473 -0.649,-1.122 -0.476,-1.769l0.009,-0.029l-0.077,-0.014l-0.095,-0.022c-0.681,-0.202 -1.161,-0.741 -1.282,-1.44c-0.013,-0.112 -0.023,-0.225 -0.038,-0.337c-0.018,-0.109 -0.039,-0.216 -0.076,-0.32c-0.009,-0.023 -0.009,-0.023 -0.019,-0.047c-0.001,-0.003 -0.024,-0.003 -0.026,-0.004c-0.058,-0.004 -0.116,-0.004 -0.174,-0.003c-0.501,0.017 -0.693,0.098 -1.125,0.479l-0.075,0.062c-0.705,0.523 -1.662,0.481 -2.304,-0.123c0.043,0.128 0.089,0.255 0.137,0.381c0.047,0.119 0.094,0.236 0.143,0.353c0.068,0.218 0.138,0.443 0.135,0.671c-0.003,0.244 -0.051,0.494 -0.153,0.716c-0.25,0.543 -0.576,0.707 -1.074,0.972c-0.043,0.024 -0.083,0.05 -0.122,0.079c-0.227,0.178 -0.319,0.454 -0.444,0.704c-0.003,0.04 0,0.081 0.005,0.121c0.034,0.219 0.145,0.294 0.285,0.427c0.13,0.141 0.266,0.289 0.335,0.469c0.226,0.587 0.247,1.101 -0.069,1.666c0,0 0.056,0.051 0.09,0.065c0.144,0.07 0.291,0.143 0.41,0.25c0.31,0.278 0.496,0.569 0.598,0.967c0.02,0.101 0.036,0.203 0.058,0.303c0.024,0.095 0.05,0.188 0.093,0.276c0,0 0.337,-0.002 0.505,-0.016l0.081,-0.004c0.459,-0.155 0.798,-0.502 1.087,-0.875l0.062,-0.072c0.553,-0.573 1.378,-0.725 2.094,-0.375l-0.008,-0.059c-0.054,-0.747 0.339,-1.468 1.034,-1.775c0.099,-0.537 0.395,-1.029 0.824,-1.366m-3.035,-4.283l0,0c-0.007,0 -0.007,0 -0.015,0c-0.002,0 -0.003,0 -0.005,0c0,0 0,0 0.001,0c0.001,0 0.003,0 0.005,0c0.005,0 0.009,0 0.014,0m28.714,-1.363c0.087,-0.033 0.173,-0.066 0.26,-0.099c6.137,-2.366 17.339,-6.092 20.582,-12.896c0.092,-0.204 0.18,-0.41 0.269,-0.616c3.157,-7.508 5.363,-16.689 5.324,-24.854c-0.026,-5.533 -0.759,-11.853 -5.003,-15.923c-0.107,-0.108 -0.106,-0.108 -0.211,-0.218c-2.525,-2.743 -4.808,-5.924 -7.061,-8.844l-0.196,-0.255c-0.958,0.179 -1.917,0.354 -2.876,0.529c-0.89,0.161 -1.781,0.321 -2.671,0.479c-1.968,0.344 -3.933,0.686 -5.918,0.91c-0.146,0.018 -0.291,0.038 -0.436,0.06c-4.611,0.752 -10.049,4.277 -13.303,7.446c-9.025,8.791 -18.595,18.235 -14.747,31.701c1.102,3.854 2.525,7.61 3.962,11.352c5.94,2.534 11.647,5.618 17.186,8.928c-0.672,-6.172 -1.264,-16.868 5.007,-20.599l0.047,-0.026c0.361,-0.186 0.722,-0.278 1.13,-0.285c0.049,0.002 0.098,0.005 0.147,0.007c2.299,0.261 2.551,3.092 0.939,4.195c-0.04,0.029 -0.078,0.059 -0.116,0.09c-4.562,3.967 -3.061,14.041 -2.315,18.918m-117.56,-73.303c-14.831,-3.398 -21.482,-16.392 -25.172,-29.932c-1.745,-6.406 -3.002,-13.266 -0.471,-19.771c0.049,-0.126 0.094,-0.253 0.139,-0.38c1.25,-3.608 2.254,-7.361 3.301,-11.017l0.124,-0.436c0.307,-0.903 1.02,-1.547 1.931,-1.77c0.9,-0.174 1.8,-0.35 2.699,-0.526c3.204,-0.634 6.966,-1.093 10.141,-2.224c0.166,-0.056 0.165,-0.056 0.332,-0.111c1.457,-0.457 2.79,-0.66 4.32,-0.714c0.237,-0.006 0.474,-0.009 0.711,-0.009c17.593,0.206 39.389,16.968 40.447,35.043c5.429,-4.638 12.615,-10.805 20.252,-10.948c0.19,0 0.189,0 0.379,0.003c13.938,0.485 33.292,7.296 40.205,20.314c0.063,0.118 0.128,0.235 0.192,0.351c1.438,2.543 4.482,7.436 5.826,9.593c0,0 0.735,2.119 0.258,3.004c-0.474,0.784 -0.947,1.569 -1.419,2.355c-1.678,2.802 -3.86,5.899 -5.15,9.013c-0.07,0.162 -0.069,0.161 -0.141,0.322c-3.041,6.601 -9.762,9.829 -15.98,12.309c-13.124,5.235 -28.962,7.563 -40.73,-2.199c7.362,13.357 2.277,28.602 -5.493,40.417c-3.886,5.91 -8.575,11.837 -15.81,13.537c-0.124,0.031 -0.246,0.067 -0.368,0.103c-3.585,1.082 -7.143,2.471 -10.64,3.76l-0.545,0.201l-0.473,0.176l-0.239,0.075c-0.832,0.173 -1.679,-0.04 -2.33,-0.586c-0.836,-0.775 -1.674,-1.547 -2.513,-2.318c-2.304,-2.113 -4.594,-4.274 -7.039,-6.228c-0.124,-0.1 -0.246,-0.202 -0.367,-0.305c-9.198,-7.952 -10.415,-21.048 -11.786,-32.146c-0.453,-3.667 -0.28,-10.417 1.46,-13.843c3.163,-6.227 8.617,-10.888 13.949,-15.113m6.635,1.219c-0.056,0.042 -0.112,0.083 -0.169,0.125c-4.004,2.978 -10.645,7.664 -13.872,12.334c-3.338,4.829 -3.564,10.028 -2.967,15.67c1.03,9.74 2.61,22.011 10.849,28.633c0.128,0.104 0.255,0.21 0.382,0.316c2.072,1.757 5.689,5.084 7.605,6.85l0.104,0.096c0.706,-0.261 1.413,-0.519 2.121,-0.778c0.894,-0.326 1.789,-0.65 2.685,-0.972c2.265,-0.811 4.592,-1.739 6.958,-2.26c0.11,-0.025 0.219,-0.052 0.327,-0.08c6.553,-1.794 10.55,-8.651 13.485,-14.059c1.543,-2.842 2.85,-5.818 3.961,-8.856c1.206,-3.298 2.289,-6.662 2.974,-10.107c1.443,-7.255 -3.554,-14.492 -7.417,-20.094c-1.703,7.255 -7.155,13.551 -13.506,17.266l-0.055,0.031c-2.453,1.295 -4.65,-2.222 -2.345,-3.838c0.177,-0.108 0.357,-0.212 0.534,-0.322c2.162,-1.36 4.173,-3.061 5.897,-4.953c-5.261,-1.915 -3.925,-9.988 1.677,-10.192c0.126,-0.002 0.126,-0.002 0.252,-0.001c1.131,0.04 2.239,0.421 3.131,1.123c0.354,-1.451 0.513,-2.92 0.48,-4.417c-7.708,-0.019 -15.457,-0.405 -23.091,-1.515m29.489,-1.851c0.062,0.069 0.124,0.137 0.187,0.206c5.228,5.724 12.838,14.606 21.554,14.574c3.551,-0.012 7.1,-0.439 10.604,-1.016c3.317,-0.545 6.614,-1.3 9.81,-2.342c6.018,-1.961 13.61,-4.745 16.303,-11.248c0.062,-0.139 0.061,-0.138 0.126,-0.275c1.627,-3.336 3.796,-6.679 5.669,-9.796l0.166,-0.275c-0.516,-0.828 -1.028,-1.657 -1.539,-2.486c-0.474,-0.771 -0.947,-1.542 -1.418,-2.315c-1.038,-1.708 -2.069,-3.412 -3.001,-5.18c-0.07,-0.13 -0.142,-0.258 -0.215,-0.385c-5.019,-8.493 -17.789,-12.726 -26.192,-15.155c-6.074,-1.756 -9.603,-2.313 -15.041,0.03c-5.006,2.157 -10.65,7.516 -14.208,10.732l-0.35,0.319l-0.01,0.01c-0.2,6.453 -0.997,12.895 -2.063,19.258c4.491,-2.342 9.466,-4.388 14.604,-4.496c0.195,-0.002 0.195,-0.002 0.39,-0.002c2.052,0.028 4.337,0.361 6.012,1.665c0,0 1.123,1.659 0.765,2.428c-0.673,1.442 -2.191,2.032 -3.564,1.097c-0.06,-0.039 -0.122,-0.073 -0.186,-0.106c-5.413,-2.714 -14.065,2.251 -18.403,4.758m-8.377,11.783c-0.062,-0.869 -0.769,-1.548 -1.628,-1.619c-0.057,-0.004 -0.113,-0.005 -0.169,-0.004c-0.264,0.009 -0.502,0.067 -0.739,0.183c-0.916,0.446 -1.2,1.603 -0.725,2.473c0.186,0.341 0.51,0.561 0.851,0.729c0.148,0.074 0.457,0.129 0.621,0.128c0.295,-0.002 0.542,-0.046 0.81,-0.177c0.353,-0.556 0.68,-1.127 0.979,-1.713m3.146,-14.144c0.033,-0.172 0.066,-0.344 0.098,-0.515c2.419,-13.051 6.418,-30.215 -2.874,-41.659c-3.279,-4.039 -9.866,-8.538 -14.196,-11.093c-4.792,-2.828 -10.132,-5.562 -15.901,-5.63c-0.132,0 -0.131,0 -0.263,0.001c-1.416,0.023 -2.52,0.236 -3.777,0.684c-0.144,0.047 -0.143,0.047 -0.288,0.091c-3.567,1.029 -7.499,1.662 -11.068,2.363l-0.316,0.062c-0.268,0.936 -0.54,1.872 -0.812,2.808c-0.254,0.869 -0.509,1.737 -0.767,2.604c-0.571,1.915 -1.143,3.824 -1.831,5.7c-0.049,0.139 -0.096,0.278 -0.141,0.418c-1.728,5.54 -0.349,11.587 1.188,16.95c2.186,7.624 5.822,17.865 13.053,22.266c3.822,2.327 8.322,3.237 12.649,3.948c0.239,-0.053 0.303,-0.047 0.541,-0.059c0.087,0.004 0.174,0.009 0.261,0.013c0.394,0.062 0.556,0.069 0.996,0.324c5.868,0.851 11.82,1.238 17.742,1.388c-0.671,-0.768 -1.294,-1.569 -1.873,-2.408c-6.809,5.578 -12.696,-7.895 -4.179,-9.255c-0.377,-1.456 -0.68,-3.081 -0.849,-4.613l-0.07,0.062c-1.133,0.957 -2.435,0.236 -2.909,-0.937c-0.024,-0.056 -0.048,-0.11 -0.074,-0.165c-0.109,-0.221 -0.109,-0.197 -0.254,-0.397c-0.06,-0.089 -0.06,-0.088 -0.119,-0.179c-0.342,-0.561 -0.534,-1.166 -0.588,-1.823l-0.004,-0.073c-0.046,-0.026 -0.091,-0.053 -0.136,-0.08l-0.129,-0.081c-0.759,-0.5 -1.244,-0.962 -1.636,-1.661c-0.067,-0.134 -0.127,-0.271 -0.192,-0.405c-0.576,-1.215 -0.616,-2.638 0.165,-3.776c-0.042,-0.071 -0.041,-0.072 -0.082,-0.145c-0.327,-0.629 -0.388,-1.242 -0.462,-1.923c-0.006,-0.044 -0.014,-0.087 -0.023,-0.13c-0.034,-0.15 -0.081,-0.294 -0.129,-0.44l-0.025,-0.094c-0.273,-1.298 0.96,-2.417 2.203,-2.083c0.095,0.032 0.188,0.065 0.282,0.1c0.624,0.234 1.239,0.49 1.847,0.763l0.157,0.072l0.13,0.061c0.06,-0.054 0.121,-0.106 0.184,-0.158c1.014,-0.799 1.711,-0.927 2.727,-0.856c0.106,0.007 0.212,0.014 0.318,0.023c0.552,0.054 1.013,0.161 1.522,0.392c0.09,-0.069 0.181,-0.136 0.273,-0.201c1.266,-0.883 2.575,-1.092 4.04,-0.787c0.063,0.013 0.128,0.02 0.192,0.027c0.163,0.014 0.324,0.014 0.487,0.014c0.097,0.005 0.097,0.005 0.194,0.016c2.175,0.364 1.33,2.675 0.694,3.97c0,0 0.038,0.206 0.106,0.279c0.063,0.071 0.124,0.142 0.184,0.216c0.204,0.259 0.31,0.422 0.443,0.695c0.069,0.157 0.134,0.315 0.202,0.473c0.484,1.184 0.449,2.59 -0.351,3.634c0.09,0.106 0.179,0.212 0.269,0.319c0.285,0.345 0.565,0.694 0.834,1.051c0.213,0.381 0.458,0.818 0.389,1.249c-0.181,1.123 -1.039,1.598 -2.052,1.604c-0.083,0.002 -0.166,0.005 -0.249,0.014c-0.068,0.008 -0.122,0.023 -0.188,0.044l-0.111,0.031c-0.764,0.187 -1.533,0.119 -2.278,-0.112l-0.051,-0.017c-0.05,0.055 -0.103,0.106 -0.156,0.159c-0.075,0.07 -0.074,0.07 -0.151,0.138c-0.302,0.257 -0.592,0.451 -0.95,0.619c0.692,6.163 3.392,12.052 8.134,16.11m-10.645,-7.545c-0.048,-0.008 -0.096,-0.014 -0.144,-0.018c-0.057,-0.003 -0.113,-0.004 -0.17,-0.004c-0.267,0.01 -0.498,0.068 -0.738,0.184c-0.801,0.384 -1.173,1.38 -0.857,2.206c0.267,0.698 0.997,1.15 1.736,1.12c0.235,-0.01 0.469,-0.066 0.68,-0.171c0.277,-0.139 0.534,-0.368 0.701,-0.627c-0.45,-0.878 -0.851,-1.773 -1.208,-2.69m1.95,-13.094c0.292,-0.238 0.595,-0.348 0.962,-0.389l0.029,-0.002l-0.015,-0.077l-0.013,-0.096c-0.061,-0.708 0.267,-1.351 0.873,-1.718c0.1,-0.054 0.202,-0.103 0.301,-0.158c0.095,-0.057 0.187,-0.116 0.271,-0.188c0.018,-0.017 0.018,-0.016 0.036,-0.033l0.001,-0.002c-0.013,-0.049 -0.03,-0.095 -0.048,-0.142c-0.2,-0.489 -0.343,-0.647 -0.873,-0.92l-0.085,-0.047c-0.745,-0.466 -1.054,-1.373 -0.725,-2.191c-0.019,0.015 -0.037,0.031 -0.056,0.047c-0.181,0.155 -0.355,0.315 -0.526,0.481l-0.072,0.066c-0.854,0.696 -1.773,0.419 -2.522,-0.225c-0.038,-0.031 -0.077,-0.06 -0.119,-0.086c-0.248,-0.146 -0.539,-0.131 -0.817,-0.157c-0.038,0.012 -0.074,0.029 -0.109,0.048c-0.194,0.113 -0.223,0.243 -0.296,0.423l-0.041,0.088c-0.368,0.68 -1.084,1.042 -1.851,0.936c0,0 -0.027,0.071 -0.027,0.108l-0.006,0.096c-0.064,0.518 -0.339,0.982 -0.762,1.285c-0.086,0.055 -0.175,0.107 -0.26,0.164c-0.08,0.057 -0.157,0.116 -0.223,0.188c0,0 0.124,0.313 0.198,0.465c0.094,0.128 0.193,0.262 0.328,0.346c0.286,0.176 0.594,0.326 0.916,0.421c0.206,0.083 0.421,0.17 0.583,0.322c0.443,0.416 0.669,0.908 0.617,1.523l0.053,-0.028c0.102,-0.049 0.205,-0.091 0.312,-0.123c0.353,-0.894 1.216,-1.427 2.16,-1.428c0.046,0.003 0.093,0.006 0.139,0.008c0.675,0.083 1.282,0.419 1.667,0.995"/></svg>