<svg xmlns="http://www.w3.org/2000/svg" fill-rule="evenodd" stroke-linejoin="round" stroke-miterlimit="1.414" clip-rule="evenodd" viewBox="0 0 256 256"><rect width="256" height="256" fill="none"/><path d="M132.526,181.43c-3.196,2.968 -4.227,8.87 -5.472,12.8c-0.146,0.458 -0.293,0.915 -0.442,1.372c-6.309,19.174 -24.892,27.855 -43.003,32.571c-7.286,1.897 -20.065,5.553 -26.757,-1.118c-8.588,-8.56 -9.348,-23.068 -10.649,-33.971c-0.088,-0.723 -0.176,-1.445 -0.267,-2.167c-0.521,-4.053 -1.153,-8.059 -2.336,-11.973c-0.066,-0.225 -0.131,-0.45 -0.194,-0.677c-4.417,-16.196 2.66,-34.128 7.979,-49.122c1.219,-3.423 2.453,-6.84 3.672,-10.264c5.171,-14.566 9.81,-29.195 10.798,-44.68c0.019,-0.282 0.04,-0.564 0.064,-0.846c1.419,-16.285 10.554,-32.797 23.218,-43.052c0.093,-0.077 0.185,-0.155 0.276,-0.235c0.86,-0.768 1.494,-1.823 1.858,-2.916c0.193,-0.579 -0.611,-2.321 -0.283,-1.808l0.01,0.017l-0.194,-0.382l-0.125,-0.409c-0.196,-1.53 0.689,-2.774 2.267,-3.022c0.143,0.002 0.285,0.005 0.428,0.007c0.652,0.123 1.217,0.417 1.816,0.694c0.423,0.194 0.847,0.386 1.271,0.576c2.245,0.996 5.265,2.594 7.913,2.717c0.284,0.015 0.284,0.015 0.568,0.033c35.081,2.473 66.83,35.867 75.148,68.315c0.075,0.291 0.154,0.58 0.234,0.869c2.486,8.726 7.759,16.331 12.673,23.877c0.261,0.404 0.522,0.808 0.783,1.212c2.78,4.343 5.374,8.686 7.19,13.48c0.432,1.172 0.855,2.347 1.28,3.522c1.526,4.237 3.066,8.473 4.397,12.775c4.737,15.312 18.535,53.522 -9.246,54.724c-3.997,0.173 -8.031,0.241 -11.998,-0.274c-5.842,-0.757 -11.71,-1.722 -17.317,-3.528c-8.561,-2.758 -14.018,-7.783 -20.819,-13.295c-0.438,-0.353 -0.875,-0.704 -1.315,-1.054c-2.395,-1.895 -5.44,-4.321 -8.454,-5.368c2.458,13.42 2.201,20.937 1.722,34.504c-0.111,3.138 -1.02,11.047 -2.464,13.536c-1.568,2.702 -5.139,0.76 -4.61,-1.823c0.068,-0.27 0.135,-0.539 0.201,-0.809c3.484,-14.58 2.907,-30.149 0.179,-44.808m3.485,-6.002c6.743,0.526 12.86,6.697 17.693,10.612c0.464,0.374 0.93,0.748 1.397,1.12c5.986,4.744 11.269,7.972 18.752,9.859c4.663,1.176 9.472,1.719 14.252,2.252c3.291,0.367 10.882,0.601 14.315,-0.892c6.633,-2.884 7.163,-11.27 6.281,-17.428c-2.652,-18.501 -5.447,-26.722 -12.306,-45.576c-0.108,-0.294 -0.108,-0.293 -0.219,-0.586c-2.459,-6.332 -6.456,-12.014 -10.14,-17.665c-0.267,-0.411 -0.534,-0.822 -0.8,-1.234c-4.57,-7.115 -8.368,-14.455 -10.462,-22.657c-0.096,-0.371 -0.195,-0.742 -0.296,-1.112c-8.037,-29.052 -39.277,-60.161 -70.948,-61.61c-0.111,-0.008 -0.11,-0.008 -0.221,-0.017c-2.389,-0.246 -5.045,-1.456 -7.137,-2.341c-0.006,0.034 -0.012,0.068 -0.019,0.101c-0.564,2.754 -2.461,4.8 -4.572,6.495c-0.221,0.18 -0.22,0.18 -0.439,0.361c-11.774,9.945 -19.54,25.732 -20.387,41.062c-0.018,0.297 -0.037,0.594 -0.057,0.89c-1.319,18.342 -8.177,35.775 -14.302,52.914c-0.398,1.12 -0.795,2.24 -1.19,3.362c-4.886,13.96 -11.016,30.245 -6.523,45.123c0.071,0.237 0.139,0.475 0.206,0.714c1.078,3.932 1.672,8.402 2.171,12.427c0.253,2.085 0.493,4.171 0.742,6.256c0.887,7.333 1.245,19.415 7.844,25.025c6.585,5.598 18.002,1.823 24.73,-0.15c10.696,-3.136 24.041,-7.701 31.341,-16.572c4.504,-5.473 5.673,-10.667 7.819,-17.395c0.138,-0.428 0.277,-0.855 0.418,-1.281c1.344,-4.01 3.049,-8.931 7.051,-11.075c0.001,-0.051 0.002,-0.101 0.002,-0.152c0.034,-3.521 -0.21,-7.348 -0.525,-10.863c-0.056,-0.029 -0.112,-0.059 -0.168,-0.087c-0.126,-0.062 -0.252,-0.122 -0.38,-0.18c-6.015,-2.666 -13.415,-2.77 -19.83,-3.593c-0.821,-0.107 -1.641,-0.214 -2.461,-0.325c-9.664,-1.326 -16.723,-2.53 -25.606,-6.803c-0.232,-0.111 -11.619,-7.555 -3.803,-8.072c0.077,0.002 0.154,0.004 0.231,0.006c0.8,0.095 1.308,0.486 1.893,0.98c0.144,0.118 0.288,0.235 0.433,0.35c9.627,7.51 24.141,8.164 35.624,9.623c0.755,0.097 1.51,0.195 2.265,0.296c2.104,0.286 4.21,0.578 6.295,0.985c1.659,0.323 3.295,0.764 4.927,1.203c-0.805,-6.949 -1.987,-14.521 -3.184,-21.273c-0.034,-0.052 -0.068,-0.103 -0.102,-0.154c-1.725,-2.448 -5.493,-3.018 -8.217,-3.607c-1.152,-0.245 -2.306,-0.481 -3.458,-0.724c-8.231,-1.764 -16.078,-4.731 -22.507,-10.32l-0.179,-0.157c-1.656,-1.57 -0.606,-4.236 1.584,-4.376c0.063,0 0.125,0.001 0.187,0.002c0.572,0.049 1.083,0.254 1.531,0.619c0.164,0.144 0.328,0.287 0.493,0.429c6.744,5.732 14.948,7.841 23.397,9.638c0.371,0.08 0.741,0.162 1.111,0.245c1.651,0.379 3.298,0.8 4.872,1.436c-2.167,-11.29 -4.69,-22.521 -7.6,-33.644c-2.961,-2.124 -6.726,-3.078 -10.115,-4.265c-0.338,-0.119 -0.676,-0.239 -1.014,-0.36c-6.696,-2.422 -12.981,-5.636 -18.375,-10.348l-0.148,-0.13c-1.701,-1.608 -0.523,-4.351 1.713,-4.376c0.058,0.004 0.116,0.007 0.174,0.011c0.53,0.068 1.002,0.272 1.418,0.613c0.228,0.2 0.457,0.399 0.687,0.595c6.058,5.124 13.157,7.851 20.531,10.437c0.456,0.162 0.912,0.325 1.367,0.491c0.666,0.246 1.333,0.501 1.993,0.772c-3.126,-11.225 -6.507,-22.589 -11.625,-33.097l-0.128,-0.316c-0.416,-1.641 0.689,-3.202 2.438,-3.278c0.113,0.011 0.227,0.021 0.34,0.032c2.252,0.527 3.598,4.835 4.148,6.463c3.42,10.126 7.254,20.13 10.08,30.438c3.572,-3.361 8.24,-5.614 12.497,-7.971c0.383,-0.214 0.766,-0.427 1.149,-0.642c5.206,-2.935 10.251,-6.139 14.843,-9.984c-8.979,-11.131 -20.6,-19.228 -34.008,-23.759c-4.173,-1.41 -9.016,-2.363 -13.397,-1.005c-7.543,2.338 -12.89,12.484 -15.934,18.516c-2.399,4.755 -3.667,10.149 -3.96,15.445c-0.014,0.23 -0.028,0.461 -0.044,0.691c-0.814,11.317 -4.449,22.325 -8.199,32.93c-1.09,3.071 -2.201,6.135 -3.29,9.206c-3.757,10.63 -9.135,23.829 -5.585,35.227c-0.13,1.091 -0.313,2.618 -1.338,3.013c-1.1,0.423 -2.828,-0.149 -3.318,-1.221c-1.365,-2.983 -1.608,-6.417 -1.678,-9.697c-0.201,-9.437 4.671,-21.848 7.437,-29.643c0.937,-2.632 1.886,-5.26 2.824,-7.892c3.942,-11.109 7.54,-22.33 8.267,-34.152c0.014,-0.205 0.029,-0.409 0.045,-0.614c1.16,-13.648 12.031,-37.102 28.565,-37.42c0.24,-0.002 0.24,-0.002 0.479,-0.002c26.904,0.292 53.53,27.518 59.655,52.075c-0.025,1.046 -0.057,2.346 -0.858,3.019c-2.166,1.821 -3.793,-1.04 -4.139,-2.386c-0.049,-0.188 -0.099,-0.375 -0.149,-0.563c-1.752,-6.367 -4.596,-12.284 -8.377,-17.759c-6.113,5.075 -12.949,8.979 -19.868,12.814c-0.342,0.191 -0.684,0.382 -1.026,0.574c-3.184,1.803 -7.04,3.85 -9.026,7.072c2.895,11.143 5.406,22.39 7.565,33.698c2.906,-2.977 6.915,-5.281 10.417,-7.254c1.42,-0.795 2.845,-1.58 4.265,-2.373c5.824,-3.265 11.482,-6.808 16.506,-11.236l0.142,-0.116c0.461,-0.324 0.972,-0.492 1.532,-0.508c0.061,0.002 0.121,0.005 0.182,0.008c2.126,0.251 3.01,2.888 1.45,4.367c-0.238,0.21 -0.476,0.418 -0.716,0.626c-6.206,5.309 -13.23,9.312 -20.331,13.266c-0.573,0.321 -1.145,0.643 -1.717,0.968c-3.836,2.196 -8.546,4.844 -10.483,9.035c1.141,6.462 2.158,12.948 2.958,19.461c4.664,-2.684 9.973,-4.3 15.001,-6.122c0.731,-0.266 1.463,-0.534 2.194,-0.803c9.056,-3.365 18.388,-7.251 25.282,-14.25l0.155,-0.145c0.457,-0.359 0.975,-0.559 1.554,-0.6c0.071,0.001 0.142,0.002 0.213,0.003c2.075,0.205 3.096,2.642 1.64,4.25c-0.183,0.187 -0.368,0.372 -0.555,0.556c-7.728,7.536 -17.919,11.707 -27.894,15.367c-1.976,0.72 -3.957,1.43 -5.933,2.151c-3.629,1.334 -7.956,2.675 -11.032,5.18c0.388,3.89 0.731,8.468 0.735,12.453m-71.682,16.198c1.095,0.137 2.011,0.976 2.235,2.067c0.06,0.35 0.121,0.7 0.184,1.05c1.233,6.674 3.599,15.076 11.769,15.337c1.77,0.056 3.555,0.03 5.308,-0.222c2.525,-0.364 5.026,-0.917 7.479,-1.618l0.159,-0.04c3.02,-0.55 4.198,3.889 1.215,4.848c-0.238,0.068 -0.476,0.135 -0.714,0.202c-7.828,2.147 -18.339,3.989 -24.445,-2.947c-1.332,-1.512 -2.577,-3.805 -3.281,-5.679c-1.281,-3.409 -1.91,-6.14 -2.54,-9.721l-0.062,-0.365c-0.212,-1.535 0.953,-2.912 2.53,-2.922c0.054,0.004 0.109,0.007 0.163,0.01m125.393,-51.989c0.956,0.126 1.763,0.745 2.131,1.636c0.378,1.039 0.756,2.077 1.13,3.117c4.198,11.705 8.307,23.476 8.734,36.013c0.14,4.121 -0.312,9.733 -3.759,12.673c-2.455,2.093 -4.049,-2.245 -2.953,-3.945c0.056,-0.089 0.11,-0.179 0.162,-0.269c2.298,-4.065 1.85,-9.881 1.062,-14.155c-2.469,-13.398 -4.426,-18.947 -9.074,-31.725l-0.066,-0.208c-0.348,-1.57 0.756,-3.074 2.415,-3.146c0.073,0.003 0.146,0.006 0.218,0.009"/></svg>