<svg xmlns="http://www.w3.org/2000/svg" fill-rule="evenodd" stroke-linejoin="round" stroke-miterlimit="1.414" clip-rule="evenodd" viewBox="0 0 256 256"><rect width="256" height="256" fill="none"/><path d="M47.972,142.96c-0.071,-0.085 -0.142,-0.171 -0.212,-0.257c-5.385,-6.63 -2.931,-11.593 1.441,-18.473c0.134,-0.213 0.268,-0.427 0.4,-0.641c0.711,-1.166 1.272,-2.28 1.836,-3.496c0.074,-0.155 0.148,-0.309 0.224,-0.462c2.677,-5.316 7.45,-9.288 12.573,-12.139l0.229,-0.126l0.164,-0.089c0.043,-0.074 0.082,-0.15 0.12,-0.226c1.008,-2.085 1.505,-4.882 1.903,-7.019l0.045,-0.252l0.016,-0.087l0.055,-0.244c0.352,-1.052 1.303,-1.772 2.411,-1.825c0.084,0.004 0.167,0.008 0.25,0.013c0.822,0.125 1.457,0.627 1.911,1.217c0.058,0.075 0.119,0.147 0.181,0.218c2.655,2.958 6.985,3.812 10.787,4.085c0.178,0.015 0.178,0.015 0.357,0.034c3.544,0.416 6.412,2.394 9.332,4.289c0.199,0.128 0.398,0.254 0.598,0.379c1.324,0.807 2.614,1.458 4.178,1.316c0.142,-0.011 0.285,-0.021 0.427,-0.028c12.438,-0.5 19.888,16.287 15.473,26.34c-0.07,0.163 -0.137,0.328 -0.202,0.493c-2.29,5.952 -2.504,12.876 -3.039,19.147c5.28,5.857 5.687,13.747 4.092,21.137c-0.074,0.352 -0.146,0.704 -0.216,1.057c-0.841,4.298 -1.198,7.751 -1.725,12.193c-0.073,0.6 -0.147,1.201 -0.224,1.801c-0.799,6.099 -2.202,13.208 -8.465,15.886c1.768,4.935 3.583,10.008 5.732,14.817l0.039,0.086l0.037,0.04c0.24,1.063 0.504,2.236 0.147,3.265c-0.301,0.867 -2.772,1.471 -3.399,0.625c-5.693,-7.672 -4.34,-8.914 -7.468,-17.724c-9.381,0.308 -13.898,-10.555 -17.572,-17.38c-0.19,-0.351 -0.381,-0.703 -0.572,-1.054c-5.258,-9.59 -12.178,-18.063 -18.978,-26.575c-0.516,-0.646 -1.03,-1.294 -1.542,-1.942c-4.239,-5.39 -9.207,-11.621 -11.344,-18.399Zm7.359,4.145c2.564,4.405 5.761,8.453 8.921,12.433c1.592,1.997 3.194,3.986 4.787,5.983c6.74,8.478 12.574,17.143 17.728,26.681c0.269,0.494 0.539,0.987 0.811,1.479c0.859,1.538 1.801,3.047 2.929,4.4c1.214,1.456 2.588,2.787 4.06,3.982c8.106,6.584 11.359,-7.545 11.977,-12.549c0.176,-1.454 0.342,-2.909 0.516,-4.363c0.463,-3.807 1.057,-7.453 1.843,-11.176c0.049,-0.241 0.049,-0.241 0.096,-0.482c0.426,-2.291 0.547,-4.664 0.315,-6.983c-1.581,-15.825 -22.924,-16.081 -34.306,-13.733c-0.148,0.029 -0.295,0.055 -0.443,0.08c-6.65,1.043 -13.645,-2.648 -19.151,-5.818c0,0 -0.101,0.035 -0.083,0.066Zm75.501,-47.835c-0.105,-0.741 -0.21,-1.483 -0.316,-2.224c-1.121,-7.747 -1.912,-16.401 -5.62,-23.476c-0.077,-0.151 -0.153,-0.303 -0.226,-0.455c-5.776,-12.319 4.076,-32.343 18.726,-31.998c0.095,0.001 0.095,0.001 0.19,-0.001c2.911,-0.108 5.429,-2.514 7.656,-4.153c0.186,-0.135 0.372,-0.27 0.558,-0.405c3.059,-2.181 6.221,-3.646 9.934,-4.163c0.255,-0.038 0.254,-0.038 0.51,-0.077c3.134,-0.509 6.088,-1.861 8.988,-3.155c0.963,-0.429 1.703,-1.249 2.481,-1.961c0.406,-0.372 1.324,-1.752 1.052,-1.274l0.154,-0.239c0.503,-0.611 1.163,-0.958 1.951,-1.024c0.095,0.003 0.19,0.005 0.285,0.008c1.06,0.154 1.91,0.875 2.218,1.924c0.072,0.309 0.147,0.617 0.223,0.925c0.584,2.317 1.435,6.509 3.102,8.805c0,0 0.45,0.228 0.677,0.337c0.198,0.097 0.395,0.193 0.592,0.291c6.901,3.456 12.961,8.503 16.585,15.363c0.099,0.185 0.199,0.368 0.302,0.55c1.266,2.23 2.679,4.06 4.23,6.211c0.191,0.267 0.382,0.535 0.571,0.803c5.121,7.354 5.475,12.363 0.3,19.369c-3.077,12.09 -12.007,22.553 -19.08,32.472c-0.425,0.597 -0.849,1.194 -1.272,1.791c-6.235,8.83 -12.118,17.82 -16.76,27.595c-0.849,1.802 -1.686,3.61 -2.535,5.412c-3.154,6.646 -7.008,15.267 -14.739,17.464l-0.042,0.139c-2.087,6.817 -5.783,13.036 -8.852,19.472c-0.645,1.352 -2.33,4.027 -4.133,4.282l-0.01,0.001c-0.263,0.022 -0.376,0.022 -0.651,-0.011l-0.008,-0.001c-0.322,-0.056 -0.488,-0.109 -0.782,-0.25l-0.008,-0.003c-0.282,-0.155 -0.415,-0.246 -0.67,-0.498l-0.007,-0.006c-0.091,-0.1 -0.174,-0.201 -0.254,-0.311l-0.006,-0.008c-0.085,-0.131 -0.085,-0.131 -0.162,-0.268l-0.005,-0.009c-0.252,-0.519 -0.333,-1.051 -0.271,-1.621c0.152,-1.126 0.307,-2.251 0.464,-3.376c0.689,-4.888 1.522,-9.755 2.366,-14.618c0.275,-1.587 0.633,-3.158 0.99,-4.729c-6.552,-4.111 -7.836,-12.915 -9.061,-19.835c-0.274,-1.567 -0.542,-3.134 -0.818,-4.701c-0.79,-4.439 -1.691,-8.778 -2.895,-13.108c-0.093,-0.345 -0.092,-0.345 -0.183,-0.691c-2.132,-8.452 -1.448,-17.648 4.261,-24.565Zm13.398,64.789c-0.684,3.109 -1.256,6.24 -1.78,9.38l-0.006,0.037c1.415,-2.955 2.7,-5.981 3.746,-9.087c-0.641,-0.072 -1.32,-0.186 -1.96,-0.33Zm-0.252,-5.264c11.396,4.058 16.437,-11.498 20.019,-19.13c0.329,-0.698 0.66,-1.395 0.993,-2.091c6.005,-12.454 14.175,-23.635 22.173,-34.858c0.4,-0.562 0.799,-1.124 1.197,-1.687c3.73,-5.292 8.207,-11.753 10.887,-17.755l0.035,-0.078c-0.044,0.029 -0.087,0.058 -0.131,0.088c-7.876,5.298 -17.06,11.186 -26.984,9.631c-0.272,-0.041 -0.545,-0.081 -0.818,-0.12c-13.765,-1.905 -41.007,1.042 -40.909,20.538c0.019,3.738 0.494,7.512 1.482,11.118c0.083,0.309 0.166,0.619 0.247,0.929c1.37,5.307 2.28,10.691 3.223,16.089c0.108,0.612 0.217,1.224 0.329,1.836c0.916,4.945 2.005,12.35 7.085,14.983c0.424,0.064 0.835,0.242 1.172,0.507Zm-38.316,-15.454c-1.88,1.967 -3.919,3.785 -6.096,5.418c1.807,0.655 3.558,1.478 5.188,2.492c0.246,-2.643 0.524,-5.284 0.908,-7.91Zm3.416,-13.074c0.753,-6.315 -4.514,-16.847 -12.214,-16.078l-0.168,0.013c-3.534,0.205 -6.489,-1.938 -9.372,-3.807c-0.209,-0.134 -0.42,-0.267 -0.631,-0.399c-2.027,-1.241 -3.295,-1.74 -5.379,-1.898c-0.239,-0.02 -0.478,-0.042 -0.717,-0.065c-3.401,-0.361 -6.794,-1.273 -9.722,-3.083l-0.114,-0.072l-0.043,-0.027c-0.07,0.275 -0.142,0.549 -0.216,0.822c-0.561,2.025 -1.199,4.573 -3.08,5.775c-0.323,0.183 -0.651,0.354 -0.975,0.534c-4.58,2.583 -8.623,6.202 -10.836,11.015c-0.086,0.184 -0.174,0.366 -0.263,0.549c-0.606,1.219 -1.196,2.206 -1.922,3.358c-0.507,0.798 -1.027,1.589 -1.535,2.388c-2.498,3.96 -3.462,6.198 -0.692,9.709c0.843,0.225 1.959,0.888 2.684,1.311c0.94,0.555 1.873,1.122 2.811,1.68c4.624,2.737 10.882,6.602 16.631,5.987l-0.042,-0.15c-0.864,-3.014 -2.131,-7.007 -3.898,-9.736l-0.056,-0.091c-0.883,-1.579 0.209,-3.658 2.063,-3.766c0.108,-0.001 0.107,-0.001 0.215,0.002c1.39,0.098 2.367,1.45 2.827,2.57c1.39,3.382 2.855,6.755 3.833,10.278c1.311,-0.192 2.63,-0.335 3.952,-0.427l0.002,-0.034c0.329,-5.27 1.351,-10.477 2.272,-15.677c0.292,-1.652 1.214,-4.766 3.507,-4.791c0.047,0.002 0.094,0.004 0.141,0.007c1.643,0.167 2.678,1.832 2.162,3.359c-0.101,0.251 -0.21,0.498 -0.309,0.749c-1.972,5.044 -2.424,11.006 -2.757,16.282c1.958,0.057 3.926,0.235 5.861,0.55c0.265,-0.17 0.535,-0.331 0.8,-0.499c6.027,-3.867 11.7,-9.364 14.885,-15.876l0.06,-0.116c0.072,-0.121 0.149,-0.237 0.235,-0.346Zm23.918,-48.203c0.959,4.282 1.645,8.634 2.28,12.973c2.498,-1.889 5.299,-3.371 8.22,-4.511c-3.796,-2.421 -7.319,-5.275 -10.5,-8.462Zm69.623,-6.728c3.587,-5.043 2.204,-8.037 -1.595,-13.339c-0.57,-0.791 -1.147,-1.576 -1.717,-2.367c-1.415,-1.978 -2.553,-3.829 -3.669,-5.923c-0.081,-0.15 -0.164,-0.299 -0.248,-0.447c-3.347,-5.831 -9.156,-9.673 -15.078,-12.514l-0.099,-0.05c-2.708,-1.527 -3.704,-5.77 -4.529,-8.521l-0.011,-0.036c-0.128,0.102 -0.258,0.2 -0.388,0.299c-0.129,0.096 -0.258,0.191 -0.389,0.285c-3.959,2.804 -8.739,4.151 -13.495,4.758c-0.139,0.02 -0.139,0.02 -0.278,0.042c-3.376,0.587 -6.095,2.87 -8.771,4.839c-0.18,0.131 -0.36,0.262 -0.54,0.393c-2.785,1.986 -5.751,3.416 -9.204,3.337c-0.108,-0.001 -0.216,0 -0.324,0.001c-9.765,0.274 -15.539,14.016 -14.012,22.023c0.137,0.134 0.252,0.283 0.36,0.441c0.122,0.201 0.239,0.406 0.361,0.607c4.977,8.082 12.452,14.76 20.777,19.244c0,0 0.16,0.094 0.237,0.146c2.684,-0.605 5.423,-0.992 8.166,-1.194c-0.846,-7.26 -1.774,-15.272 -5.103,-21.915l-0.066,-0.142c-0.612,-1.578 0.503,-3.379 2.24,-3.477c0.052,0 0.104,0.001 0.157,0.001c0.901,0.063 1.713,0.591 2.139,1.378c0.103,0.205 0.204,0.411 0.302,0.618c3.387,7.207 4.453,15.555 5.344,23.37c2.029,0.013 4.068,0.121 6.086,0.319c0.057,-0.264 0.114,-0.527 0.171,-0.791c0.524,-2.346 2.138,-15.584 7.035,-15.883c0.121,-0.001 0.12,-0.001 0.241,0.003c1.72,0.145 2.85,2.019 2.078,3.63c-0.105,0.194 -0.216,0.386 -0.322,0.58c-2.015,3.772 -3.342,9.051 -4.231,13.127c0.056,0.007 0.112,0.014 0.168,0.02c8.849,0.889 17.68,-6.201 24.507,-10.794c0.303,-0.202 0.607,-0.404 0.913,-0.604c0.757,-0.49 1.881,-1.219 2.787,-1.464Z"/></svg>