<svg xmlns="http://www.w3.org/2000/svg" fill-rule="evenodd" stroke-linejoin="round" stroke-miterlimit="1.414" clip-rule="evenodd" viewBox="0 0 256 256"><rect width="256" height="256" fill="none"/><path d="M114.023,60.402c1.095,-7.159 2.877,-14.208 4.82,-21.185c0.653,-2.345 3.089,-5.89 5.98,-6.006c0.149,-0.001 0.149,-0.001 0.297,0.001c8.784,0.315 11.937,18.965 13.568,24.638c3.805,-4.441 9.321,-10.963 15.762,-11.17c0.165,-0.001 0.165,-0.001 0.33,0.001c8.776,0.349 5.793,10.988 4.263,16.199c-0.763,2.587 -1.537,5.17 -2.298,7.758c-0.267,0.91 -0.532,1.82 -0.797,2.731c10.391,-5.807 24.245,-14.929 36.628,-15.319c0.145,-0.002 0.144,-0.002 0.289,-0.002c4.583,0.078 5.417,4.423 4.225,8.301c-3.512,11.433 -8.423,18.773 -14.212,29.099l-0.063,0.112c0.249,0.413 0.448,0.859 0.598,1.317c4.938,-1.343 11.513,-2.941 16.731,-3.023c0.236,-0.002 0.236,-0.002 0.472,-0.001c1.714,0.023 3.467,0.239 5.072,0.839c13.312,4.97 -3.462,21.646 -8.437,25.624c4.144,0.631 8.329,1.164 12.365,2.297c4.015,1.127 7.961,2.591 11.691,4.456c5.847,2.924 2.213,8.227 -1.499,10.989c-3.771,2.805 -16.694,6.659 -19.413,7.457c3.86,3.433 17.996,19.718 5.252,22.931c-2.391,0.602 -4.9,1.035 -7.355,0.8c-4.58,-0.439 -9.063,-1.64 -13.515,-2.799c3.586,6.511 10.425,17.565 11.976,25.811c0.822,4.367 1.639,12.178 -5.728,10.24c-5.848,-1.538 -11.59,-3.55 -17.119,-5.997c-5.551,-2.457 -10.729,-5.684 -16.016,-8.667c1.887,7.048 8.367,32.356 -7.981,25.097c-1.77,-0.786 -3.374,-1.95 -4.838,-3.217c-2.412,-2.087 -4.666,-4.367 -6.733,-6.796c-1.003,3.499 -4.589,16.046 -6.777,19.738c-2.469,4.165 -7.573,8.443 -10.73,2.203c-1.886,-3.728 -3.358,-7.678 -4.495,-11.698c-1.142,-4.035 -1.683,-8.221 -2.313,-12.367c-2.464,3.081 -5.244,5.928 -8.24,8.493c-1.849,1.583 -3.96,2.902 -6.196,3.866c-15.724,6.779 -9.883,-17.917 -8.102,-24.589c-12.545,7.033 -17.389,9.822 -31.364,13.515c-6.243,1.65 -7.574,-4.189 -6.709,-9.126c0.628,-3.589 2.049,-7.01 3.475,-10.362c2.369,-5.568 5.014,-11.023 7.887,-16.348c-7.336,1.921 -32.364,6.195 -25.786,-9.538c0.754,-1.806 1.88,-3.464 3.141,-4.96c2.088,-2.477 4.392,-4.785 6.851,-6.896c-3.66,-1.05 -7.338,-2.092 -10.863,-3.53c-3.527,-1.438 -6.965,-3.126 -10.237,-5.077c-3.088,-1.841 -4.932,-5.328 -2.027,-8.283c5.24,-5.33 19.985,-6.799 25.506,-7.643c-4.569,-3.65 -10.586,-8.644 -12.647,-14.485c-1.707,-4.838 0.23,-10.084 5.586,-10.274c0.165,-0.004 0.33,-0.005 0.495,-0.004c6.83,0.111 13.908,2.75 20.403,4.587c0.128,-1.41 0.66,-2.813 1.651,-3.845l-0.425,-0.762c-5.606,-10.116 -10.053,-17.574 -13.144,-28.832c-1.019,-3.709 -0.385,-8.449 4.209,-8.66c0.142,-0.003 0.284,-0.005 0.427,-0.004c11.645,0.261 24.741,9.089 34.44,14.601c-1.599,-5.798 -8.809,-25.032 3.098,-25.644c0.152,-0.005 0.302,-0.007 0.454,-0.006c7.568,0.182 13.89,8.128 18.117,13.414m10.934,118.449c-1.305,5.751 -3.471,11.21 -6.662,16.146c0.775,7.472 1.88,12.43 3.626,19.724c0.598,2.501 1.488,6.138 3.241,8.181l0.024,0.028c2.06,-1.006 2.897,-4.268 3.483,-6.101c1.992,-6.226 4.067,-12.43 5.838,-18.723c-4.344,-5.795 -7.543,-12.291 -9.55,-19.255m-3.488,-12.489c-2.812,8.076 -7.696,15.829 -15.161,20.348c-2.766,1.675 -6.419,2.932 -9.684,2.001c-0.761,2.792 -1.46,5.601 -2.076,8.427c-0.382,1.753 -0.678,3.526 -0.916,5.304c-0.136,1.015 -0.306,2.045 -0.203,3.063c0.495,4.886 4.54,3.426 7.439,1.426c5.201,-3.586 8.947,-8.443 12.531,-13.608c0.135,-0.35 0.348,-0.665 0.618,-0.92c5.008,-7.682 7.214,-16.943 7.452,-26.041m6.158,0.168c1.454,13.309 7.694,24.984 16.224,35.08c2.149,2.543 5.43,5.495 8.481,6.936c2.513,1.187 3.893,0.626 4.046,-1.863c0.047,-0.762 -0.013,-1.53 -0.093,-2.289c-0.14,-1.314 -0.287,-2.633 -0.566,-3.924c-0.903,-4.194 -1.85,-8.382 -2.976,-12.521c-3.665,2.477 -8.94,0.567 -12.024,-1.933c-6.287,-5.097 -10.689,-11.765 -13.092,-19.486m-33.565,-4.704c-6.251,1.908 -9.342,2.839 -15.755,4.135c-2.394,0.483 -5.462,0.875 -7.906,0.411l-0.033,0.059c-4.817,8.743 -6.307,11.998 -10.098,21.22c-1.271,3.094 -2.753,6.65 -2.393,10.12l0.001,0.006c4.245,-0.12 8.277,-2.242 12.003,-3.97c8.295,-3.849 13.817,-6.396 21.695,-11.064c-1.77,-6.805 0.477,-14.454 2.486,-20.917m60.753,0.341c1.483,6.047 2.894,12.806 1.723,19.055c0.026,0.018 0.053,0.036 0.08,0.054c7.922,5.129 15.139,8.332 23.671,12.285c3.871,1.794 7.992,3.951 12.374,4.198l0.001,0c0.195,-3.239 -1.553,-7.085 -2.819,-9.909c-3.843,-8.571 -5.499,-11.885 -10.063,-20.101c-3.134,1.107 -7.017,0.259 -10.016,-0.642c-5.027,-1.51 -10.033,-3.107 -14.951,-4.94m-25.904,-19.509c0.634,11.884 2.59,23.732 9.236,33.883c1.907,2.912 5.069,5.709 8.326,7.019c2.263,0.91 4.155,0.184 4.841,-2c0.017,-0.061 0.035,-0.122 0.056,-0.182c1.09,-3.735 0.509,-8.257 -0.142,-11.971c-0.945,-5.39 -2.143,-10.409 -4.341,-15.447c-7.656,1.986 -14.383,-5.647 -17.976,-11.302m-7.867,1.651c-3.817,5.03 -11.158,11.727 -18.074,8.844c-3.76,7.007 -5.044,12.474 -6.551,20.211c-0.481,2.465 -0.667,6.023 0.097,8.474c0.412,0.398 0.677,0.926 0.744,1.515c0.585,0.732 1.799,0.796 2.592,0.556c3.422,-1.036 4.813,-1.714 7.474,-4.127c9.785,-8.875 12.26,-22.998 13.718,-35.473m39.894,-9.354c7.066,3.299 12.506,9.048 17.459,14.909c2.591,3.064 5.119,6.968 5.373,11.137c2.958,0.81 5.902,1.722 8.926,2.226c3.012,0.502 6.076,0.668 9.127,0.782c3.985,0.149 4.1,-3.489 2.69,-6.298c-2.518,-5.015 -8.64,-9.791 -12.841,-12.828c-8.974,-6.489 -19.817,-9.264 -30.734,-9.928m-72.726,-0.355c-12.321,0.206 -23.494,4.76 -33.378,11.904c-1.6,1.157 -3.075,2.485 -4.509,3.842c-1.462,1.382 -2.862,2.835 -4.166,4.367c-0.773,0.908 -1.436,1.91 -2.049,2.934c-1.51,2.526 -1.624,5.692 2.003,6.165c6.364,0.83 13.123,-1.229 19.107,-2.863c-0.467,-3.848 1.803,-7.836 4.172,-10.599c5.395,-6.291 11.407,-11.963 18.82,-15.75m53.824,0.568c3.585,3.188 9.218,9.345 8.513,14.79c0.976,2.017 1.837,4.104 2.56,6.221c0.554,0.211 1.108,0.422 1.662,0.632c3.343,1.258 6.719,2.427 10.089,3.612c2.043,0.72 4.068,1.498 6.148,2.103c1.166,0.339 2.359,0.635 3.57,0.725c2.841,0.209 4.823,-0.352 3.961,-3.437c-1.094,-3.91 -4.168,-7.088 -6.785,-9.988c-0.882,-0.977 -1.76,-1.968 -2.769,-2.814c-7.892,-6.618 -16.701,-10.566 -26.949,-11.844m-32.627,-0.432c-11.367,-0.62 -21.578,4.988 -29.871,12.24c-1.791,1.567 -3.451,3.286 -5.048,5.05c-0.929,1.025 -1.743,2.154 -2.514,3.302c-0.476,0.707 -0.907,1.454 -1.217,2.248c-1.08,2.76 0.446,4.435 3.315,4.1c3.917,-0.457 6.993,-1.297 10.771,-2.382c3.77,-1.082 7.538,-2.168 11.28,-3.343c1.105,-2.696 2.433,-5.306 3.944,-7.798c0.458,-5.208 5.614,-10.451 9.34,-13.417m24.584,0.886c-1.053,0.125 -2.141,0.23 -3.203,0.304c0.307,0.581 0.594,1.175 0.948,1.729c1.092,1.714 2.195,3.424 3.385,5.071c2.213,3.064 5.958,6.971 10.184,6.454c0.053,-0.186 0.127,-0.365 0.221,-0.535c-0.429,-2.017 -1.731,-3.772 -2.937,-5.374c-2.327,-3.09 -5.178,-5.799 -8.598,-7.649m-14.507,-0.877c-4.493,1.713 -8.256,4.737 -11.338,8.381c-1.109,1.312 -2.405,3.099 -2.942,4.765c0.064,0.247 0.089,0.501 0.075,0.756c4.476,0.861 8.567,-3.241 11.016,-6.385c1.031,-1.325 2.007,-2.694 2.938,-4.091c0.737,-1.106 1.403,-2.257 2.06,-3.412c0,0 -1.206,-0.001 -1.809,-0.014m71.988,-10.155c-4.992,3.297 -10.526,5.741 -16.272,7.386c7.531,1.803 14.384,4.977 20.498,9.689l0.959,-0.272c8.462,-2.432 9.546,-2.738 17.7,-6.07c1.513,-0.618 4.647,-1.745 5.06,-3.813c-0.057,-0.052 -0.115,-0.101 -0.175,-0.149c-2.294,-1.786 -5.991,-2.677 -8.721,-3.319c-6.752,-1.587 -12.137,-2.75 -19.049,-3.452m-134.338,0c-7.557,0.788 -12.327,1.857 -19.704,3.624c-2.468,0.592 -6.216,1.496 -8.214,3.27c4.316,5.26 20.768,8.463 24.55,9.526c5.655,-4.278 11.989,-7.415 18.852,-9.267c-5.461,-1.638 -10.723,-4.007 -15.484,-7.153m81.701,5.195c11.769,-2.377 22.222,-8.474 30.891,-16.66c1.57,-1.482 3.023,-3.095 4.359,-4.792c1.335,-1.695 2.626,-3.449 3.632,-5.358c0.885,-1.682 2.003,-5.57 -1.45,-5.316c-5.029,0.369 -8.12,1.593 -12.812,3.254c-3.461,1.226 -6.918,2.466 -10.348,3.774c-0.742,2.172 -1.547,4.105 -2.523,6.144c0.151,2.492 -1.376,5.773 -2.842,7.666c-3.771,4.871 -7.79,9.133 -13.427,11.702c0.189,0.087 0.378,0.175 0.567,0.265c0.904,-0.128 1.806,-0.274 2.705,-0.438c0.421,-0.203 0.709,-0.239 1.134,-0.247l0.114,0.006m-72.495,-24.122l-0.011,-0.003c-1.28,-0.364 -2.559,-0.727 -3.84,-1.088c-5.269,-1.476 -10.511,-3.102 -15.88,-4.153c-5.689,-1.115 -2.959,5.07 -1.193,7.114c4.536,5.251 7.536,8.054 13.401,12.155c0.372,0.141 0.703,0.367 0.969,0.661c8.78,5.836 19.323,8.714 29.778,9.243c0.994,0.007 1.987,0.033 2.979,0.084c0.718,0.004 1.436,-0.005 2.153,-0.028c-10.494,-4.335 -23.521,-13.427 -28.356,-23.985m123.446,14.026c3.211,-2.254 6.206,-4.814 9.128,-7.432c1.436,-1.287 2.699,-2.763 3.919,-4.256c0.716,-0.877 1.464,-1.777 1.872,-2.832c3.597,-9.305 -10.451,-5.927 -14.503,-4.994c-2.294,0.528 -4.536,1.258 -6.802,1.894c-0.895,3.367 -3.015,6.504 -5.18,9.153c-6.262,7.661 -14.003,14.242 -23.008,18.452c11.704,0.112 23.79,-2.804 33.607,-9.324c0.267,-0.296 0.599,-0.522 0.967,-0.661m-93.663,-14.775c-0.566,-0.177 -1.131,-0.354 -1.697,-0.531c-3.061,-0.947 -6.135,-1.855 -9.223,-2.714c-1.807,-0.502 -3.622,-0.983 -5.458,-1.366c-2.137,-0.447 -4.275,-0.963 -6.452,-1.124c-3.936,-0.29 -3.258,3.207 -1.759,5.642c2.682,4.356 6.663,8.265 10.68,11.364c9.794,7.556 21.228,12.36 33.61,13.363c-6.085,-2.747 -14.419,-9.424 -15.679,-16.708c-1.85,-3.052 -2.297,-4.159 -4.022,-7.926m48.685,6.279c-1.824,0.024 -3.638,0.896 -5.104,1.893c-3.573,2.428 -5.769,6.02 -7.968,9.658c-0.676,1.118 -1.255,2.294 -1.839,3.462l-0.159,0.322l-0.076,0.155c0.248,-0.087 0.495,-0.177 0.741,-0.269c5.016,-1.914 9.085,-5.344 12.367,-9.531c1.206,-1.539 2.667,-3.483 2.82,-5.555c0.002,-0.028 0.002,-0.028 0.004,-0.056l0,-0.003c-0.064,-0.015 -0.129,-0.027 -0.194,-0.037c-0.081,-0.012 -0.163,-0.021 -0.246,-0.028c-0.115,-0.008 -0.231,-0.011 -0.346,-0.011m-39.547,1.485c0.58,1.628 1.951,3.552 3.079,4.831c3.596,4.076 7.991,7.272 13.237,8.858l0.148,0.044c-0.65,-1.179 -1.327,-2.344 -2.046,-3.482c-2.998,-4.75 -7.2,-11.117 -13.566,-11.241c-0.059,-0.001 -0.059,-0.001 -0.117,-0.001c-0.262,0.004 -0.526,0.023 -0.782,0.078c0.071,0.299 0.087,0.609 0.047,0.913m41.804,-6.19c2.618,-6.594 4.661,-13.788 4.831,-20.912c0.044,-1.824 0.249,-6.464 -1.459,-8.187c-1.194,-1.204 -3.638,-0.168 -4.641,0.221c-5.847,2.269 -10.038,9.669 -12.27,14.905c-3.364,7.893 -4.108,16.728 -4.589,25.182c3.435,-5.395 8.653,-11.253 15.609,-11.5c0.148,-0.003 0.296,-0.005 0.444,-0.003c0.701,0.015 1.401,0.099 2.075,0.294m-26.089,9.515c-0.987,-8.189 -2.335,-17.295 -6.257,-24.773c-1.186,-2.262 -2.501,-4.473 -4.046,-6.507c-1.247,-1.643 -2.66,-3.195 -4.286,-4.464c-3.021,-2.356 -9.334,-5.889 -10.211,0.345c-0.137,0.973 -0.194,1.964 -0.133,2.944c0.52,8.321 2.845,16.41 6.723,23.786c0.957,-0.441 2.021,-0.619 3.077,-0.645c0.113,-0.002 0.227,-0.002 0.34,-0.001c6.184,0.121 11.267,4.69 14.793,9.315m-29.367,-38.013c-7.762,-4.656 -13.604,-7.313 -21.822,-11.071c-3.703,-1.693 -7.691,-3.721 -11.884,-3.881l-0.008,0c-0.217,3.566 1.526,7.12 2.94,10.228c4.211,9.261 5.681,12.197 10.651,21.083c0.35,-0.03 0.701,-0.046 1.051,-0.052c0.189,-0.002 0.188,-0.002 0.377,-0.001c7.144,0.108 14.392,2.679 21.146,4.744c-2.018,-6.493 -4.304,-14.22 -2.451,-21.05m87.012,14.822c0.464,-0.826 0.926,-1.653 1.388,-2.48c2.507,-4.508 6.591,-11.222 8.978,-16.407c1.118,-2.429 3.448,-7.8 3.621,-10.741l0.003,-0.085l0.001,-0.048c-0.104,0.005 -0.208,0.013 -0.311,0.021c-5.247,0.514 -10.12,3.013 -14.816,5.157c-7.459,3.405 -14.095,6.376 -21.107,10.664c1.502,6.424 -0.03,13.568 -1.565,19.806c6.775,-2.522 14.381,-5.913 21.749,-6.044c0.179,-0.001 0.179,-0.001 0.357,0.001c0.594,0.013 1.126,0.051 1.702,0.156m-65.225,-24.939c-3.1,-4.466 -6.758,-8.798 -10.878,-12.398c-1.648,-1.439 -9.197,-6.479 -8.82,-0.648c0.188,2.919 0.689,5.818 1.299,8.679c0.612,2.87 1.575,5.654 2.362,8.481c0.381,-0.067 0.708,-0.096 1.102,-0.116c0.167,-0.005 0.334,-0.007 0.501,-0.006c11.546,0.249 19.413,13.54 22.659,23.093c-0.313,-9.143 -2.565,-18.442 -7.603,-26.161c-0.278,-0.26 -0.488,-0.574 -0.622,-0.924m37.702,4.261l0.07,-0.241c1.066,-3.667 2.167,-7.323 3.242,-10.987c0.152,-0.52 0.302,-1.04 0.451,-1.56c0.527,-1.86 2.628,-6.044 0.166,-7.583c-0.026,-0.015 -0.052,-0.027 -0.08,-0.037c-2.83,-0.918 -6.529,3.064 -7.93,4.591c-9.865,10.756 -17.601,23.026 -19.334,37.831c2.857,-9.064 10.181,-21.98 21.105,-22.304c0.165,-0.002 0.164,-0.002 0.33,-0.001c0.69,0.018 1.29,0.085 1.98,0.291m-16.25,-9.499c-0.155,-0.548 -0.309,-1.097 -0.464,-1.645c-1.579,-5.546 -3.464,-11.001 -5.271,-16.477c-0.537,-1.626 -1.585,-5.74 -3.901,-6.277c-0.051,0.056 -0.1,0.113 -0.147,0.173c-1.783,2.287 -2.677,5.998 -3.319,8.721c-1.603,6.81 -2.751,12.095 -3.454,19.068c3.17,4.896 5.364,10.376 6.695,16.044c2.066,-7.127 5.392,-13.702 9.861,-19.607"/></svg>