<svg xmlns="http://www.w3.org/2000/svg" fill-rule="evenodd" stroke-linejoin="round" stroke-miterlimit="1.414" clip-rule="evenodd" viewBox="0 0 256 256"><rect width="256" height="256" fill="none"/><path d="M74.234,70.138c8.53,-18.091 25.712,-38.386 47.126,-40.366l0.087,-0.008c0,0 0.386,0.001 0.579,0.019c0.389,0.081 0.361,0.058 0.822,0.274c0.441,0.238 0.881,0.478 1.322,0.719c13.712,7.539 25.206,16.808 33.187,30.622c3.95,-1.222 8.001,-1.866 12.139,-1.937c0.334,-0.004 0.667,-0.005 1.001,-0.004c21.796,0.176 50.534,11.582 59.787,33.041l0.043,0.103l0.033,0.079c0,0 0.209,0.952 0.147,1.425c-0.093,0.493 -0.188,0.985 -0.284,1.478c-4.374,22.225 -15.351,43.975 -36.612,54.564c9.819,20.963 0.4,43.869 -10.952,62.085c-2.387,3.83 -7.542,10.306 -11.72,12.448c-9.047,4.637 -22.337,-1.434 -30.127,-4.761c-6.186,-2.642 -15.862,-7.85 -20.187,-13.313c-14.746,7.97 -34.002,9.766 -50.123,5.29c-11.344,-3.149 -16.677,-3.626 -21.017,-14.136c-5.459,-13.22 -2.225,-31.637 1.887,-44.718c-11.278,-9.39 -18.175,-21.545 -23.284,-35.118c-3.072,-8.161 -4.061,-16.871 1.129,-24.407c4.872,-7.074 19.114,-14.801 24.261,-17.099c6.6,-2.948 13.629,-5.074 20.756,-6.28m50.834,133.741c11.786,9.79 27.392,18.788 43.27,16.277l0.238,-0.039l0.075,-0.013c0.547,-0.551 1.089,-1.106 1.632,-1.661c13.802,-14.175 22.498,-31.44 22.232,-51.507c-0.329,-24.862 -26.991,-41.284 -49.873,-36.231c5.568,4.449 10.786,9.402 15.433,14.809c1.152,-1.947 3.152,-3.05 5.32,-3.132c0.164,-0.002 0.163,-0.002 0.327,0c7.356,0.28 8.325,10.939 1.268,12.563c1.975,3.343 3.795,6.687 3.794,10.727c-0.001,1.772 -1.897,2.946 -3.49,2.259c-6.282,5.895 -15.048,-4.418 -8.236,-9.682c-1.489,-1.976 -2.99,-3.765 -4.721,-5.534c-4.904,3.013 -11.048,-1.826 -9.423,-7.252c-1.889,-1.096 -3.78,-2.189 -5.668,-3.288c-1.044,-0.61 -2.087,-1.222 -3.123,-1.844c14.174,19.923 11.696,49.11 -9.055,63.548m-2.433,-68.844c-11.163,26.476 -42.972,37.784 -67.017,21.232c-4.25,14.536 -6.245,32.188 2.196,45.633l0.13,0.204c0,0 1.466,0.623 2.209,0.912c19.406,7.488 40.405,8.199 59.219,-1.439c25.306,-12.963 22.368,-49.674 3.263,-66.542m40.245,26.909c-0.406,-0.584 -1.05,-0.948 -1.756,-1.01c-0.082,-0.006 -0.164,-0.008 -0.246,-0.007c-0.504,0.02 -0.97,0.182 -1.373,0.486c-1.706,1.285 -0.811,4.069 1.282,4.229c0.411,0.031 0.883,-0.091 1.244,-0.282c0.374,-0.197 0.716,-0.504 0.935,-0.868c0.242,-0.402 0.355,-0.831 0.336,-1.301c-0.124,-0.421 -0.266,-0.837 -0.422,-1.247m-78.088,-87.755c-19.437,0.098 -45.304,9.288 -54.584,27.918c1.673,10.982 4.233,22.336 10.829,31.557c7.522,10.516 13.938,15.676 25.153,22.001c18.119,10.218 39.109,-1.061 48.867,-17.325c11.922,-19.871 7.785,-49.36 -14.181,-60.419c-4.702,-2.368 -9.676,-3.595 -14.943,-3.721c-0.38,-0.008 -0.76,-0.011 -1.141,-0.011m77.35,76.446c1.265,0.955 3.191,0.284 3.66,-1.214c0.225,-0.718 0.085,-1.416 -0.314,-2.039c-0.168,-0.262 -0.488,-0.537 -0.756,-0.69c-0.307,-0.176 -0.638,-0.274 -0.99,-0.305c-0.082,-0.005 -0.163,-0.007 -0.246,-0.006c-1.574,0.06 -2.708,1.655 -2.164,3.16c0.274,0.362 0.544,0.726 0.81,1.094m-10.772,-3.513c-0.081,-1.159 -1.024,-2.088 -2.175,-2.19c-0.082,-0.005 -0.163,-0.007 -0.245,-0.006c-0.355,0.014 -0.695,0.095 -1.012,0.257c-1.239,0.631 -1.686,2.353 -0.862,3.493c0.47,0.649 1.117,1.484 2.357,1.215c1.195,-0.26 1.951,-0.698 1.937,-2.769m39.881,-1.385c20.274,-10.078 30.097,-30.7 34.183,-51.721l0.016,-0.084c-6.2,-13.606 -20.325,-20.947 -33.859,-25.453c-10.266,-3.418 -21.168,-5.603 -31.836,-2.576c10.133,20.788 6.519,45.732 -13.999,59.174c2.243,-0.305 4.386,-0.449 6.658,-0.463c0.176,0 0.351,0.001 0.527,0.002c15.442,0.153 30.224,7.8 38.31,21.121m-44.171,-4.512c-4.113,-3.921 -6.97,-6.249 -11.537,-9.625c-2.606,-1.926 -5.43,-3.972 -8.625,-4.833c-0.008,0.088 -0.011,0.177 -0.012,0.265c-0.007,2.464 2.626,4.309 4.327,5.492c5.95,4.138 7.52,4.748 13.781,8.376l1.177,0.684c0.287,-0.142 0.584,-0.262 0.889,-0.359m-12.296,-16.144c0.204,-0.077 0.243,-0.093 0.515,-0.199c4.604,-1.838 9.702,-4.698 13.198,-8.298c2.476,-2.549 4.763,-5.328 6.61,-8.364c17.638,-28.989 -9.305,-59.92 -33.883,-73.356l-0.076,-0.041c-18.239,2.185 -32.922,19.306 -40.96,34.564c1.554,-0.127 3.016,-0.19 4.591,-0.198c0.169,0 0.337,0 0.506,0.001c28.329,0.263 44.922,25.726 41.021,52.458c0.023,0 0.05,0.001 0.087,0.001c2.968,0.121 5.967,1.932 8.391,3.432"/></svg>
