<svg xmlns="http://www.w3.org/2000/svg" fill-rule="evenodd" stroke-linejoin="round" stroke-miterlimit="1.414" clip-rule="evenodd" viewBox="0 0 256 256"><rect width="256" height="256" fill="none"/><path d="M146.816,149.628c-10.542,-13.005 -20.036,-32.435 -8.489,-48l0.032,-0.042c0.517,-0.618 1.223,-0.958 2.018,-0.986c0.077,0.004 0.155,0.009 0.232,0.013c12.477,1.898 20.623,15.436 26.106,25.775c4.303,-8.805 9.787,-17.135 15.917,-24.784l0.056,-0.071c0.518,-0.583 1.212,-0.908 2.001,-0.926c0.076,0.005 0.152,0.01 0.228,0.016c1.212,0.195 1.844,1.104 2.274,2.158c0.075,0.182 0.152,0.363 0.23,0.544c0.996,2.281 2.177,4.329 3.799,6.198c0.121,0.142 0.121,0.141 0.24,0.284c6.316,7.743 3.591,18.176 1.713,26.83c-0.606,2.789 -1.63,5.47 -2.492,8.191c-0.303,0.955 -0.652,1.894 -1.001,2.832c5.615,-1.947 11.519,-3.49 17.496,-3.609c0.187,-0.002 0.374,-0.003 0.562,-0.003c9.131,0.064 18.294,4.836 23.176,12.657c-0.138,1.548 -0.295,3.31 -1.33,4.469c-2.589,2.897 -5.64,5.542 -9.134,7.241c-11.43,5.559 -25.03,8.601 -37.777,6.961c5.223,11.884 11.629,30.791 1.795,41.85c-0.097,0.113 -0.097,0.112 -0.193,0.226c-1.418,1.734 -2.727,4.276 -3.555,6.355l-0.017,0.044c-0.761,1.713 -3.017,2.108 -4.291,0.647c-0.213,-0.269 -0.422,-0.54 -0.631,-0.812c-9.415,-12.314 -21.622,-29.596 -20.563,-46.01c-12.872,3.081 -32.926,5.762 -41.965,-6.031c-0.092,-0.117 -0.092,-0.117 -0.186,-0.232c-1.433,-1.722 -3.684,-3.487 -5.567,-4.694l-0.04,-0.025c-1.58,-1.092 -1.425,-3.412 0.177,-4.336c0.304,-0.158 0.61,-0.312 0.917,-0.466c11.796,-5.882 24.971,-11.249 38.262,-12.264Zm23.385,16.065c-1.695,1.228 -3.949,1.558 -5.929,0.86c-9.675,13.917 0.299,31.159 7.959,43.288c1.774,2.808 3.656,5.549 5.605,8.239l0.037,0.051c0.104,-0.191 0.21,-0.38 0.316,-0.568c0.1,-0.174 0.201,-0.348 0.303,-0.52c0.868,-1.445 1.713,-2.535 2.783,-3.74c0.088,-0.102 0.176,-0.204 0.262,-0.308c3.198,-3.916 3.041,-9.212 2.552,-13.937c-1.203,-11.611 -5.185,-25.066 -13.888,-33.365Zm-19.12,-11.183c-0.122,-0.004 -0.243,-0.007 -0.365,-0.009c-12.703,-0.202 -25.791,5.213 -37.046,10.47c0,0 0.282,0.31 0.441,0.445c0.152,0.131 0.303,0.263 0.453,0.396c1.254,1.125 2.165,2.161 3.145,3.44c0.084,0.106 0.168,0.211 0.253,0.315c3.049,3.652 8.097,4.844 12.614,5.102c8.24,0.472 17.571,-0.077 25.549,-2.401c0.909,-3.298 2.434,-6.374 4.429,-9.115c-0.054,-0.117 -0.103,-0.235 -0.15,-0.355c-3.409,-2.344 -6.505,-5.296 -9.323,-8.288Zm28.604,15.132c0.263,0.08 0.207,0.065 0.494,0.149c0.191,0.054 0.383,0.105 0.575,0.154c4.302,1.061 8.888,0.799 13.231,0.361c11.109,-1.118 23.851,-3.289 31.644,-12.2l0.087,-0.102c-13.381,-17.223 -37.791,-5.408 -52.855,2.617c-0.005,0.226 -0.022,0.452 -0.05,0.677c2.693,2.391 5,5.29 6.874,8.344Zm-12.461,-10.373c-0.195,-0.131 -0.421,-0.211 -0.654,-0.237c-0.059,-0.006 -0.117,-0.008 -0.175,-0.008c-0.22,0.007 -0.411,0.053 -0.61,0.145c-1.208,0.559 -0.981,2.402 0.29,2.709c0.243,0.059 0.501,0.053 0.744,-0.017c0.157,-0.045 0.305,-0.121 0.44,-0.212c0.211,-0.14 0.396,-0.385 0.493,-0.616c-0.392,-0.496 -0.581,-1.135 -0.528,-1.764Zm-3.122,-26.962c-0.039,-0.082 -0.078,-0.164 -0.117,-0.246c-4.863,-10.078 -11.497,-21.737 -22.496,-25.998l-0.074,-0.028c-10.463,18.001 6.063,39.964 19.577,50.951c0.382,-0.594 0.855,-1.119 1.407,-1.559c-2.684,-7.818 -1.221,-15.654 1.703,-23.12Zm19.035,17.868c0.011,-0.025 0.023,-0.052 0.037,-0.083c0.136,-0.277 0.271,-0.556 0.403,-0.835c3.32,-7.108 5.609,-15.001 6.585,-22.786c0.623,-4.974 0.341,-10.266 -3.15,-14.157c-0.144,-0.166 -0.144,-0.165 -0.285,-0.333c-1.044,-1.271 -1.803,-2.487 -2.617,-4.007l-0.03,-0.058c-2.826,3.78 -5.609,7.61 -8.033,11.659c-5.656,9.445 -12.975,22.956 -8.823,34.499c1.428,0.173 2.775,0.847 3.785,1.87c3.942,-2.083 8.002,-4.039 12.128,-5.769Zm-115.293,-84.253c4.233,-16.29 14.063,-34.992 33.345,-35.318c0.124,-0.001 0.124,-0.001 0.248,0l0.054,0.001c0.912,0.399 2.006,0.878 2.382,1.799c1.043,2.552 1.728,5.344 1.662,8.1c-0.228,9.599 -3.055,19.058 -7.179,27.644c7.708,-1.412 15.572,-1.924 23.396,-1.988c0.58,-0.003 1.159,-0.003 1.738,-0.002c1.421,0.01 2.842,0.031 4.261,0.088c0,0 2.577,3.03 1.758,4.369c-0.101,0.169 -0.201,0.338 -0.301,0.507c-1.244,2.157 -2.192,4.322 -2.733,6.737c-0.042,0.181 -0.042,0.181 -0.087,0.362c-2.483,9.678 -12.496,13.678 -20.575,17.302c-2.605,1.168 -5.371,1.935 -8.072,2.856c-0.948,0.323 -1.911,0.599 -2.873,0.875c12.62,8.661 23.601,22.381 17.192,38.556l-0.022,0.054c-2.267,4.881 -13.833,-0.47 -15.611,-1.526c-11.377,-6.759 -21.531,-14.604 -28.025,-26.271c-6.332,11.024 -18.088,27.616 -32.616,26.282c-0.149,-0.012 -0.148,-0.012 -0.297,-0.021c-2.368,-0.119 -4.962,0.298 -7.272,0.923l-0.205,0.046c-1.746,0.243 -3.264,-1.347 -2.86,-3.118c0.09,-0.33 0.184,-0.659 0.279,-0.988c4.281,-14.738 11.129,-35.052 24.823,-43.856c-10.112,-8.536 -24.184,-23.081 -20.051,-37.355c0.04,-0.144 0.04,-0.143 0.077,-0.287c0.536,-2.182 0.619,-5.045 0.473,-7.266l-0.003,-0.048c-0.049,-1.499 1.126,-2.676 2.583,-2.685c0.07,0.006 0.139,0.011 0.209,0.017c0.369,0.06 0.46,0.087 0.802,0.238c0.308,0.151 0.614,0.305 0.92,0.461c11.804,6.039 23.843,13.394 32.58,23.512Zm6.611,27.49c-0.185,0.13 -0.378,0.251 -0.576,0.362l-0.008,0.09c-0.353,3.598 -1.244,6.984 -2.626,10.394c0,0 0.113,0.325 0.173,0.486c0.069,0.185 0.142,0.369 0.216,0.552c1.704,4.094 4.63,7.625 7.562,10.864c7.495,8.28 16.856,17.249 28.601,18.227l0.133,0.009c5.179,-18.349 -13.035,-29.859 -26.462,-37.421c-2.284,-1.287 -4.647,-2.432 -7.013,-3.563Zm-9.873,-3.393c-16.958,0.474 -24.902,18.739 -30.115,32.098c-1.208,3.094 -2.297,6.236 -3.304,9.401l-0.019,0.06c0.214,-0.03 0.429,-0.057 0.644,-0.083c0.199,-0.023 0.399,-0.044 0.599,-0.065c1.678,-0.158 3.055,-0.125 4.661,0.02c0.135,0.011 0.269,0.021 0.404,0.029c5.172,0.255 9.376,-3.141 12.948,-6.427c8.524,-7.844 16.893,-18.934 18.394,-30.772c-1.996,-0.634 -3.601,-2.263 -4.212,-4.261Zm24.378,5.462c0.026,-0.005 0.055,-0.012 0.088,-0.019c0.305,-0.055 0.609,-0.112 0.913,-0.172c7.683,-1.542 15.41,-4.391 22.246,-8.224c4.364,-2.447 8.466,-5.825 9.524,-10.938c0.048,-0.213 0.048,-0.213 0.099,-0.425c0.401,-1.592 0.936,-2.937 1.672,-4.485l0.028,-0.059c-3.342,-0.022 -6.687,0.082 -10.024,0.268c-12.558,0.702 -29.308,1.884 -37.129,13.561c0.705,1.253 0.969,2.737 0.742,4.156c4.021,1.938 8.006,4.046 11.841,6.337Zm-16.764,-7.411c-0.032,-0.716 -0.602,-1.303 -1.312,-1.376c-0.063,-0.005 -0.125,-0.006 -0.189,-0.005c-0.227,0.011 -0.412,0.062 -0.616,0.163c-0.148,0.074 -0.302,0.201 -0.412,0.324c-0.095,0.107 -0.23,0.306 -0.271,0.446c-0.091,0.307 -0.134,0.618 -0.035,0.926c0.232,0.718 0.988,1.174 1.731,0.995c0.167,-0.607 0.566,-1.144 1.104,-1.473Zm-5.751,-15.815c-0.069,-0.1 -0.139,-0.2 -0.209,-0.299c-7.367,-10.332 -19.522,-17.672 -30.414,-23.601l-0.056,-0.03c-0.011,0.216 -0.025,0.432 -0.04,0.649c-0.016,0.199 -0.032,0.399 -0.05,0.599c-0.161,1.677 -0.455,3.025 -0.902,4.574c-0.036,0.13 -0.071,0.26 -0.104,0.39c-1.129,4.622 0.906,9.392 3.38,13.18c4.638,7.097 10.324,13.939 17.098,19.137c3.037,-1.166 6.279,-1.756 9.527,-1.84c0.145,-0.002 0.291,-0.004 0.436,-0.005c0.063,-0.112 0.129,-0.223 0.198,-0.331c-0.139,-4.146 0.397,-8.36 1.136,-12.423Zm25.599,-2.699c0.042,-0.08 0.085,-0.159 0.127,-0.239c5.226,-9.894 10.672,-22.158 7.573,-33.536l-0.022,-0.076c-17.512,1.914 -24.863,20.807 -28.016,35.678c-0.72,3.395 -1.207,6.853 -1.371,10.319c0.059,-0.004 0.119,-0.007 0.178,-0.01c0.166,-0.004 0.165,-0.004 0.331,-0.004c0.563,0.016 1.038,0.074 1.581,0.22c4.67,-6.759 11.893,-10.274 19.619,-12.352Z"/></svg>