<svg xmlns="http://www.w3.org/2000/svg" fill-rule="evenodd" stroke-linejoin="round" stroke-miterlimit="1.414" clip-rule="evenodd" viewBox="0 0 256 256"><rect width="256" height="256" fill="none"/><path d="M125.608,207.708c-2.577,0.7 -4.769,3.842 -6.377,5.619c-0.253,0.278 -0.508,0.555 -0.764,0.83c-2.416,2.561 -5.509,5.146 -9.205,4.485c-0.352,-0.069 -0.704,-0.145 -1.056,-0.22c-12.798,-2.773 -25.018,-8.207 -35.495,-16.097l-0.245,-0.187c-2.708,-2.441 0.512,-4.751 3.211,-4.182c0.253,0.053 0.506,0.104 0.759,0.155c2.965,0.581 27.891,2.655 16.792,-7.727c-1.281,-1.198 -2.632,-2.349 -4.132,-3.259c-18.622,-11.309 -22.636,-13.183 -42.718,-21.62l-0.378,-0.199c-1.578,-1.21 -1.835,-3.574 -2.282,-5.512c-1.184,-5.127 -2.216,-10.324 -2.585,-15.573l-0.022,-0.326c0.036,-1.844 1.645,-3.099 3.516,-2.448c0.705,0.315 1.411,0.63 2.117,0.944c7.135,3.154 14.362,6.105 21.655,8.873c4.064,1.543 8.175,3.015 12.396,4.054c3.951,0.973 7.984,1.773 12.049,1.966c12.762,0.606 -4.14,-12.093 -6.213,-13.171c-12.716,-6.617 -20.451,-10.139 -35.088,-10.029c-0.161,0 -0.322,-0.002 -0.483,-0.006c-16.373,-0.528 -7.516,-16.709 -4.972,-27.104c0.413,-1.686 1.822,-10.676 6.047,-9.626c0.741,0.252 1.482,0.503 2.223,0.754c7.648,2.567 15.374,4.907 23.15,7.056c8.235,2.276 18.004,4.594 26.716,3.433c1.253,-0.167 3.154,-0.546 3.34,-1.796c0.342,-2.299 -3.994,-5.395 -5.535,-6.33c-11.109,-6.74 -24.968,-8.924 -37.788,-7.65c-0.165,0.015 -0.33,0.027 -0.495,0.038c-2.076,0.115 -10.731,0.14 -9.807,-3.943c0.664,-2.936 2.304,-5.589 3.862,-8.166c4.488,-7.423 11.707,-17.337 17.909,-23.722l0.207,-0.211c0.783,-0.798 1.78,-1.104 2.862,-0.8c0.585,0.219 1.171,0.435 1.758,0.651c8.039,2.924 16.265,5.686 24.903,6.031c11.581,0.462 -1.357,-9.153 -4.314,-10.501c-3.03,-1.382 -6.117,-2.659 -9.282,-3.697l-0.396,-0.169c-3.742,-2.427 1.16,-5.367 3.052,-6.329c11.854,-6.024 23.935,-11.141 36.2,-16.175l0.786,-0.322c0.805,-0.328 1.456,-0.367 2.282,-0.06c0.675,0.317 1.349,0.637 2.022,0.958c7.908,3.783 15.657,7.892 23.38,12.039c0.191,0.103 17.811,8.46 9.446,11.739c-0.25,0.1 -0.5,0.2 -0.749,0.301c-2.344,0.964 -4.718,1.929 -6.85,3.3c-3.21,2.064 -12.354,8.98 -1.812,8.888c8.467,-0.074 13.477,-1.888 21.387,-4.581l0.42,-0.104c0.432,-0.029 0.433,-0.029 0.863,0.016c0.139,0.04 0.278,0.08 0.417,0.12c2.385,1.159 3.668,3.865 5.146,6.068c3.989,5.947 7.642,12.119 11.218,18.324c0.938,1.628 5.588,9.29 -0.447,8.941c-0.225,-0.012 -0.451,-0.023 -0.676,-0.034c-12.699,-0.509 -19.258,1.874 -30.743,6.831c-2.827,1.22 -16.509,10.538 -5.021,10.951c3.578,0.129 7.177,-0.247 10.71,-0.83c3.687,-0.609 7.3,-1.639 10.873,-2.734c6.705,-2.055 13.364,-4.276 19.942,-6.71l0.379,-0.107c2.183,-0.259 2.856,1.6 3.398,3.145c1.145,3.271 2.304,6.547 3.151,9.907c1.425,5.653 2.582,11.373 3.656,17.102c0.193,1.032 1.003,5.404 -0.8,6.502c-1.998,1.217 -4.348,1.796 -6.635,2.293c-1.909,0.414 -3.893,0.5 -5.844,0.42c-0.227,-0.008 -0.454,-0.015 -0.681,-0.021c-13.951,-0.28 -21.937,3.411 -34.072,9.589c-1.987,1.012 -11.932,7.333 -10.762,11.351c0.375,1.288 2.42,1.408 3.761,1.429c3.898,0.062 10.323,-0.839 14.696,-2.161c4.659,-1.409 9.35,-2.738 13.919,-4.417c8.062,-2.962 16.054,-6.122 23.952,-9.496l0.399,-0.132c4.97,-0.759 2.746,8.37 2.485,9.703c-2.148,10.978 -3.474,18.228 -9.5,27.895c-13.485,21.635 -36.26,34.232 -61.269,37.537c-0.111,0.012 -0.11,0.012 -0.22,0.022c-3.759,0.26 -6.984,-3.138 -9.397,-5.563c-0.747,-0.757 -1.489,-1.521 -2.238,-2.277l-0.044,-0.044c1.304,5.046 3.123,10.364 6.23,14.631c0.125,1.076 0.266,2.288 -0.252,3.238c-0.622,1.142 -2.888,0.678 -3.535,0.003c-5.504,-5.741 -6.966,-14.369 -8.463,-21.764m4.335,-4.003c2.883,1.646 5.216,4.365 7.518,6.695c0.181,0.182 0.362,0.363 0.543,0.544c0.918,0.905 3.283,3.734 4.921,3.554c0.423,-0.056 0.845,-0.124 1.267,-0.189c33.657,-5.292 62.084,-28.289 65.436,-63.567l0.009,-0.099c-0.637,0.267 -1.273,0.533 -1.91,0.799c-0.742,0.307 -1.484,0.613 -2.226,0.918c-7.762,3.172 -15.662,6.004 -23.584,8.75c-3.281,1.137 -6.617,2.139 -10.006,2.894c-6.731,1.498 -29.71,4.181 -19.983,-10.437c1.475,-2.217 3.533,-3.999 5.495,-5.8c1.479,-1.358 3.116,-2.545 4.796,-3.646c11.504,-7.536 25.905,-11.234 39.604,-10.889c0.138,0.002 0.275,0.002 0.413,0c2.24,-0.051 4.887,-0.682 6.997,-1.258c-0.034,-0.277 -0.069,-0.555 -0.105,-0.832c-1.193,-9.028 -3.441,-17.899 -6.415,-26.5l-0.055,-0.157c-0.733,0.267 -1.468,0.532 -2.202,0.795c-0.598,0.214 -1.197,0.426 -1.796,0.638c-6.576,2.305 -13.253,4.331 -19.976,6.167c-6.747,1.842 -13.575,3.108 -20.594,1.767c-15.228,-2.908 1.824,-17.911 6.838,-20.276c10.069,-4.75 18.699,-7.14 29.897,-7.213l0.179,0c-4.011,-8.037 -8.756,-15.738 -14.311,-22.801l-0.148,-0.187c-0.383,0.127 -0.767,0.252 -1.15,0.376c-0.456,0.147 -0.912,0.292 -1.368,0.435c-7.72,2.402 -12.517,3.799 -20.702,3.293c-7.545,-0.467 -12.272,-6.42 -5.548,-12.567c3.437,-3.143 7.288,-5.959 11.518,-7.906l0.159,-0.072c-9.466,-6.433 -20.103,-11.396 -30.404,-16.303l-0.416,-0.198c-11.458,4.688 -23.419,9.036 -34.253,15.098c0.304,0.12 0.607,0.243 0.909,0.366c4.91,2.032 12.781,4.728 15.494,10.151c3.012,6.021 -0.622,11.717 -7.454,11.499c-12.437,-0.398 -17.157,-2.024 -28.764,-6.283c-0.281,0.294 -0.558,0.589 -0.836,0.886c-7.059,7.59 -13.035,16.17 -17.947,25.286c0,0 3.308,0.477 4.95,0.29c0.246,-0.027 0.493,-0.053 0.74,-0.078c13.587,-1.299 27.509,1.604 39.258,8.61c1.779,1.061 3.381,2.422 4.867,3.866c0.949,0.922 1.768,2.003 2.381,3.175c5.659,10.816 -12.688,11.204 -19.045,10.214c-4.661,-0.726 -9.314,-1.585 -13.874,-2.796c-8.831,-2.345 -17.597,-4.956 -26.26,-7.864c-0.124,0.333 -0.246,0.666 -0.368,1c-2.833,7.842 -4.884,15.963 -5.882,24.246c0,0 3.945,1.002 5.956,0.965c0.25,-0.003 0.5,-0.005 0.75,-0.006c0.25,0 0.5,0.002 0.75,0.004c14.797,0.239 29.276,5.888 40.948,14.85c1.827,1.402 3.442,3.081 4.94,4.831c0.941,1.099 1.738,2.342 2.333,3.661c5.105,11.303 -12.58,10.291 -19.001,8.695c-4.366,-1.085 -8.707,-2.315 -12.936,-3.85c-7.913,-2.871 -15.743,-5.986 -23.457,-9.354c0,0 1.182,9.067 2.531,13.412c0,0 1.665,0.734 2.502,1.091c0.871,0.373 1.742,0.748 2.611,1.124c13.244,5.757 30.739,12.074 41.2,22.671c1.804,1.827 3.698,3.698 4.824,6.006c5.099,10.442 -8.706,12.249 -15.645,12.006c1.733,1.019 3.473,2.042 5.307,2.865c5.831,2.616 13.724,5.642 20.078,6.667c0.056,0.008 0.113,0.014 0.17,0.018c2.635,0.115 5.143,-3.822 6.596,-5.429c0.256,-0.28 0.512,-0.559 0.771,-0.837c1.884,-1.999 4.143,-4.109 6.941,-4.709c-1.742,-10.844 -2.314,-21.878 -2.467,-32.847c-13.988,9.443 -22.496,-17.768 -5.65,-18.079c0.126,-0.001 0.126,-0.001 0.253,0c1.958,0.036 3.892,0.642 5.503,1.76c0.694,-28.33 3.399,-56.673 7.429,-84.719l0.036,-0.25l0.008,-0.095l0.075,-0.475c0.284,-1.192 1.224,-2.003 2.444,-2.111c0.13,0.009 0.259,0.018 0.389,0.027c1.311,0.298 2.191,1.469 2.113,2.811c-0.103,0.754 -0.217,1.506 -0.324,2.259c-4.346,30.987 -6.211,53.27 -7.214,84.542c-0.257,8.024 -0.083,16.062 0.221,24.085c0.211,5.548 0.768,11.079 1.322,16.603c0.249,2.485 0.668,4.952 1.086,7.414m25.088,-27.853c5.666,0.11 10.224,4.145 11.396,9.657c1.441,6.779 -4.598,14.095 -11.547,13.803c-2.565,-0.108 -4.486,-0.609 -6.595,-2.099c-4.6,-3.253 -6.484,-9.887 -3.859,-14.963c1.309,-2.529 2.908,-3.855 5.368,-5.24c1.323,-0.744 3.292,-1.107 4.783,-1.155c0.152,-0.003 0.302,-0.004 0.454,-0.003m-0.239,5c-0.849,0.017 -1.994,0.208 -2.752,0.627c-1.908,1.053 -3.371,2.669 -3.831,4.85c-0.859,4.066 2.637,7.792 6.583,7.982c0.738,0.036 1.876,-0.17 2.553,-0.465c1.386,-0.605 2.719,-1.692 3.456,-3.029c1.744,-3.165 0.427,-7.417 -2.712,-9.141c-0.916,-0.502 -1.904,-0.774 -2.948,-0.819c-0.116,-0.004 -0.232,-0.006 -0.349,-0.005m-38.127,-23.998c-2.605,0.048 -4.817,2.285 -4.858,4.9c-0.028,1.841 1.186,3.551 2.801,4.355c0.632,0.314 1.409,0.528 2.12,0.512c3.633,-0.079 6.142,-4.212 4.179,-7.413c-0.547,-0.892 -1.197,-1.423 -2.117,-1.9c-0.562,-0.291 -1.372,-0.443 -1.998,-0.454c-0.064,-0.001 -0.064,-0.001 -0.127,0m22.704,-54.538c0.964,0.019 2.264,0.239 3.124,0.714c2.171,1.197 3.81,3.019 4.314,5.502c0.92,4.532 -2.983,9.026 -7.536,9.025c-4.539,0 -8.479,-4.499 -7.545,-9.026c0.511,-2.478 2.157,-4.306 4.324,-5.501c0.86,-0.475 2.16,-0.695 3.124,-0.714c0.098,0 0.097,0 0.195,0m-0.139,4.5c-0.413,0.008 -0.902,0.104 -1.274,0.29c-0.876,0.438 -1.58,1.263 -1.749,2.238c-0.319,1.832 1.141,3.778 3.064,3.713c0.643,-0.021 1.144,-0.151 1.682,-0.507c0.235,-0.156 0.448,-0.35 0.632,-0.563c1.702,-1.972 0.366,-5.087 -2.233,-5.17c-0.041,-0.001 -0.081,-0.001 -0.122,-0.001"/></svg>
