<svg xmlns="http://www.w3.org/2000/svg" fill-rule="evenodd" stroke-linejoin="round" stroke-miterlimit="1.414" clip-rule="evenodd" viewBox="0 0 256 256"><rect width="256" height="256" fill="none"/><path d="M94.04,75.814l0.051,-0.101c6.392,-12.585 17.308,-27.25 32.88,-27.548c0.17,-0.002 0.34,-0.003 0.51,-0.003c15.819,0.154 27.698,15.008 34.638,27.554c7.803,-4.684 16.85,-7.304 25.925,-7.437c0.288,-0.002 0.575,-0.003 0.863,-0.002c26.669,0.226 49.899,25.983 43.547,52.836c-5.072,21.438 -24.493,34.986 -44.444,40.985c1.183,4.116 1.961,8.373 2.289,12.643c0.215,2.795 -0.059,5.648 -0.674,8.382c-4.7,20.89 -33.185,12.054 -46.133,6.361l-0.358,-0.159c-0.232,-0.115 -0.453,-0.244 -0.647,-0.417c-3.502,6.209 -7.607,12.136 -11.987,17.759l-0.151,0.193c-1.017,1.285 -2.886,1.287 -3.946,0.103c-0.269,-0.328 -0.534,-0.658 -0.799,-0.989c-4.343,-5.456 -8.444,-11.167 -11.959,-17.196c-0.26,0.269 -0.462,0.388 -0.782,0.547c-0.361,0.16 -0.722,0.319 -1.084,0.476c-13.002,5.602 -41.322,13.886 -45.515,-7.141c-0.569,-2.85 -0.761,-5.807 -0.519,-8.703c0.336,-4.009 1.129,-7.993 2.242,-11.859c-19.935,-5.995 -39.349,-19.529 -44.433,-40.944c-6.35,-26.748 16.663,-52.495 43.249,-52.875c0.287,-0.002 0.574,-0.003 0.862,-0.002c9.235,0.082 18.453,2.742 26.375,7.537m44.536,86.171c-6.364,4.202 -14.791,4.206 -21.156,0c-0.554,0.282 -1.116,0.548 -1.685,0.797c-7.336,10.89 1.415,23.034 7.701,31.946c1.508,2.138 3.06,4.247 4.658,6.32l0.203,0.263c1.672,-2.24 3.279,-4.528 4.85,-6.839c5.705,-8.384 14.605,-21.037 7.837,-31.383c-0.817,-0.336 -1.621,-0.703 -2.408,-1.104m-65.769,1.442c-0.98,3.4 -1.672,6.898 -2.038,10.417c-0.242,2.32 -0.1,4.684 0.227,6.993c1.879,13.27 18.048,11.078 27.362,8.464c1.858,-0.522 3.706,-1.091 5.52,-1.752c2.348,-0.855 4.672,-1.78 6.956,-2.794l0.192,-0.076c0.152,-0.046 0.205,-0.066 0.335,-0.091c-3.223,-6.401 -4.778,-12.61 -2.286,-19.608c-11.826,2.807 -24.609,1.375 -36.268,-1.553m110.382,0c-11.542,2.899 -24.174,4.319 -35.9,1.639c2.004,6.937 0.569,13.151 -2.54,19.547c0,0 0.278,0.089 0.414,0.142c0.347,0.154 0.694,0.307 1.042,0.458c2.284,0.984 4.609,1.878 6.956,2.7c1.807,0.633 3.64,1.196 5.497,1.661c7.64,1.914 20.945,4.433 25.137,-4.875c0.58,-1.287 1.066,-2.649 1.238,-4.051c0.296,-2.406 0.412,-4.861 0.153,-7.272c-0.36,-3.363 -1.058,-6.699 -1.997,-9.949m-39.065,-4.483c11.863,4.298 25.583,3.473 37.573,0.51c11.047,-2.731 25.315,-8.686 33.418,-17.644c8.649,-9.562 14.501,-21.791 12.932,-35.042c-2.509,-21.19 -22.361,-35.088 -42.996,-33.375c-11.353,0.941 -21.659,6.852 -29.937,14.35c-8.636,7.822 -15.477,17.796 -20.228,28.397c2.512,3.443 4.915,6.977 7.094,10.641c10.494,-7.236 24.007,-17.537 27.366,-30.882l0.051,-0.175c0.366,-0.984 1.308,-1.667 2.35,-1.714c0.061,0.001 0.122,0.003 0.183,0.005c1.518,0.153 2.59,1.579 2.265,3.105c-0.045,0.177 -0.091,0.354 -0.138,0.531c-3.576,13.044 -15.337,23.113 -25.739,30.757c12.865,-0.122 29.218,-1.079 39.511,-9.98l0.121,-0.107l0.128,-0.114l0.165,-0.134c0.479,-0.328 1.009,-0.494 1.589,-0.498c0.071,0.006 0.141,0.011 0.212,0.017c1.261,0.208 3.018,1.986 1.983,3.497c-1.439,2.099 -5.443,4.603 -7.854,5.65c-11.589,5.034 -22.879,6.53 -35.637,6.667c10.341,4.472 23.418,9.214 34.836,6.065l0.191,-0.045c3.008,-0.459 4.117,3.916 1.138,4.865c-0.208,0.057 -0.416,0.112 -0.625,0.166c-12.137,3.027 -25.611,-1.405 -36.644,-6.084c1.983,6.657 0.136,14.139 -4.297,19.502c0.348,0.34 0.678,0.696 0.989,1.069m-23.231,-43.287c-4.788,-10.513 -11.631,-20.398 -20.255,-28.138c-8.264,-7.416 -18.529,-13.236 -29.815,-14.139c-20.623,-1.648 -40.412,12.28 -42.882,33.457c-1.555,13.33 4.389,25.599 13.134,35.166c8.181,8.95 22.623,14.903 33.712,17.585c12.054,2.915 25.901,3.7 37.741,-0.89c0.164,-0.209 0.333,-0.415 0.504,-0.618c-4.561,-5.382 -6.44,-12.92 -4.503,-19.693c-12.28,5.193 -24.281,9.613 -37.421,5.844c-2.879,-0.826 -1.387,-5.44 1.517,-4.76c0.216,0.059 0.433,0.116 0.651,0.171c11.306,2.748 23.981,-1.818 34.186,-6.236c-14.312,-0.153 -18.56,-0.907 -32.207,-5.149c-3.134,-0.974 -8.882,-4.231 -10.955,-6.625c-1.423,-1.644 0.05,-3.914 1.865,-4.057c0.07,0.001 0.141,0.001 0.212,0.002c0.792,0.072 1.335,0.457 1.914,0.958c0.124,0.105 0.249,0.21 0.375,0.314c10.403,8.475 26.237,9.44 39.014,9.56c-11.586,-8.508 -13.456,-10.56 -21.924,-22.131c-1.172,-1.601 -7.483,-12.105 -1.506,-12.268c0.06,0.002 0.121,0.005 0.182,0.008c1.036,0.124 1.926,0.874 2.219,1.881c0.05,0.198 0.102,0.396 0.156,0.593c3.68,13.073 16.343,22.78 27.025,30.162c2.162,-3.783 4.553,-7.436 7.061,-10.997m11.112,5.04c0.669,2.656 1.282,5.325 1.861,8.002c0.388,1.79 0.725,3.59 1.037,5.395c0.245,1.414 0.464,2.833 0.633,4.258c0.565,4.782 2.099,13.888 -3.103,17.255c-1.162,0.751 -3.155,0.706 -4.435,0.701c-0.41,0.002 -0.82,0.015 -1.23,0.016c-3.792,-0.024 -6.015,-3.159 -6.46,-6.651c-1.159,-9.1 0.77,-18.799 2.334,-27.727c-1.92,2.881 -3.89,6.054 -5.498,9.038c-0.097,0.331 -0.261,0.639 -0.48,0.904c-1.892,3.622 -3.348,6.567 -3.89,10.681c-1.179,8.961 7.842,19.243 17.119,17.691c6.404,-1.072 11.814,-6.974 13.011,-13.253c0.624,-3.278 0.391,-5.986 -0.903,-9.074c-2.957,-7.055 -5.574,-11.028 -9.996,-17.236m-4.618,3.149c-1.564,9.173 -1.816,11.34 -2.322,20.628c-0.098,1.812 -0.346,5.092 0.955,6.762c0.005,0.007 0.015,0.023 0.024,0.027c0.486,0.159 1.414,0.05 1.795,0.046c0.158,-0.001 0.317,0 0.475,0.001c0.302,0.006 0.605,0.013 0.907,0.014c0.096,0 0.192,-0.002 0.288,-0.005c0.14,-0.007 0.284,-0.013 0.42,-0.049c0.009,-0.003 0.017,-0.005 0.026,-0.008c1.387,-1.465 1.013,-4.945 0.974,-6.558c-0.175,-7.183 -1.562,-13.659 -3.255,-20.692l-0.147,-0.604l-0.038,-0.151c-0.034,0.196 -0.068,0.393 -0.102,0.589m30.558,-45.343c-0.166,-0.303 -0.333,-0.604 -0.502,-0.905c-7.421,-13.115 -22.429,-30.743 -39.455,-22.289c-2.677,1.329 -6.281,4.066 -8.248,6.298c-5.193,5.891 -8.057,10.058 -11.517,17.023c11.105,8.242 19.972,20.11 26.024,32.422c0.394,-0.521 0.79,-1.039 1.191,-1.555l0.151,-0.193c0.494,-0.627 1.202,-0.975 1.989,-1.019c0.074,0.003 0.148,0.005 0.223,0.008c0.677,0.083 1.276,0.395 1.733,0.902c0.27,0.328 0.536,0.659 0.802,0.989c0.381,0.478 0.76,0.957 1.136,1.438c6.093,-12.616 15.106,-24.748 26.473,-33.119"/></svg>
