<svg xmlns="http://www.w3.org/2000/svg" fill-rule="evenodd" stroke-linejoin="round" stroke-miterlimit="1.414" clip-rule="evenodd" viewBox="0 0 256 256"><rect width="256" height="256" fill="none"/><path d="M127.217,69.226c0.247,-12.701 5.838,-25.637 11.35,-36.739l0.044,-0.086c0.193,-0.346 0.302,-0.491 0.556,-0.745l0.014,-0.013c0.118,-0.106 0.118,-0.106 0.243,-0.204l0.013,-0.01c0.168,-0.114 0.168,-0.114 0.344,-0.213l0.013,-0.007c0.18,-0.083 0.179,-0.083 0.365,-0.152l0.006,-0.002c0.143,-0.042 0.142,-0.042 0.288,-0.075l0.006,-0.002c0.167,-0.027 0.167,-0.027 0.335,-0.043l0.006,0c0,0 0.234,-0.002 0.351,0.003l0.006,0l0.185,0.022l0.183,0.035c0,0 0.221,0.063 0.329,0.101c0,0 0.222,0.097 0.33,0.152c0,0 0.168,0.104 0.25,0.159c0,0 0.213,0.173 0.314,0.266c0,0 0.194,0.215 0.281,0.331c2.101,9.943 -4.472,33.253 -6.147,38.329c15.554,-11.049 31.546,-21.821 48.557,-30.535l0.111,-0.054c0.233,-0.099 0.151,-0.07 0.469,-0.168l0.022,-0.006c0.157,-0.035 0.157,-0.035 0.315,-0.06l0.019,-0.002l0.176,-0.016c0.061,-0.001 0.123,-0.005 0.184,-0.004c0.15,0.007 0.15,0.007 0.3,0.023c0,0 0.25,0.048 0.373,0.08c0,0 0.298,0.107 0.441,0.175c0,0 0.298,0.178 0.436,0.283c0,0 0.275,0.257 0.397,0.4c0,0 0.205,0.302 0.291,0.464c0,0 0.123,0.3 0.169,0.456c0,0 0.054,0.266 0.073,0.401c0,0 0.011,0.203 0.011,0.304l0,0.008c-0.01,0.182 -0.01,0.182 -0.034,0.362l-0.003,0.018c-0.788,3.861 -7.319,8.418 -9.881,10.63c-12.764,11.026 -14.222,13.266 -28.294,22.658c-5.468,3.649 -9.386,6.248 -16.202,4.348c-0.271,0.027 -0.536,-0.001 -0.803,-0.047l-0.004,-0.002c-0.15,-0.039 -0.151,-0.036 -0.297,-0.087c-0.062,0.075 -0.062,0.074 -0.125,0.149l-0.046,0.051c-0.33,3.063 -0.646,6.128 -0.947,9.194c20.736,-8.849 41.848,-17.423 63.545,-23.651l0.116,-0.032c0.313,-0.069 0.278,-0.062 0.497,-0.079c0.169,-0.005 0.169,-0.008 0.338,-0.006c0.183,0.018 0.182,0.021 0.364,0.048c0,0 0.227,0.057 0.339,0.091c0,0 0.285,0.121 0.423,0.191c0,0 0.297,0.196 0.434,0.31c0,0 0.313,0.333 0.444,0.518c0,0 0.207,0.392 0.283,0.599c0,0 0.092,0.391 0.114,0.59c0,0 -0.003,0.352 -0.018,0.527l-0.001,0.007c-0.029,0.167 -0.029,0.167 -0.069,0.332l-0.002,0.007c-2.047,6.465 -11.925,8.394 -16.664,10.901c-15.909,8.417 -32.159,21.221 -51.234,21.597c-0.119,1.402 -0.234,2.804 -0.345,4.206c27.674,-7.822 55.742,-15.243 84.136,-19.976l0.118,-0.018c0.177,-0.02 0.177,-0.019 0.354,-0.03c0.076,0.002 0.153,0.003 0.229,0.004c0.311,0.031 0.2,0.011 0.581,0.102c0,0 0.233,0.081 0.346,0.128c0,0 0.298,0.163 0.44,0.256c0,0 0.346,0.302 0.495,0.474c0,0 0.286,0.452 0.391,0.697c0,0 0.132,0.534 0.154,0.806l0,0.006c-0.007,0.365 -0.011,0.339 -0.063,0.619l-0.002,0.007c-0.068,0.241 -0.068,0.241 -0.161,0.474l-0.003,0.008c-1.573,3.171 -10.246,5.257 -12.883,6.245c-21.546,8.069 -50.243,23.354 -74.923,21.119c-0.08,1.212 -0.156,2.424 -0.229,3.637c32.247,-4.791 64.935,-8.871 97.539,-10.157c0.137,-0.003 0.136,-0.002 0.274,-0.001c0.342,0.021 0.65,0.09 0.973,0.205c0,0 0.225,0.108 0.334,0.168c0,0 0.287,0.204 0.421,0.316c0,0 0.33,0.373 0.465,0.582c0,0 0.232,0.529 0.3,0.809c0,0 0.039,0.583 0.007,0.872l-0.001,0.006c-0.085,0.392 -0.084,0.363 -0.205,0.652l-0.003,0.007c-0.108,0.204 -0.108,0.204 -0.234,0.396l-0.005,0.007c-1.266,1.636 -3.775,1.729 -5.764,2.296c-4.891,1.393 -9.862,2.493 -14.832,3.572c-26.173,5.683 -32.904,6.972 -59.442,10.607c-5.765,0.79 -14.675,1.945 -20.345,-0.579c-0.202,4.399 -0.359,8.8 -0.46,13.203c30.642,-7.92 61.669,-15.413 92.988,-20.146l0.119,-0.017c0.173,-0.017 0.172,-0.016 0.345,-0.025c0.075,0.002 0.15,0.003 0.225,0.005c0.302,0.031 0.193,0.012 0.568,0.1c0,0 0.239,0.083 0.356,0.132c0,0 0.309,0.171 0.455,0.268c0,0 0.375,0.341 0.534,0.537c0,0 0.285,0.5 0.382,0.77c0,0 0.099,0.557 0.101,0.838l0,0.006c-0.03,0.314 -0.017,0.288 -0.128,0.675l-0.003,0.007c-0.085,0.219 -0.085,0.219 -0.191,0.43l-0.004,0.007c-1.132,1.855 -4.71,2.68 -6.471,3.303c-5.942,2.103 -11.855,4.289 -17.815,6.342c-20.438,7.039 -48.658,20.186 -71.59,17.681c-0.001,3.741 0.045,7.483 0.152,11.222l0.052,0.023l0.034,0.016c27.203,-6.621 54.958,-12.526 82.802,-15.704l0.121,-0.012c0.18,-0.01 0.179,-0.009 0.36,-0.01c0.079,0.006 0.157,0.012 0.236,0.018c0.31,0.051 0.199,0.024 0.578,0.139c0,0 0.23,0.098 0.342,0.153c0,0 0.27,0.17 0.399,0.265c0,0 0.293,0.28 0.421,0.436c0,0 0.272,0.449 0.37,0.691c0,0 0.121,0.51 0.14,0.77l0,0.006c-0.009,0.283 -0.009,0.283 -0.051,0.564l-0.001,0.006c-0.067,0.252 -0.066,0.252 -0.158,0.496l-0.004,0.007c-2.739,5.656 -12.471,5.919 -17.121,7.223c-25.262,7.087 -24.833,8.087 -50.301,13.939c-4.679,1.075 -13.014,2.675 -17.741,0.238c-0.025,0.012 -0.05,0.024 -0.075,0.036c0.213,3.611 0.5,7.294 0.874,10.864c0.874,-0.245 1.747,-0.489 2.621,-0.731c18.948,-5.232 38.219,-10.173 57.716,-12.893l0.114,-0.013c0.174,-0.014 0.173,-0.013 0.348,-0.017c0.04,0.002 0.08,0.004 0.12,0.007c0.139,0.011 0.139,0.011 0.277,0.03c0,0 0.37,0.09 0.55,0.153c0,0 0.215,0.099 0.319,0.154c0,0 0.214,0.139 0.317,0.215c0,0 0.271,0.249 0.391,0.387c0,0 0.202,0.287 0.287,0.441c0,0 0.152,0.365 0.206,0.555c0,0 0.058,0.336 0.069,0.506l0.001,0.006c-0.004,0.237 -0.004,0.237 -0.029,0.473l-0.001,0.006c-0.038,0.19 -0.038,0.19 -0.09,0.376l-0.002,0.007c-1.996,5.656 -11.442,6.563 -15.659,8.104c-14.948,5.464 -29.652,13.282 -45.985,13.629c1.467,8.34 3.52,17.399 8.606,24.372c2.141,9.464 -8.101,-2.225 -8.163,-2.341c-3.201,-5.959 -4.435,-15.627 -5.537,-22.159c-17.473,2.245 -33.829,-7.718 -49.247,-13.679c-4.087,-1.581 -13.35,-2.388 -15.24,-7.968l-0.002,-0.007c-0.053,-0.206 -0.052,-0.206 -0.088,-0.416l0,-0.006c-0.018,-0.237 -0.018,-0.237 -0.014,-0.475l0.001,-0.006c0.026,-0.249 0.017,-0.228 0.095,-0.537l0.002,-0.005c0.119,-0.35 0.115,-0.324 0.253,-0.579l0.003,-0.005c0.139,-0.214 0.121,-0.199 0.337,-0.443l0.004,-0.004c0.177,-0.168 0.177,-0.168 0.37,-0.318l0.005,-0.004c0.164,-0.106 0.163,-0.106 0.334,-0.198l0.007,-0.004c0.436,-0.198 0.645,-0.236 1.088,-0.267c0.07,0.001 0.14,0.003 0.21,0.004c0,0 0.86,0.107 1.289,0.168c19.96,2.894 39.69,7.975 59.084,13.413c-0.333,-3.262 -0.59,-6.532 -0.79,-9.805c-20.547,0.824 -40.318,-7.536 -59.271,-13.936c-4.913,-1.659 -9.793,-3.414 -14.693,-5.114c-1.789,-0.62 -4.831,-1.312 -6.054,-3.053l-0.004,-0.008c-0.088,-0.154 -0.088,-0.153 -0.165,-0.313l-0.003,-0.007c-0.087,-0.228 -0.087,-0.228 -0.152,-0.463l-0.001,-0.006c-0.065,-0.362 -0.056,-0.338 -0.058,-0.626l0,-0.006c0.029,-0.349 0.014,-0.321 0.141,-0.75l0.002,-0.006c0.129,-0.314 0.107,-0.292 0.347,-0.653l0.004,-0.005c0.181,-0.224 0.158,-0.21 0.433,-0.453l0.006,-0.004c0.193,-0.143 0.193,-0.143 0.4,-0.266l0.006,-0.004c0.38,-0.185 0.727,-0.272 1.146,-0.304c0.067,0 0.134,0.001 0.201,0.001c0,0 1.054,0.109 1.58,0.17c25.449,3.02 50.701,8.386 75.644,14.17c-0.082,-3.366 -0.115,-10.102 -0.115,-10.102c-4.068,0.897 -8.352,0.238 -12.496,-0.191c-20.453,-2.121 -40.433,-10.303 -59.571,-16.949c-5.9,-2.049 -11.766,-4.192 -17.663,-6.248c-2.187,-0.763 -5.732,-1.472 -7.363,-3.426l-0.007,-0.008c-0.095,-0.136 -0.095,-0.136 -0.182,-0.278l-0.004,-0.007c-0.106,-0.211 -0.106,-0.211 -0.191,-0.43l-0.003,-0.007c-0.106,-0.369 -0.094,-0.344 -0.126,-0.643l0,-0.006c-0.002,-0.397 -0.018,-0.365 0.096,-0.86l0.002,-0.006c0.139,-0.386 0.111,-0.36 0.401,-0.798l0.003,-0.005c0.206,-0.248 0.18,-0.234 0.498,-0.497l0.006,-0.004c0.221,-0.149 0.221,-0.148 0.457,-0.272l0.008,-0.004c0.383,-0.159 0.735,-0.227 1.148,-0.236c0.064,0.004 0.128,0.007 0.192,0.01c0,0 1.254,0.181 1.881,0.277c31.334,4.881 62.369,12.307 93.032,20.332c0.087,-3.984 0.22,-7.966 0.39,-11.946c-5.044,1.205 -10.377,0.997 -15.547,0.582c-21.655,-1.739 -39.465,-6.074 -60.588,-10.805c-5.217,-1.168 -10.445,-2.311 -15.605,-3.71c-2.242,-0.607 -4.901,-0.694 -6.576,-2.302l-0.007,-0.008c-0.11,-0.123 -0.11,-0.123 -0.211,-0.254l-0.005,-0.007c-0.132,-0.203 -0.132,-0.203 -0.245,-0.419l-0.003,-0.006c-0.114,-0.279 -0.113,-0.252 -0.194,-0.627l-0.001,-0.006c-0.055,-0.488 -0.043,-0.455 0,-0.836l0.001,-0.005c0.092,-0.399 0.067,-0.371 0.303,-0.838l0.003,-0.006c0.235,-0.362 0.224,-0.333 0.46,-0.576l0.005,-0.005c0.195,-0.163 0.195,-0.163 0.405,-0.306l0.007,-0.004c0.424,-0.236 0.835,-0.35 1.318,-0.379c0.136,-0.001 0.136,-0.002 0.272,0.001c32.35,1.274 64.727,5.345 96.741,10.039c0.067,-1.142 0.136,-2.284 0.209,-3.426c-21.817,1.875 -44.902,-9.989 -64.129,-17.403c-5.318,-2.051 -10.614,-4.156 -15.933,-6.206c-1.998,-0.77 -5.373,-1.587 -6.753,-3.536l-0.005,-0.008c-0.092,-0.158 -0.092,-0.158 -0.173,-0.322l-0.003,-0.008c-0.084,-0.214 -0.084,-0.214 -0.148,-0.435l-0.001,-0.006c-0.075,-0.387 -0.064,-0.361 -0.068,-0.669l0.001,-0.006c0.039,-0.458 0.044,-0.425 0.149,-0.768l0.002,-0.006c0.141,-0.333 0.116,-0.31 0.383,-0.689l0.003,-0.005c0.206,-0.239 0.181,-0.225 0.496,-0.477l0.005,-0.004c0.21,-0.137 0.21,-0.137 0.433,-0.253l0.007,-0.003c0.388,-0.161 0.74,-0.227 1.157,-0.234c0.066,0.004 0.132,0.008 0.197,0.012c0,0 1.122,0.177 1.683,0.272c28.155,4.827 56.001,12.145 83.457,19.947c0.175,-2.263 0.36,-4.525 0.553,-6.787l-0.002,-0.001c-4.288,0.871 -10.504,-1.007 -14.352,-2.579c-20.21,-8.259 -19.625,-9.094 -39.287,-18.817c-5.143,-2.543 -13.721,-4.576 -16.561,-10.608l-0.004,-0.008c-0.052,-0.138 -0.052,-0.138 -0.097,-0.278l-0.002,-0.008c-0.045,-0.184 -0.045,-0.184 -0.076,-0.371l0,-0.007c-0.019,-0.222 -0.019,-0.222 -0.017,-0.446l0.001,-0.006c0.028,-0.294 0.016,-0.27 0.116,-0.633l0.002,-0.005c0.135,-0.364 0.13,-0.337 0.285,-0.599l0.003,-0.005c0.221,-0.31 0.21,-0.285 0.423,-0.494l0.004,-0.004c0.197,-0.164 0.175,-0.155 0.455,-0.325l0.005,-0.003c0.195,-0.098 0.195,-0.098 0.397,-0.178l0.007,-0.003c0.297,-0.092 0.409,-0.136 0.82,-0.141c0.074,0.003 0.148,0.005 0.223,0.007c0.221,0.017 0.183,0.01 0.497,0.079c0.44,0.118 0.876,0.25 1.313,0.377c22.783,6.679 45.009,15.704 66.744,25.202c0.261,-2.698 0.533,-5.395 0.817,-8.09c-15.985,-1.547 -29.924,-18.487 -40.402,-27.896c-2.74,-2.461 -8.51,-6.443 -9.797,-10.287l-0.007,-0.022c-0.042,-0.154 -0.042,-0.154 -0.075,-0.31l-0.003,-0.018c-0.025,-0.186 -0.025,-0.186 -0.036,-0.373l0,-0.008c0.002,-0.164 0.002,-0.163 0.014,-0.327l0.001,-0.007c0.027,-0.184 0.027,-0.184 0.068,-0.365l0.001,-0.006c0.064,-0.211 0.053,-0.194 0.167,-0.451l0.003,-0.005c0.116,-0.22 0.1,-0.204 0.287,-0.459l0.004,-0.005c0.202,-0.238 0.19,-0.219 0.373,-0.382l0.005,-0.003c0.257,-0.197 0.241,-0.18 0.464,-0.303l0.005,-0.003c0.202,-0.09 0.202,-0.09 0.411,-0.163l0.007,-0.002c0.184,-0.047 0.184,-0.047 0.371,-0.08l0.007,-0.001c0.155,-0.017 0.155,-0.017 0.31,-0.024c0.06,-0.001 0.121,0.003 0.181,0.004l0.173,0.016c0,0 0.562,0.123 0.825,0.236c0.23,0.112 0.456,0.231 0.683,0.347c15.658,8.095 30.452,17.957 44.873,28.048m-42.785,111.027c9.091,3.591 15.221,5.757 24.591,8.545c5.087,1.514 10.605,3.016 15.985,2.929l0.004,0c-0.065,-0.387 -0.136,-0.773 -0.215,-1.158c-0.015,-0.07 -0.031,-0.141 -0.046,-0.211l-0.023,-0.1c-0.903,-0.256 -1.808,-0.507 -2.712,-0.758c-12.473,-3.45 -25.035,-6.609 -37.694,-9.3c0,0 0.072,0.038 0.11,0.053m86.812,0.066c-13.047,2.791 -25.995,6.066 -38.843,9.658l-0.218,0.061c-0.066,0.548 -0.06,1.105 -0.022,1.655l0.002,0.026c12.686,-0.463 28.639,-7.17 39.302,-11.374l0.393,-0.156c-0.204,0.043 -0.409,0.087 -0.614,0.13m-38.46,-10.082c4.395,0.915 10.614,-0.234 14.862,-1.175c17.58,-3.892 23.536,-5.485 40.682,-10.985l0.179,-0.058c-0.091,0.016 -0.183,0.032 -0.274,0.048c-18.582,3.232 -37.11,7.099 -55.471,11.442c0.027,0.241 0.035,0.485 0.022,0.728m-8.477,-1.246c-0.269,-0.062 -0.537,-0.124 -0.806,-0.187c-16.6,-3.847 -35.536,-7.787 -52.205,-10.692c0,0 -0.474,-0.072 -0.359,-0.035c10.753,3.45 21.682,6.333 32.59,9.258c5.923,1.589 14.645,3.364 20.842,3.127c-0.022,-0.49 -0.042,-0.98 -0.062,-1.471m5.145,-20.03c5.048,0.606 11.842,-0.819 16.676,-2c20.571,-5.025 27.081,-6.876 47.187,-13.522l0.974,-0.324l0.804,-0.268c-0.029,0.006 -0.059,0.012 -0.089,0.018c-21.941,4.47 -43.826,9.599 -65.506,15.244c0.012,0.284 -0.003,0.57 -0.046,0.852m-7.173,-0.82c-21.603,-5.636 -43.43,-10.743 -65.288,-15.205c0,0 0.239,0.136 0.368,0.179c20.331,6.749 26.919,8.624 47.717,13.75c4.982,1.228 12.014,2.768 17.226,2.082c-0.032,-0.267 -0.04,-0.537 -0.023,-0.806m-65.135,-30.054c21.246,4.52 24.675,4.967 46.168,8.081c6.672,0.966 14.186,2.61 20.852,0.254l0.055,-0.02l0.028,-0.011c-0.021,-0.119 -0.043,-0.237 -0.064,-0.356l-0.012,-0.074c-0.978,-0.143 -1.956,-0.283 -2.934,-0.423c-20.363,-2.885 -44.054,-5.732 -64.417,-7.583c0,0 0.21,0.107 0.324,0.132m142.036,-1.219c-22.483,2.044 -44.982,4.75 -67.333,8.004l-0.018,0.003c-0.021,0.124 -0.044,0.248 -0.066,0.373c5.953,1.718 14.491,0.694 20.454,-0.113c19.062,-2.58 27.826,-4.132 46.639,-8.135l0.829,-0.178c-0.168,0.015 -0.337,0.031 -0.505,0.046m-74.878,-5.359c-0.402,-0.114 -0.805,-0.226 -1.208,-0.34c-17.903,-5.037 -38.747,-10.398 -56.695,-14.428c0,0 -0.11,0.036 -0.081,0.047c11.415,4.168 23.042,7.737 34.621,11.424c7.553,2.405 15.575,4.951 23.648,4.439c-0.143,-0.365 -0.241,-0.752 -0.285,-1.142m7.557,0.054c7.92,0.516 15.8,-1.956 23.213,-4.312c11.73,-3.727 23.51,-7.328 35.071,-11.55l0.451,-0.165c-0.154,0.034 -0.307,0.068 -0.461,0.102c-19.634,4.406 -39.198,9.442 -58.561,14.953c0.131,0.313 0.228,0.638 0.287,0.972m0.078,-15.277c6.481,-0.403 12.736,-3.168 18.479,-5.912c8.721,-4.168 17.485,-8.268 25.978,-12.882l0.373,-0.203c-0.088,0.031 -0.176,0.063 -0.264,0.094c-14.988,5.38 -29.823,11.331 -44.451,17.644c-0.039,0.419 -0.077,0.839 -0.115,1.259m-6.806,-1.694c-15.073,-6.573 -30.414,-12.715 -45.877,-18.269c0,0 0.008,0.068 0.034,0.082c13.993,7.602 18.643,9.807 33.369,15.869c3.375,1.389 8.49,3.198 12.261,2.931c0.058,-0.208 0.129,-0.413 0.213,-0.613m3.772,-18.047c-10.67,-7.647 -21.64,-14.976 -32.832,-21.819c0,0 -0.447,-0.289 -0.347,-0.2c9.962,8.843 14.124,11.979 25.22,19.34c2.003,1.329 5.435,3.029 7.898,3.237l0.03,-0.271l0.031,-0.287m42.236,-22.906c-10.732,6.562 -22.919,14.711 -33.254,22.122c-0.634,0.224 1.36,0.104 2.015,-0.047c0.967,-0.223 1.911,-0.584 2.783,-1.058c3.1,-1.687 6.182,-3.425 9.101,-5.409c6.137,-4.171 14.164,-10.892 19.703,-15.808l0.039,-0.035c-0.129,0.078 -0.258,0.157 -0.387,0.235m-37.856,11.194c1.188,-4.499 2.243,-9.801 3.021,-14.127l0.048,-0.274c-0.043,0.126 -0.087,0.252 -0.13,0.378c-1.547,4.526 -2.871,9.173 -3.582,13.912l0.165,0.007c0.22,0.044 0.337,0.059 0.478,0.104"/></svg>