<svg xmlns="http://www.w3.org/2000/svg" fill-rule="evenodd" stroke-linejoin="round" stroke-miterlimit="1.414" clip-rule="evenodd" viewBox="0 0 256 256"><rect width="256" height="256" fill="none"/><path d="M87.082,199.631c0,0 -0.161,-0.09 -0.241,-0.134c-0.186,-0.101 -0.371,-0.201 -0.559,-0.298c-1.08,-0.554 -3.084,-1.608 -4.518,-1.175l-0.188,0.054c-6.283,1.659 -12.614,-1.535 -17.373,-5.089c-10.907,-8.144 -20.27,-22.402 -17.48,-36.6c0.204,-0.984 0.415,-1.966 0.621,-2.95c2.504,-12.067 4.106,-21.396 6.339,-33.772c0.18,-0.99 0.36,-1.981 0.541,-2.971c2.864,-15.538 5.397,-32.758 14.896,-45.874c0.132,-0.186 0.264,-0.371 0.394,-0.557c2.849,-4.116 5.944,-9.736 8.174,-14.196l0.053,-0.108c0.516,-0.876 1.337,-1.361 2.354,-1.388c0.119,0.014 0.239,0.028 0.358,0.042c1.15,0.309 1.767,1.109 2.038,2.199c0.053,0.204 0.108,0.407 0.166,0.61c1.089,3.744 2.916,7.411 6.109,9.756c0.174,0.131 0.174,0.131 0.347,0.264c7.588,5.967 11.807,16.082 14.873,24.773c7.368,20.883 10.331,33.779 15.61,55.254c0.077,0.321 0.153,0.642 0.229,0.964c0.677,2.927 1.271,5.878 1.683,8.854c1.6,11.542 3.89,35.355 -13.437,36.441c-0.046,0.004 -0.09,0.012 -0.134,0.022c-2.251,0.521 -4.471,3.186 -5.901,4.727l-0.274,0.254c-0.506,0.345 -0.719,0.539 -1.544,0.545c2.016,12.092 3.783,24.285 4.568,36.528c0,0 -0.015,0.645 -0.093,0.955l-0.004,0.017c-0.057,0.177 -0.057,0.177 -0.127,0.349l-0.006,0.014c-0.08,0.164 -0.08,0.164 -0.173,0.321l-0.003,0.006c-0.091,0.133 -0.091,0.133 -0.191,0.26l-0.004,0.005c-0.132,0.145 -0.131,0.145 -0.274,0.28l-0.004,0.003c-0.148,0.12 -0.148,0.12 -0.305,0.228l-0.005,0.003c-0.244,0.144 -0.228,0.131 -0.432,0.218l-0.005,0.002c-0.215,0.073 -0.215,0.073 -0.436,0.126l-0.005,0.001c-0.214,0.031 -0.213,0.031 -0.429,0.044l-0.006,0c-0.193,-0.004 -0.193,-0.004 -0.386,-0.024l-0.006,-0.001c-0.217,-0.037 -0.199,-0.029 -0.467,-0.112l-0.013,-0.004c-0.214,-0.085 -0.214,-0.085 -0.419,-0.189l-0.014,-0.008c-2.096,-1.283 -3.647,-6.714 -4.3,-8.731c-3.23,-9.969 -6.896,-19.812 -9.597,-29.938Zm64.936,-12.348c-0.435,-0.316 -0.743,-0.79 -1.081,-1.201c-0.16,-0.193 -0.321,-0.385 -0.483,-0.575c-0.954,-1.11 -3.044,-3.939 -4.794,-4.048c-0.13,0.012 -0.258,0.025 -0.389,0.036c-6.41,0.43 -9.812,-4.023 -11.879,-9.75c-4.75,-13.165 -1.253,-30.945 1.797,-43.994c0.802,-3.369 1.616,-6.736 2.426,-10.103c5.169,-21.417 8.623,-36.069 15.757,-56.943c3.439,-10.062 7.832,-21.469 16.212,-28.702c0.101,-0.089 0.201,-0.18 0.299,-0.272c3.279,-3.134 5.09,-7.905 6.127,-12.207l0.026,-0.114l0.022,-0.099l0.116,-0.378c0.495,-1.006 1.387,-1.565 2.509,-1.571c0.13,0.02 0.26,0.04 0.391,0.06c1.324,0.427 1.697,1.4 2.187,2.569c0.176,0.415 0.352,0.83 0.53,1.244c2.373,5.503 4.925,10.945 8.075,16.051c0.136,0.225 0.271,0.45 0.405,0.676c11.398,19.589 12.008,46.321 14.831,67.948c0.167,1.266 0.333,2.533 0.501,3.8c1.181,8.876 2.462,17.71 3.833,26.553c0.043,0.296 0.043,0.296 0.083,0.592c1.667,13.259 -5.04,28.087 -13.626,37.817c-6.074,6.884 -14.151,12.917 -23.772,10.948c-0.045,-0.008 -0.089,-0.013 -0.135,-0.016c-2.563,-0.124 -5.707,2.618 -7.479,4.017l-0.151,0.121c-0.345,0.232 -0.443,0.331 -0.898,0.455c-2,6.676 -4.415,13.221 -6.628,19.83c-0.714,2.132 -1.943,6.9 -4.045,8.336l-0.014,0.009c-0.167,0.099 -0.167,0.099 -0.342,0.184l-0.013,0.006c-0.186,0.073 -0.185,0.073 -0.376,0.132l-0.006,0.001c-0.164,0.037 -0.163,0.037 -0.33,0.064l-0.005,0c-0.193,0.016 -0.193,0.016 -0.386,0.018l-0.006,0c-0.193,-0.014 -0.193,-0.014 -0.385,-0.043l-0.005,-0.001c-0.216,-0.051 -0.216,-0.051 -0.426,-0.121l-0.005,-0.001c-0.203,-0.089 -0.203,-0.088 -0.398,-0.194l-0.004,-0.003c-0.167,-0.11 -0.167,-0.11 -0.325,-0.233l-0.004,-0.003c-0.14,-0.128 -0.14,-0.128 -0.27,-0.266l-0.004,-0.004c-0.136,-0.171 -0.136,-0.171 -0.257,-0.353l-0.007,-0.011c-0.105,-0.195 -0.105,-0.194 -0.193,-0.397l-0.006,-0.015c-0.149,-0.43 -0.182,-0.676 -0.175,-1.103c0.023,-0.464 0.059,-0.928 0.09,-1.392c0.64,-9.152 1.758,-18.279 3.085,-27.354Zm-60.214,-6.382c-1.206,0.212 -2.422,0.25 -3.639,0.079c1.86,12.736 5.75,25.279 9.855,37.437c-0.071,-0.549 -0.143,-1.099 -0.216,-1.649c-1.606,-11.941 -3.658,-23.818 -5.956,-35.645l-0.044,-0.222Zm72.981,-17.558c-1.22,0.191 -2.438,0.187 -3.658,0.013l-0.034,0.177c-2.206,11.64 -4.105,23.342 -5.563,35.1l-0.007,0.061c3.833,-11.512 7.378,-23.336 9.262,-35.351Zm-65.457,30.725c2.529,-2.597 5.613,-5.435 9.47,-5.31c0.115,0.002 0.23,0.002 0.346,0.001c4.363,-0.121 6.612,-4.362 7.34,-7.913c2.16,-10.552 0.746,-21.849 -1.747,-32.192c-0.695,-2.831 -1.403,-5.659 -2.107,-8.487c-2.207,-8.839 -4.468,-17.667 -6.943,-26.435c-3.89,-13.783 -7.636,-33.455 -20.459,-42.943c-0.146,-0.111 -0.146,-0.11 -0.289,-0.223c-2.348,-1.885 -4.061,-4.449 -5.352,-7.146l-0.047,-0.102c-0.283,0.523 -0.572,1.043 -0.861,1.562c-0.242,0.433 -0.486,0.864 -0.731,1.294c-1.767,3.079 -3.54,5.837 -5.567,8.662c-0.12,0.17 -0.239,0.341 -0.357,0.512c-10.922,16.089 -12.354,39.361 -15.663,57.689c-0.198,1.092 -0.397,2.184 -0.596,3.276c-1.298,7.051 -2.684,14.055 -4.141,21.067c-0.041,0.205 -0.041,0.205 -0.079,0.41c-1.747,10.034 4.467,20.774 11.105,27.68c4.526,4.709 10.94,9.753 17.975,7.676l0.159,-0.042c1.57,-0.37 3.222,-0.132 4.741,0.354c-1.026,-4.334 -1.951,-8.897 -2.511,-13.242l-0.033,-0.26c-0.027,-0.354 -0.013,-0.712 0.094,-1.054c-5.572,-3.961 -8.204,-11.372 -10.077,-17.616l-7.027,4.362c-2.5,1.471 -4.748,-2.27 -2.373,-3.823l8.159,-5.065c-1.485,-5.933 -2.534,-11.969 -3.446,-18.014l-7.137,-0.522c-2.763,-0.274 -2.612,-4.342 0.097,-4.493c0.116,-0.001 0.116,-0.001 0.232,0.005l6.147,0.45c-0.363,-2.591 -0.712,-5.183 -1.073,-7.774c-0.105,-0.745 -0.211,-1.491 -0.321,-2.236c-0.078,-0.524 -0.161,-1.047 -0.236,-1.572c-0.023,-0.168 -0.044,-0.337 -0.065,-0.506c-0.819,-7.294 3.212,-13.811 10.99,-13.99c0.211,-0.001 0.211,-0.001 0.422,0.001c5.397,0.134 8.918,3.327 11.372,7.873l4.958,-3.078c0.346,-0.203 0.715,-0.315 1.115,-0.337c0.107,-0.001 0.107,-0.001 0.214,0.003c2.094,0.183 2.793,3.013 1.045,4.157l-5.425,3.368c1.492,3.704 2.512,7.588 3.503,11.456c0.796,3.107 1.324,6.278 1.85,9.442l7.089,0.261c0.786,0.371 1.699,0.801 2.068,1.588c0.683,1.458 -0.998,2.923 -2.234,2.909l-6.263,-0.231c0.807,6.154 1.304,12.369 1.278,18.577c1.359,0.113 2.741,0.228 4.043,0.637c2.027,0.638 4.243,1.119 5.873,2.482c2.03,1.697 -0.286,4.313 -2.142,3.825l-7.92,-2.3c-0.195,3.095 -0.438,6.555 -1.929,9.344c0.468,0.436 0.618,0.806 0.75,1.349c0.246,1.257 0.489,2.515 0.729,3.773c0.687,3.615 1.352,7.235 1.987,10.861Zm66.25,-11.293c2.558,-1.525 5.465,-2.643 8.43,-1.809c0.101,0.027 0.204,0.052 0.307,0.075c5.381,1.122 11.127,-3.674 14.519,-6.879c9.876,-9.331 17.804,-23.321 15.618,-37.411c-0.168,-1.058 -0.335,-2.117 -0.501,-3.176c-2.207,-14.254 -3.554,-25.175 -5.468,-39.772c-0.229,-1.728 -0.458,-3.456 -0.691,-5.183c-2.209,-16.28 -3.729,-35.126 -12.645,-49.452c-0.213,-0.348 -0.213,-0.347 -0.424,-0.697c-2.15,-3.617 -4.156,-7.738 -5.9,-11.58c-0.101,0.237 -0.203,0.473 -0.308,0.708c-1.677,3.728 -3.386,6.233 -6.22,8.661c-0.14,0.123 -0.139,0.123 -0.277,0.246c-7.939,7.264 -11.845,19.069 -14.962,28.813c-8.166,25.526 -10.62,36.995 -16.87,63.031c-0.087,0.366 -0.173,0.731 -0.258,1.097c-2.898,12.622 -5.156,27.143 -2.128,40.005c0.81,3.442 3.085,7.44 7.449,7.023c0.112,-0.008 0.112,-0.008 0.224,-0.013c3.024,-0.08 5.601,2.349 7.524,4.391c1.072,-6.77 2.267,-13.522 3.568,-20.252c-1.83,-3.119 -2.053,-7.181 -2.261,-10.702l-8.969,2.604c-2.81,0.737 -3.955,-3.46 -1.255,-4.321l10.082,-2.928c-0.04,-6.936 0.52,-13.879 1.432,-20.752l-7.148,0.263c-2.91,0.029 -2.995,-4.316 -0.166,-4.497l7.975,-0.293c1.252,-7.84 2.948,-15.816 5.95,-23.199l-6.124,-3.802c-1.782,-1.168 -1.015,-4.016 1.09,-4.159c0.112,-0.002 0.111,-0.002 0.224,0.001c0.407,0.034 0.689,0.118 1.059,0.335l5.653,3.509c2.649,-4.985 6.443,-8.563 12.372,-8.71c0.225,-0.002 0.224,-0.002 0.449,-0.001c8.669,0.161 12.841,7.58 11.749,15.62c-0.105,0.731 -0.221,1.461 -0.328,2.193c-0.096,0.66 -0.19,1.321 -0.283,1.982c-0.37,2.658 -0.729,5.316 -1.099,7.974c-0.038,0.274 -0.077,0.547 -0.116,0.821l7.034,-0.515c0.12,-0.005 0.119,-0.005 0.239,-0.004c2.742,0.165 2.792,4.222 0.089,4.492l-8.026,0.588c-1.004,6.686 -2.181,13.475 -3.833,20.04c1.434,0.557 2.889,1.121 4.177,1.962c2.023,1.323 4.264,2.541 5.696,4.489c1.799,2.447 -1.857,3.778 -3.143,3.023l-7.967,-4.945c-2.033,6.844 -4.849,15 -10.963,19.41c-0.045,0.356 -0.091,0.712 -0.139,1.067c-0.959,6.957 -2.601,13.861 -4.437,20.629Zm-81.096,-64.15c-1.6,-3.044 -3.38,-5.364 -7.069,-5.513c-0.131,-0.004 -0.263,-0.005 -0.394,-0.004c-4.884,0.112 -6.628,4.271 -6.065,8.672c0.096,0.703 0.21,1.403 0.313,2.105c0.088,0.611 0.175,1.222 0.262,1.833c0.337,2.424 0.665,4.849 1.002,7.274c0.073,0.522 0.147,1.045 0.222,1.567l3.787,0.278c0,0 2.039,1.216 2.085,2.234c0.058,1.268 -1.245,2.309 -2.414,2.254l-2.784,-0.204c0.767,4.983 1.643,9.955 2.802,14.863l0.179,-0.111c0.345,-0.203 0.714,-0.315 1.114,-0.337c0.108,-0.001 0.107,-0.001 0.214,0.004c2.163,0.188 2.782,3.02 1.045,4.157l-1.373,0.852c1.581,5.582 5.442,19.229 13.915,17.35l0.034,-0.008c0.798,-1.282 0.89,-2.894 1.151,-4.382c0.242,-1.384 0.297,-2.796 0.352,-4.2l-1.628,-0.473c-2.296,-0.73 -1.933,-4.17 0.466,-4.405c0.113,-0.005 0.113,-0.005 0.227,-0.005c0.25,0.014 0.34,0.03 0.562,0.089l0.445,0.129c-0.061,-5.748 -0.564,-11.615 -1.343,-17.31l-3.734,-0.138c-2.739,-0.171 -2.771,-4.244 -0.066,-4.493c0.116,-0.005 0.115,-0.005 0.232,-0.004l2.881,0.106c-1.023,-6.103 -2.36,-12.236 -4.576,-18.029l-3.065,1.903c-2.446,1.438 -4.801,-2.236 -2.373,-3.824l3.594,-2.23Zm97.266,-5.712c0.09,-0.629 0.179,-1.258 0.268,-1.888c0.369,-2.658 0.729,-5.317 1.099,-7.975c0.196,-1.392 0.41,-2.781 0.61,-4.173c0.026,-0.192 0.05,-0.384 0.072,-0.577c0.517,-4.958 -1.634,-9.21 -6.863,-9.35c-0.123,-0.002 -0.247,-0.002 -0.37,-0.001c-4.292,0.107 -6.371,2.826 -8.197,6.355c0.833,0.322 1.69,0.654 2.396,1.201c1.031,0.801 2.307,1.562 2.747,2.791c0.78,2.179 -2.084,3.159 -3.384,2.397l-3.605,-2.238c-2.529,6.519 -4.028,13.451 -5.17,20.332l3.45,-0.127c0.121,-0.001 0.121,-0.001 0.243,0.004c2.704,0.268 2.688,4.316 -0.078,4.493l-4.301,0.158c-0.883,6.407 -1.45,13.024 -1.501,19.487l0.792,-0.23c0.203,-0.054 0.254,-0.063 0.463,-0.084c0.118,-0.005 0.118,-0.005 0.235,-0.005c2.441,0.142 2.985,3.636 0.557,4.41l-1.973,0.573c0.118,2.744 0.029,7.206 1.72,9.735c0.014,0.02 0.014,0.019 0.027,0.038c0,0 0.264,0.064 0.396,0.09c9.365,1.791 13.58,-13.208 15.323,-19.399l-1.665,-1.034c-1.782,-1.168 -1.015,-4.017 1.09,-4.16c0.112,-0.002 0.112,-0.002 0.224,0.002c0.427,0.035 0.706,0.128 1.059,0.335l0.474,0.294c1.329,-5.576 2.321,-11.229 3.188,-16.893l-3.348,0.245c-2.906,0.135 -3.142,-4.206 -0.329,-4.488l4.351,-0.318Z"/></svg>