<svg xmlns="http://www.w3.org/2000/svg" fill-rule="evenodd" stroke-linejoin="round" stroke-miterlimit="1.414" clip-rule="evenodd" viewBox="0 0 256 256"><rect width="256" height="256" fill="none"/><path d="M88.422,79.322c-0.065,-1.915 -0.132,-3.858 0.198,-5.745c1.177,-6.748 2.813,-11.317 6.907,-16.877c7.72,-10.486 20.452,-17.786 33.623,-17.922c0.147,0 0.293,-0.001 0.44,0c17.642,0.171 36.033,13.486 39.999,31.061c2.827,-0.826 5.717,-1.238 8.645,-1.308c0.32,-0.006 0.64,-0.008 0.96,-0.007c15.161,0.152 32.282,9.883 38.025,24.427c7.33,18.565 1.768,43.798 -17.383,52.814c23.903,30.338 -9.884,76.84 -46.438,63.601c-8.839,-3.202 -16.243,-9.794 -21.543,-17.389c-9.669,23.417 -39.938,32.987 -61.372,18.109c-16.452,-11.419 -23.236,-37.357 -11.824,-54.478c-18.144,-8.294 -27.594,-32.704 -21.171,-51.364c3.786,-10.999 13.717,-19.968 24.274,-24.369c4.094,-1.706 8.532,-2.868 12.966,-2.992c0.322,-0.007 0.645,-0.01 0.967,-0.009c4.361,0.045 8.604,1.1 12.727,2.448m33.65,60.057c-15.819,13.702 -37.305,23.791 -58.544,17.993c-0.05,0.069 -0.101,0.137 -0.151,0.206c-2.525,3.519 -3.981,7.662 -4.692,11.899c-1.832,10.918 1.127,23.723 8.922,31.852c15.544,16.207 47.431,14.163 57.512,-6.832c3.691,-7.689 5.788,-14.354 6.039,-22.945c0.326,-11.113 -1.201,-21.289 -4.586,-31.867c-1.267,9.384 -6.255,14.602 -12.662,21.464c-1.867,1.999 -5.731,5.699 -8.739,6.131c-2.739,0.394 -3.497,-2.839 -1.742,-4.075c0.324,-0.211 0.647,-0.424 0.97,-0.637c8.523,-5.69 16.158,-12.618 17.673,-23.189m11.846,46.606c0.124,0.202 0.247,0.405 0.372,0.607c0.137,0.22 0.276,0.439 0.415,0.658c4.476,6.946 8.516,11.082 15.363,15.705c6.452,4.357 16.674,4.351 23.697,2.944c5.851,-1.172 12.209,-3.737 16.821,-7.787c17.247,-15.145 15.388,-46.701 -4.969,-57.877c-6.398,-3.512 -12.594,-5.657 -19.859,-6.523c-8.789,-1.049 -17.258,-0.636 -25.952,0.923c9.409,2.766 17.337,10.615 21.925,19.061c1.295,2.384 -2.1,4.652 -3.763,2.464c-0.286,-0.406 -0.574,-0.81 -0.863,-1.213c-6.228,-8.624 -13.42,-16.246 -24.632,-17.026c-0.317,0.245 -0.653,0.464 -1.006,0.655c0.016,0.05 0.031,0.099 0.047,0.149c4.695,15.007 6.717,31.889 2.404,47.26m-44.993,-101.201c-0.203,-0.074 -0.407,-0.147 -0.61,-0.22c-5.148,-1.81 -10.943,-3.492 -16.514,-2.438c-16.622,3.144 -31.316,18.482 -31.853,35.771c-0.557,17.896 15.541,35.545 33.498,36.054c7.793,0.221 14.059,-0.64 21.348,-3.503c8.29,-3.257 15.489,-7.762 22.329,-13.43c-8.033,1.515 -15.257,-0.072 -22.594,-3.314c-3.382,-1.495 -6.659,-3.342 -9.543,-5.656c-1.759,-1.412 -0.159,-3.773 1.485,-3.883c0.059,0 0.118,0.001 0.177,0.002c0.422,0.038 0.795,0.164 1.157,0.391c0.316,0.217 0.633,0.432 0.952,0.646c9.873,6.566 20.311,9.874 31.77,6.324c0.026,-0.381 0.081,-0.759 0.165,-1.132c-0.026,-0.017 -0.052,-0.034 -0.078,-0.051c-0.379,-0.277 -0.757,-0.556 -1.134,-0.837c-14.546,-10.917 -27.777,-26.189 -30.555,-44.724m107.357,57.158c0.326,-0.242 0.716,-0.378 1.083,-0.543c0.188,-0.086 0.375,-0.174 0.562,-0.263c3.969,-1.936 7.274,-5.015 9.926,-8.495c6.857,-9.001 10.46,-22.213 6.881,-33.241c-6.735,-20.755 -34.933,-33.397 -53.314,-20.266c-6.999,5 -11.787,9.586 -16.216,17.03c-5.331,8.96 -8.79,18.253 -10.938,28.436c5.783,-4.37 12.538,-6.777 19.764,-6.939c0.325,-0.005 0.651,-0.007 0.976,-0.006c4.733,0.043 10.921,-0.231 15.291,2.276c2.75,1.577 0.514,4.6 -1.568,4.182c-0.397,-0.096 -0.794,-0.19 -1.191,-0.283c-11.953,-2.738 -22.841,-2.244 -32.519,5.929c0.072,0.226 0.134,0.455 0.185,0.687c6.81,-1.46 13.775,-2.296 20.742,-2.332c0.174,0 0.348,0 0.522,0c14.387,0.059 28.964,3.853 39.814,13.828m-65.613,-7.83c1.687,-2.203 0.074,-5.46 -2.682,-5.51c-0.045,-0.001 -0.045,-0.001 -0.09,0c-3.06,0.056 -4.514,4.012 -2.198,6.025c0.173,0.095 0.332,0.211 0.474,0.346c1.391,0.845 3.235,0.56 4.321,-0.649c0.054,-0.074 0.112,-0.145 0.175,-0.212m34.186,-62.494c-0.786,-3.926 -2.594,-7.676 -4.83,-10.997c-5.771,-8.567 -15.748,-15.692 -26.183,-16.839c-14.848,-1.631 -32.915,8.93 -38.72,22.816c-4.738,11.334 -0.538,26.231 5.775,36.057c6.103,9.498 13.079,16.559 22.126,23.257l0.27,0.198l0.084,0.061c0.026,-0.02 0.052,-0.04 0.078,-0.06c-5.69,-9.382 -5.602,-18.697 -3.251,-29.072c0.401,-1.767 1.681,-8.999 4.886,-9.137c0.059,0.002 0.118,0.004 0.176,0.006c1.513,0.173 2.423,1.701 1.914,3.097c-0.154,0.377 -0.307,0.754 -0.459,1.131c-4.651,11.717 -5.767,21.582 1.094,32.467c0.074,-0.001 0.148,-0.002 0.222,-0.001c0.384,0.007 0.737,0.036 1.104,0.096c4.242,-21.138 15.029,-43.807 35.714,-53.08"/></svg>