<svg xmlns="http://www.w3.org/2000/svg" fill-rule="evenodd" stroke-linejoin="round" stroke-miterlimit="1.414" clip-rule="evenodd" viewBox="0 0 256 256"><rect width="256" height="256" fill="none"/><path d="M123.954,67.194c-0.341,-8.595 -1.993,-17.066 -3.529,-25.505c-0.149,-0.824 -0.296,-1.647 -0.439,-2.472c-0.523,-3.049 -2.811,-12.209 2.715,-12.268c0.063,0.003 0.125,0.005 0.187,0.008c4.378,0.419 8.756,7.223 10.313,10.288c6.047,11.907 8.039,18.15 10.493,31.268c2.33,-0.999 5.511,-2.222 8.232,-2.341c0.157,-0.005 0.313,-0.007 0.469,-0.005c5.326,0.126 9.486,4.534 13.262,7.788c0.342,0.292 0.684,0.583 1.029,0.872c6.905,5.742 12.291,5.497 21.508,5.454c0.309,0 0.618,0 0.927,0.001c4.611,0.036 9.648,0.368 13.224,3.659c0.946,0.882 1.89,1.766 2.833,2.651c3.254,3.059 6.502,6.126 9.747,9.194c0.905,0.759 1.88,1.577 2.329,2.669c0.627,1.524 -0.89,3.038 -2.224,3.202c-0.76,0.053 -1.52,0.099 -2.279,0.146c-6.733,0.419 -16.833,0.234 -22.368,5.251c0.754,1.094 1.087,2.387 1.032,3.72c-0.029,0.515 -0.069,1.03 -0.105,1.545c-1.574,21.327 -9.538,40.987 -17.691,60.536c-5.548,13.303 -13.242,29.644 -22.137,41.149c-11.525,14.906 -34.978,21.395 -48.515,5.497c-7.111,-8.35 -9.762,-14.229 -15.064,-23.732c-0.433,-0.771 -0.865,-1.542 -1.299,-2.312c-2.78,-4.913 -5.66,-9.678 -8.679,-14.427c-0.167,-0.266 -0.333,-0.532 -0.499,-0.798c-13.521,-21.909 -20.495,-48.816 -21.118,-74.499c-4.389,-0.586 -8.82,-0.67 -13.238,-0.843c-0.295,-0.013 -0.591,-0.026 -0.886,-0.04c-0.342,-0.017 -0.683,-0.036 -1.025,-0.058l-0.187,-0.013c-2.113,-0.269 -3.013,-2.751 -1.546,-4.31c2.642,-2.5 5.285,-4.998 7.931,-7.494c2.123,-2 4.233,-4.015 6.382,-5.989c0.087,-0.079 0.175,-0.157 0.265,-0.233c4.759,-4.024 11.728,-3.347 17.539,-3.322c0.312,0 0.624,0 0.936,-0.001c10.547,-0.079 16.08,-4.266 24.697,-10.185c0.38,-0.26 0.759,-0.519 1.14,-0.777c4.278,-2.888 9.64,-6.953 15.097,-7.074c0.134,-0.001 0.133,-0.001 0.267,0c3.579,0.092 7.376,1.893 10.274,3.8m-55.831,41.897c-1.759,-1.83 -4.299,-2.689 -6.72,-3.069c0.001,0.019 0.002,0.038 0.003,0.057c1.412,25.386 8.369,50.842 22.079,72.365c0.277,0.438 0.554,0.877 0.829,1.316c4.103,6.59 7.834,13.381 11.623,20.157c0.384,0.684 0.769,1.367 1.156,2.049c8.043,14.114 20.713,28.896 38.455,19.139c2.236,-1.23 4.407,-2.673 6.207,-4.482c3.79,-3.808 7.349,-7.883 10.459,-12.264c6.506,-9.167 13.43,-25.68 17.425,-34.911c8.212,-18.976 15.306,-37.552 16.749,-58.418c0.008,-0.129 0.02,-0.262 0.028,-0.394c-1.102,-0.092 -1.979,-0.884 -2.226,-1.9c-4.576,-1.38 -10.809,-0.601 -15.372,0.129c-16.173,2.587 -35.75,6.776 -46.789,20.167l-0.249,0.26c-0.102,0.081 -0.309,0.24 -0.309,0.24c-0.048,0.048 -0.091,0.084 -0.169,0.154c-0.195,0.162 -0.389,0.324 -0.583,0.487c-12.402,10.537 -17.159,24.6 -18.782,40.477l-0.028,0.189c-0.649,2.783 -4.608,2.028 -4.449,-0.647c0.047,-0.456 0.095,-0.911 0.145,-1.367c1.729,-15.362 6.483,-29.431 17.932,-40.073c-14.363,-4.104 -31.279,-8.86 -44.722,-16.233c-1.274,-0.698 -2.22,-2.054 -2.692,-3.428m55.788,-35.542c-2.695,-2.62 -6.206,-4.336 -9.877,-5.111c-0.067,-0.013 -0.133,-0.023 -0.2,-0.03c-5.823,-0.55 -14.381,7.352 -18.342,10.07c-0.559,0.381 -1.119,0.761 -1.68,1.139c-8.807,5.889 -15.356,6.836 -26.021,6.787c-0.295,-0.001 -0.59,-0.001 -0.886,0c-3.164,0.024 -7.209,-0.009 -9.751,2.236c-0.206,0.185 -1.678,1.564 -1.868,1.742c-2.713,2.545 -5.419,5.098 -8.123,7.652c0.43,0.017 0.861,0.035 1.292,0.053c7.222,0.329 19.987,0.465 23.932,8.282c0.522,0.638 1.453,2.157 1.498,2.198c6.452,5.648 20.864,8.669 27.93,10.875c1.272,-12.939 -14.129,-22.11 -24.951,-23.628l-0.152,-0.027c-2.484,-0.613 -2.178,-4.368 0.471,-4.451c0.051,0.001 0.102,0.003 0.153,0.005c0,0 0.521,0.069 0.781,0.108c13.299,2.09 30.672,13.871 28.06,29.336c2.562,0.778 5.13,1.539 7.701,2.286c1.621,-12.866 -2.81,-27.34 -13.529,-35.168l-0.142,-0.113c-1.484,-1.388 -0.576,-3.846 1.438,-3.954c0.061,0.001 0.121,0.003 0.182,0.005c0.434,0.046 0.814,0.184 1.176,0.428c0.168,0.122 0.334,0.245 0.5,0.369c5.334,4.045 9.135,9.347 11.715,15.478c1.265,3.008 1.991,6.224 2.709,9.406c0.791,-4.991 1.848,-9.969 2.827,-14.926c0.121,-0.617 0.242,-1.235 0.362,-1.853c1.192,-6.213 2.414,-12.788 2.795,-19.194m17.308,37.799c1.786,-18.617 -1.06,-36.48 -5.425,-54.642c-1.862,-7.747 -5.833,-17.356 -11.587,-23.158c0.015,0.152 0.032,0.303 0.049,0.455c0.236,1.998 0.586,3.979 0.938,5.959c0.379,2.101 0.768,4.199 1.147,6.299c1.459,8.174 2.889,17.281 2.644,25.704c0.195,0.579 0.166,1.23 -0.077,1.79c-0.427,7.287 -1.864,14.742 -3.248,21.806c-0.474,2.403 -0.957,4.805 -1.43,7.208c-1.182,6.075 -2.877,12.876 -2.052,19.13c5.613,-4.639 12.322,-7.864 19.041,-10.551m45.011,-7.205c5.278,-5.799 15.311,-6.511 22.483,-7.078l0.265,-0.02c-3.337,-3.152 -6.674,-6.305 -10.031,-9.436c-0.081,-0.074 -0.163,-0.147 -0.247,-0.218c-3.634,-3.002 -9.901,-2.101 -14.23,-2.083c-0.325,0.001 -0.65,0.001 -0.975,0c-10.308,-0.077 -15.646,-2.873 -23.508,-9.649c-0.329,-0.281 -0.659,-0.561 -0.991,-0.84c-5.004,-4.154 -8.627,-3.958 -14.43,-1.213c1.244,7.984 1.975,16.136 2.113,24.188c2.578,-5.133 6.3,-9.638 10.928,-13.024l0.124,-0.085c0.359,-0.211 0.723,-0.322 1.137,-0.348c0.05,0 0.1,0 0.15,0c2.049,0.144 2.927,2.746 1.246,4.064c-0.202,0.148 -0.201,0.148 -0.402,0.297c-6.542,4.95 -10.647,12.384 -12.397,20.349c3.739,-1.267 7.654,-2.401 11.526,-3.329c5.664,-7.712 14.752,-12.539 24.13,-13.86l0.144,-0.016c0,0 0.192,-0.005 0.288,-0.003c2.577,0.218 2.76,4.029 0.196,4.475c-0.235,0.033 -0.47,0.067 -0.705,0.104c-6.108,0.989 -11.962,3.621 -16.593,7.764c6.166,-1.05 13.646,-2.191 19.779,-0.039"/></svg>