<svg xmlns="http://www.w3.org/2000/svg" fill-rule="evenodd" stroke-linejoin="round" stroke-miterlimit="1.414" clip-rule="evenodd" viewBox="0 0 256 256"><rect width="256" height="256" fill="none"/><path d="M104.147,126.561c9.112,-21.924 19.926,-48.106 19.546,-72.599l-0.001,-0.065c0.046,-1.467 1.165,-2.534 2.599,-2.555c0.091,0.009 0.181,0.017 0.271,0.026c0.738,0.152 1.331,0.545 1.76,1.164c0.167,0.273 0.332,0.548 0.496,0.824c11.124,18.791 19.575,39.925 23.699,61.382c12.853,-14.215 28.43,-26.315 47.25,-31.031c0.513,-0.13 1.025,-0.264 1.539,-0.39c0.504,-0.12 0.718,-0.167 1.18,-0.176c0.068,0.003 0.137,0.006 0.206,0.009c0.227,0.03 0.226,0.037 0.45,0.082c0,0 0.317,0.11 0.471,0.177c0,0 0.306,0.181 0.451,0.284c0,0 0.2,0.178 0.294,0.272c0,0 0.214,0.273 0.31,0.416c0,0 0.14,0.275 0.199,0.416c0,0 0.091,0.31 0.124,0.468c0,0 0.029,0.302 0.033,0.454l0,0.005c-0.017,0.252 -0.017,0.252 -0.06,0.502l-0.003,0.011c-0.267,0.947 -0.787,1.404 -1.593,1.987c-0.36,0.258 -0.721,0.516 -1.079,0.777c-18.269,13.403 -28.838,36.312 -35.769,57.138c14.73,-9.149 32.008,-16.776 49.656,-16.892c0.172,-0.001 0.345,-0.001 0.517,0c3.556,0.026 6.778,0.426 10.196,1.086c0.385,0.072 0.771,0.144 1.156,0.219c0.629,0.13 0.804,0.184 1.287,0.464c0,0 0.177,0.126 0.262,0.193c0,0 0.231,0.223 0.338,0.342c0,0 0.276,0.417 0.381,0.642c0,0 0.171,0.626 0.187,0.948l0,0.006c-0.019,0.404 -0.037,0.506 -0.164,0.89l-0.003,0.007c-0.136,0.311 -0.113,0.289 -0.362,0.645l-0.005,0.006c-0.161,0.186 -0.161,0.186 -0.338,0.356l-0.008,0.006c-0.465,0.375 -0.903,0.537 -1.51,0.664c-0.45,0.087 -0.901,0.17 -1.35,0.259c-20.111,4.099 -35.676,20.285 -48.61,35.151c-0.529,0.604 -1.058,1.207 -1.59,1.808c-1.634,1.84 -3.298,3.655 -5.027,5.406c0.629,-0.033 1.257,-0.066 1.885,-0.101c0.42,-0.025 0.841,-0.05 1.261,-0.078c12.736,-0.883 26.692,-3.702 36.332,-12.676l0.07,-0.064c0.259,-0.22 0.343,-0.278 0.674,-0.443l0.006,-0.003c0.153,-0.064 0.153,-0.064 0.309,-0.118l0.005,-0.001c0.3,-0.077 0.272,-0.081 0.666,-0.109c0.076,-0.002 0.152,0.003 0.228,0.004c0.396,0.043 0.495,0.067 0.865,0.214c0,0 0.754,0.494 1.025,0.844c0,0 0.31,0.579 0.397,0.893c0,0 0.057,0.398 0.061,0.599l0,0.006c-0.01,0.177 -0.01,0.177 -0.032,0.353l-0.001,0.008c-0.066,0.345 -0.106,0.463 -0.254,0.785c-0.154,0.319 -0.321,0.632 -0.481,0.948c-0.17,0.34 -0.336,0.682 -0.507,1.022c-0.114,0.223 -0.23,0.446 -0.348,0.667c-10.039,18.52 -32.659,26.254 -51.872,30.333c-4.936,1.048 -16.815,3.974 -21.246,-1.607c-7.092,4.48 -15.628,4.305 -23.368,1.556l-0.134,-0.05c-1.351,-0.544 -2.435,-1.525 -3.155,-2.784c-5.042,4.994 -16.063,2.603 -21.512,1.584c-20.083,-3.753 -43.208,-11.792 -52.728,-31.583c-0.042,-0.09 -0.041,-0.089 -0.082,-0.18c-0.115,-0.277 -0.111,-0.274 -0.191,-0.587l-0.005,-0.023c-0.026,-0.145 -0.026,-0.145 -0.043,-0.291l-0.001,-0.008c-0.009,-0.165 -0.009,-0.165 -0.007,-0.33l0.001,-0.008c0.019,-0.243 0.011,-0.222 0.08,-0.526l0.002,-0.006c0.12,-0.383 0.116,-0.354 0.263,-0.632l0.003,-0.004c0.225,-0.345 0.295,-0.424 0.606,-0.694l0.004,-0.003c0.358,-0.254 0.458,-0.305 0.875,-0.444l0.005,-0.001c0.303,-0.07 0.275,-0.074 0.672,-0.092c0.062,0 0.125,0.004 0.188,0.006c0.181,0.02 0.181,0.02 0.36,0.053c0,0 0.952,0.398 1.335,0.731c0.247,0.219 0.492,0.442 0.739,0.661c10.779,9.392 26.39,11.461 40.124,12.321c-3.623,-3.651 -6.811,-7.435 -10.234,-11.364c-0.434,-0.496 -0.87,-0.992 -1.308,-1.484c-12.123,-13.55 -27.098,-26.17 -45.288,-29.942c-0.118,-0.026 -0.118,-0.026 -0.235,-0.055c-0.458,-0.125 -0.527,-0.168 -0.875,-0.37l-0.01,-0.006c-0.131,-0.092 -0.131,-0.092 -0.256,-0.191l-0.008,-0.006c-0.228,-0.207 -0.209,-0.195 -0.363,-0.38l-0.005,-0.007c-0.191,-0.272 -0.184,-0.243 -0.356,-0.631l-0.002,-0.006c-0.134,-0.404 -0.153,-0.511 -0.166,-0.936l0,-0.006c0.025,-0.414 0.047,-0.518 0.186,-0.909l0.002,-0.006c0.178,-0.382 0.171,-0.352 0.365,-0.619l0.005,-0.007c0.164,-0.184 0.163,-0.184 0.344,-0.351l0.008,-0.006c0.858,-0.675 2.052,-0.747 3.083,-0.946c0.365,-0.073 0.729,-0.146 1.094,-0.215c2.776,-0.508 5.355,-0.744 8.185,-0.792c0.386,-0.005 0.771,-0.006 1.157,-0.005c15.181,0.128 30.028,5.898 43.146,13.14c-6.301,-17.755 -15.572,-35.847 -31.121,-47.172c-0.104,-0.078 -0.103,-0.078 -0.207,-0.157c-0.399,-0.319 -0.703,-0.66 -0.931,-1.12l-0.005,-0.011c-0.09,-0.227 -0.09,-0.227 -0.157,-0.463l-0.002,-0.009c-0.061,-0.334 -0.068,-0.304 -0.06,-0.738l0.001,-0.008c0.048,-0.415 0.051,-0.385 0.149,-0.697l0.002,-0.003c0.098,-0.231 0.098,-0.23 0.219,-0.45l0.002,-0.003c0.224,-0.327 0.212,-0.301 0.431,-0.522l0.006,-0.006c0.249,-0.209 0.221,-0.2 0.585,-0.402l0.008,-0.004c0.225,-0.098 0.225,-0.098 0.458,-0.173l0.012,-0.004c0.275,-0.064 0.371,-0.078 0.657,-0.09c0.052,0.001 0.105,0.002 0.157,0.003c0.375,0.026 0.567,0.069 0.951,0.16c0.681,0.169 1.36,0.348 2.041,0.516c0.208,0.05 0.417,0.102 0.625,0.153c0.367,0.093 0.367,0.093 0.733,0.188c19.179,5.159 34.634,19.919 46.517,35.186m13.591,67.855c0.112,0.671 0.369,1.937 1.142,2.248c0.235,0.088 0.474,0.168 0.711,0.248c26.577,8.855 34.553,-26.433 39.723,-44.389c0.201,-0.696 0.404,-1.391 0.609,-2.086c6.333,-21.255 15.824,-42.829 31.649,-58.763l0.2,-0.2l0.049,-0.049c-0.006,0.003 -0.012,0.005 -0.018,0.007c-30.639,12.427 -50.33,42.497 -64.866,70.705c-4.509,8.75 -9.36,19.971 -9.358,30.125c0.368,0.642 0.441,1.427 0.159,2.154m26.82,2.326l0.005,0.022c0.047,0.032 0.097,0.061 0.147,0.088c4.669,2.488 12.011,0.607 16.518,-0.4c15.079,-3.37 30.574,-8.684 41.893,-19.707l0.101,-0.099c-0.274,0.127 -0.55,0.25 -0.826,0.373c-0.281,0.123 -0.562,0.244 -0.844,0.364c-8.8,3.697 -18.387,5.293 -27.848,5.853c-1.42,0.078 -2.839,0.149 -4.258,0.228c-5.36,0.314 -11.557,0.729 -16.608,2.992l-0.244,0.094c-0.153,0.042 -0.227,0.066 -0.333,0.085c-2.083,3.69 -4.585,7.218 -7.703,10.107m-44.965,-10.971c-0.22,-0.065 -0.438,-0.14 -0.657,-0.207c-0.251,-0.076 -0.502,-0.149 -0.755,-0.219c-5.352,-1.461 -11.474,-1.702 -16.901,-2.061c-0.489,-0.034 -0.978,-0.069 -1.467,-0.106c-9.803,-0.792 -19.721,-2.745 -28.682,-6.928c1.993,1.811 3.999,3.633 6.229,5.143c3.038,2.057 6.173,4.024 9.523,5.522c11.194,5.009 21.867,8.087 33.94,9.154c2.296,0.203 7.428,0.487 9.504,-1.018l0.009,-0.007l0.012,-0.059l0.077,-0.25l0.005,-0.011c-4.447,-1.801 -8.038,-5.132 -10.837,-8.953m21.085,-22.003c-0.128,-0.29 -0.256,-0.579 -0.386,-0.869c-11.327,-25.193 -30.384,-52.555 -56.398,-64.036c0,0 0.412,0.515 0.637,0.756c0.255,0.275 0.508,0.551 0.76,0.829c14.294,15.893 21.671,36.14 27.45,56.311c0.25,0.867 0.502,1.734 0.757,2.599c3.046,10.273 7.594,26.527 19.162,30.87c0.687,-9.15 4.322,-18.184 8.018,-26.46m42.981,15.118l0.079,-0.068c5.243,-4.554 9.292,-9.436 14.074,-14.928c0.382,-0.436 0.765,-0.873 1.15,-1.307c10.162,-11.422 22.23,-22.014 36.397,-28.164l0.227,-0.097l0.168,-0.071c-0.325,0.003 -0.65,0.012 -0.974,0.021c-17.851,0.607 -35.121,9.038 -49.71,18.747l-0.427,0.287l-0.429,0.289l-0.008,0.005c-0.678,2.344 -1.337,4.693 -2.012,7.037c-0.23,0.797 -0.462,1.593 -0.696,2.388c-1.734,5.846 -3.618,11.674 -6.08,17.26c2.675,-0.702 5.548,-1.129 8.241,-1.399m-78.216,-29.356c-0.238,-0.144 -0.477,-0.287 -0.716,-0.431c-13.322,-7.918 -28.653,-14.583 -44.406,-14.848c0,0 0.516,0.253 0.78,0.369c0.314,0.139 0.627,0.281 0.94,0.423c14.078,6.506 25.969,17.222 36.098,28.791c1.12,1.285 2.233,2.576 3.351,3.863c3.695,4.235 6.922,7.806 10.974,11.295l0.215,0.211c1.061,0.138 2.133,0.301 3.186,0.496c-4.336,-8.333 -6.778,-17.547 -9.346,-26.524c-0.219,-0.76 -0.44,-1.52 -0.663,-2.28c-0.136,-0.456 -0.273,-0.911 -0.413,-1.365m62.858,-29.943l-0.09,-0.547c-3.327,-19.741 -10.679,-38.905 -20.022,-56.558l-0.076,-0.143c-0.05,0.428 -0.105,0.855 -0.16,1.282c-0.058,0.445 -0.118,0.889 -0.18,1.333c-3.266,22.889 -11.16,45.045 -20.149,66.243c6.055,8.377 11.399,17.308 15.839,26.645c6.72,-13.634 15.084,-26.593 24.838,-38.255"/></svg>
