<svg xmlns="http://www.w3.org/2000/svg" fill-rule="evenodd" stroke-linejoin="round" stroke-miterlimit="1.414" clip-rule="evenodd" viewBox="0 0 256 256"><rect width="256" height="256" fill="none"/><path d="M148.213,144.438c-0.281,-0.39 -0.306,-0.539 -0.41,-0.905c-0.291,-1.266 -0.58,-2.532 -0.867,-3.799c-4.857,-21.551 -9.419,-43.655 -11.626,-65.723l-0.008,-0.1c-0.026,-0.481 -0.003,-0.577 0.087,-0.984l0.006,-0.02c0.051,-0.164 0.05,-0.164 0.113,-0.325l0.007,-0.016c0.113,-0.242 0.149,-0.307 0.297,-0.516l0.004,-0.006c0.091,-0.116 0.091,-0.115 0.189,-0.225l0.004,-0.005c0.12,-0.118 0.12,-0.118 0.248,-0.229l0.005,-0.004c0.15,-0.111 0.15,-0.111 0.307,-0.212l0.005,-0.003c0.168,-0.089 0.168,-0.089 0.342,-0.166l0.006,-0.002c0.178,-0.063 0.178,-0.063 0.36,-0.112l0.006,-0.002c0.18,-0.034 0.18,-0.034 0.362,-0.056l0.006,0c0,0 0.212,-0.007 0.318,-0.005l0.007,0l0.151,0.012l0.15,0.021c0,0 0.245,0.055 0.365,0.09c0,0 0.249,0.096 0.37,0.152c4.034,5.316 5.349,9.188 7.967,16.136c6.629,17.593 11.839,32.339 15.633,50.804l0.046,0.224c8.093,11.963 16.464,23.218 26.322,33.712c0.595,0.635 1.188,1.271 1.78,1.908c5.467,5.91 11.768,12.393 14.758,20.055c0,0 2.248,0.999 3.381,1.478c0.751,0.319 1.502,0.64 2.252,0.962c7.373,3.187 9.544,3.267 16.037,8.159c2.561,1.931 -0.409,4.748 -2.796,4.178c-0.175,-0.041 -0.35,-0.079 -0.525,-0.116c-10.588,-2.138 -20.896,5.018 -22.839,15.465l-0.074,0.295c-1.356,3.53 -4.546,0.831 -6.157,-0.657c-0.145,-0.133 -0.29,-0.265 -0.436,-0.396c-13.928,-12.401 -31.649,-5.663 -38.689,9.944c-0.08,0.174 -0.16,0.348 -0.245,0.519c-0.463,0.922 -1.107,1.666 -2.112,1.961l-0.013,0.003c-1.241,0.22 -2.212,-0.391 -2.87,-1.353c-0.057,-0.081 -0.116,-0.162 -0.177,-0.241c-4.387,-5.638 -14.721,-7.366 -21.438,-7.923l-0.04,-0.003l-0.313,-0.012l-0.319,-0.054c-2.434,-0.747 -2.099,-3.162 -0.747,-4.705c0.177,-0.204 0.352,-0.409 0.526,-0.615c2.367,-2.825 5.357,-7.131 7.539,-10.176l0.269,-0.374c0.016,-0.211 0.035,-0.421 0.055,-0.632c0.023,-0.229 0.048,-0.458 0.075,-0.687c0.51,-4.089 1.675,-7.683 3.034,-11.719c0.513,-1.514 1.031,-3.026 1.541,-4.541c5.325,-15.928 6.631,-31.687 7.771,-48.459m5.639,-9.985c-1.221,20.708 -2.109,40.409 -8.67,60.033c-0.563,1.677 -1.139,3.349 -1.703,5.025c-1.297,3.881 -2.574,7.861 -2.797,11.979l-0.031,0.284c-0.114,0.495 -0.165,0.616 -0.438,1.044c-0.451,0.624 -0.899,1.249 -1.347,1.874c-0.83,1.162 -1.658,2.325 -2.489,3.486c-0.294,0.409 -0.589,0.818 -0.885,1.226c-0.646,0.886 -1.299,1.766 -1.966,2.635c0.296,0.053 0.592,0.109 0.888,0.164c6.028,1.171 12.853,2.917 17.718,6.941c0.103,-0.219 0.207,-0.437 0.313,-0.654c8.467,-17.266 30.152,-21.78 44.729,-9.176l0.033,0.029c0.063,-0.173 0.128,-0.344 0.194,-0.515c0.083,-0.207 0.083,-0.207 0.168,-0.414c3.108,-7.417 9.756,-12.896 17.632,-14.524l0.042,-0.009c-4.168,-1.952 -8.418,-3.721 -12.661,-5.502l-0.28,-0.138c-0.748,-0.495 -1.014,-1.075 -1.285,-1.868c-0.031,-0.089 -0.063,-0.178 -0.095,-0.266c-3.682,-9.793 -13.345,-18.114 -20.24,-25.454c-0.394,-0.422 -0.788,-0.844 -1.181,-1.267c-9.785,-10.583 -17.714,-23.121 -25.64,-35.09c-0.003,0.053 -0.006,0.105 -0.009,0.157m-25.03,91.957l0.022,0l0.163,-0.01l0.107,-0.017c-0.097,0.009 -0.195,0.018 -0.292,0.027m45.92,-49.845c0.89,0.104 1.665,0.716 1.966,1.571c0.098,0.314 0.197,0.628 0.297,0.941c2.906,9 7.012,19.879 14.304,26.389c0,0 1.001,1.448 0.705,2.137c-0.604,1.404 -2.271,2.456 -3.581,1.32c-8.483,-7.355 -12.766,-19.053 -16.02,-29.442l-0.041,-0.152c-0.281,-1.393 0.76,-2.736 2.213,-2.771c0.052,0.003 0.104,0.005 0.157,0.007m-18.264,-12.584c1.076,0.1 1.974,0.963 2.116,2.034c0.032,0.338 0.063,0.676 0.094,1.013c0.88,10.263 1.091,22.465 -3.357,32.154l-0.022,0.046c-1.297,2.48 -5.011,0.774 -4.129,-1.782c0.079,-0.181 0.16,-0.36 0.237,-0.542c3.838,-9.386 3.633,-20.589 2.697,-30.464l-0.009,-0.168c0.021,-1.207 1.015,-2.226 2.205,-2.294c0.056,0.001 0.112,0.002 0.168,0.003m-63.357,-76.519c0.121,-0.589 0.243,-1.178 0.368,-1.767c4.748,-22.213 7.926,-27.867 15.312,-49.261c1.561,-4.521 2.823,-13.339 7.95,-16.128l0.017,-0.008c0.174,-0.081 0.174,-0.081 0.354,-0.147l0.015,-0.005c0.178,-0.051 0.177,-0.051 0.358,-0.089l0.007,-0.001c0.146,-0.021 0.146,-0.021 0.292,-0.032l0.007,-0.001c0,0 0.225,0 0.338,0.006l0.006,0l0.177,0.021l0.174,0.034c0,0 0.246,0.071 0.367,0.114c0,0 0.234,0.108 0.347,0.168c0,0 0.211,0.14 0.313,0.215c0,0 0.171,0.153 0.252,0.233c0,0 0.234,0.289 0.337,0.443c0,0 0.111,0.209 0.161,0.316c0,0 0.082,0.221 0.117,0.334c0,0 0.11,0.667 0.093,1.003c-0.047,0.554 -0.11,1.107 -0.168,1.66c-2.393,22.515 -7.09,45.036 -12.119,67.031l-0.214,0.932c-0.105,0.366 -0.129,0.515 -0.411,0.905c1.142,16.786 2.445,32.525 7.772,48.459c0.563,1.676 1.139,3.348 1.703,5.024c1.408,4.21 2.659,8.192 3.002,12.555c1.243,1.727 2.471,3.465 3.713,5.193c1.63,2.257 3.285,4.501 5.152,6.569c0,0 -0.417,4.073 -1.95,4.177c-0.131,0.011 -0.261,0.024 -0.391,0.037c-6.37,0.707 -17.547,2.266 -21.39,8.381l-0.183,0.253c-1.93,2.078 -3.99,0.323 -4.892,-1.637c-0.219,-0.484 -0.432,-0.972 -0.649,-1.458c-7.776,-17.163 -26.754,-18.865 -39.74,-6.912c-0.154,0.139 -0.153,0.138 -0.31,0.275c-0.773,0.658 -1.605,1.033 -2.603,0.919l-0.011,-0.002c-1.365,-0.317 -1.9,-1.341 -2.148,-2.548c-0.037,-0.175 -0.076,-0.349 -0.117,-0.524c-2.53,-10.343 -13.291,-16.862 -23.67,-14.153l-0.314,0.061c-5.484,0.349 -0.967,-5.093 0.604,-6.163c5.192,-3.539 12.97,-6.172 18.682,-8.572l0.406,-0.171c0.039,-0.102 0.079,-0.204 0.119,-0.306c0.098,-0.242 0.097,-0.241 0.198,-0.483c4.369,-10.111 13.538,-18.34 20.901,-26.179c0.388,-0.414 0.775,-0.83 1.161,-1.246c7.751,-8.383 14.135,-18.104 20.505,-27.525m8.246,-3.326c-8.075,12.159 -16.228,24.791 -26.265,35.517c-1.696,1.806 -3.401,3.603 -5.095,5.411c-5.439,5.817 -12.837,12.749 -15.354,20.656l-0.029,0.094c-0.267,0.701 -0.739,1.228 -1.421,1.565c-1.458,0.612 -2.915,1.223 -4.371,1.839c-2.703,1.149 -5.398,2.316 -8.061,3.556c0,0 0.164,0.19 0.279,0.214c0.232,0.053 0.232,0.053 0.463,0.108c7.783,1.925 14.205,7.649 17.029,15.15l0.036,0.097c0.204,-0.179 0.41,-0.353 0.618,-0.527c0.21,-0.175 0.421,-0.347 0.633,-0.518c14.895,-11.815 35.882,-6.113 43.823,10.846c0.135,-0.111 0.271,-0.221 0.409,-0.329c5.087,-3.94 11.984,-5.646 18.161,-6.769l0.037,-0.007c-0.175,-0.228 -0.35,-0.457 -0.524,-0.686c-0.289,-0.384 -0.576,-0.769 -0.862,-1.156c-1.562,-2.127 -3.081,-4.285 -4.617,-6.43l-0.339,-0.47l-0.345,-0.479l-0.154,-0.24c-0.267,-0.549 -0.31,-1.074 -0.352,-1.672c-0.015,-0.191 -0.031,-0.382 -0.049,-0.574c-0.379,-3.711 -1.534,-7.301 -2.711,-10.82c-0.565,-1.677 -1.14,-3.349 -1.704,-5.026c-6.558,-19.615 -7.449,-39.34 -8.67,-60.033l-0.009,-0.157c-0.185,0.28 -0.371,0.56 -0.556,0.84m25.41,91.264l0.163,0.01l0.022,0c-0.048,-0.005 -0.097,-0.011 -0.145,-0.015c-0.049,-0.005 -0.098,-0.009 -0.147,-0.012c-0.009,0 0.018,0.005 0.027,0.006c0.027,0.004 0.054,0.007 0.08,0.011m-45.42,-49.838c1.446,0.136 2.391,1.549 2.014,2.918c-0.101,0.324 -0.203,0.647 -0.306,0.97c-2.644,8.188 -6.222,15.411 -10.852,22.746c-1.41,2.234 -2.737,5.062 -5.221,5.962c-2.253,0.816 -4.297,-1.745 -2.632,-3.582c0.141,-0.135 0.284,-0.267 0.423,-0.403c7.177,-7.165 11.328,-17.564 14.294,-27.037l0.052,-0.148c0.356,-0.823 1.165,-1.388 2.071,-1.43c0.052,0.002 0.104,0.003 0.157,0.004m18.286,-12.574c1.196,0.159 2.095,1.262 2.027,2.452c-0.031,0.328 -0.061,0.655 -0.091,0.983c-0.807,9.409 -1.236,21.053 2.959,29.87c0,0 0.242,1.943 -0.39,2.505c-1.11,0.989 -2.753,0.848 -3.596,-0.422c-0.847,-1.278 -2.115,-5.975 -2.319,-7.412c-1.453,-10.258 -2.025,-15.592 -1.042,-25.949l0.022,-0.166c0.222,-1.058 1.181,-1.852 2.262,-1.871c0.056,0.003 0.112,0.007 0.168,0.01m55.048,13.462c-3.276,-12.332 -7.762,-25.55 -12.356,-37.174c2.955,17.786 3.626,22.196 6.92,37.688l0.005,-0.099l0.022,-0.437c0.148,-1.31 1.194,-2.282 2.472,-2.375c0.104,0.005 0.209,0.011 0.314,0.016c0.745,0.135 1.354,0.509 1.811,1.127c0.27,0.418 0.541,0.836 0.812,1.254m-48.162,-50.489c2.646,-12.441 5.038,-24.942 6.946,-37.519l0.055,-0.371c-4.846,12.2 -9.061,24.687 -12.435,37.376c0.199,-0.306 0.397,-0.611 0.595,-0.916l0.216,-0.335c0.522,-0.707 1.248,-1.097 2.125,-1.143c0.105,0.007 0.21,0.015 0.314,0.023c1.162,0.234 2.021,1.145 2.158,2.352c0.009,0.178 0.017,0.356 0.026,0.533"/></svg>
