<svg xmlns="http://www.w3.org/2000/svg" fill-rule="evenodd" stroke-linejoin="round" stroke-miterlimit="1.414" clip-rule="evenodd" viewBox="0 0 256 256"><rect width="256" height="256" fill="none"/><path d="M141.125,59.98c0.216,-0.127 0.432,-0.254 0.649,-0.38c7.459,-4.331 15.909,-10.068 25.015,-10.299c8.277,-0.21 16.942,4.775 22.799,10.023c14.248,12.766 22.221,33.215 17.773,52.227c-2.149,9.188 -9.157,22.96 -14.334,30.813c-18.833,28.569 -44.442,48.012 -75.024,62.877c-0.157,0.078 -0.313,0.157 -0.468,0.239c-5.468,2.935 -9.26,8.709 -11.289,14.454l-0.027,0.079l-0.008,0.025l-0.167,0.389c-1.756,2.71 -4.007,0.82 -4.977,-1.16c-0.254,-0.516 -0.51,-1.031 -0.766,-1.546c-4.188,-8.332 -8.711,-16.497 -14.16,-24.072c-0.3,-0.419 -0.599,-0.838 -0.898,-1.258c-5.134,-7.261 -9.907,-14.785 -14.373,-22.475c-3.593,-6.186 -6.966,-12.527 -9.777,-19.106c-13.028,-30.484 -25.017,-77.05 5.595,-102.09c4.423,-3.618 9.407,-6.557 14.51,-9.129c7.086,-3.571 15.733,-5.252 23.604,-5.364c0.314,-0.003 0.628,-0.003 0.942,-0.002c17.474,0.183 23.945,9.114 31.478,24.352c0,0 0.19,0.384 0.283,0.577c1.236,0.098 2.454,0.407 3.62,0.826m-13.98,-9.288c-6.563,-10.341 -17.267,-13.311 -28.945,-10.932c-19.97,4.068 -36.732,15.548 -42.837,35.806c-12.305,40.831 13.46,85.31 36.054,116.852c0.233,0.329 0.465,0.659 0.695,0.99c4.151,6.025 8.269,13.49 11.578,19.94l0.019,0.036c0.136,-0.255 0.275,-0.509 0.416,-0.763c0.13,-0.231 0.262,-0.461 0.396,-0.691c2.751,-4.659 6.615,-8.951 11.533,-11.3c0.414,-0.194 0.829,-0.388 1.244,-0.583c35.839,-17.017 74.685,-48.306 84.956,-88.72c4.408,-17.343 -2.635,-35.978 -15.489,-47.828c-4.471,-4.123 -13.173,-9.951 -20.096,-9.199c-6.389,0.694 -10.406,3.124 -15.947,6.046c16.944,4.753 32.709,17.267 34.933,35.776c1.021,8.5 0.265,24.981 -5.692,32.826c-2.088,2.749 -5.431,0.492 -4.527,-2.109c0.135,-0.331 0.268,-0.662 0.399,-0.993c1.653,-4.201 3.038,-8.541 3.867,-12.978c4.305,-23.034 -6.304,-40.08 -28.313,-47.103c18.886,23.007 15.699,53.331 2.698,78.564c-4.858,9.43 -13.84,20.287 -20.854,28.119c-0.966,1.078 -1.924,2.425 -3.324,2.795c-2.684,0.709 -3.314,-2.856 -2.218,-4.182c0.376,-0.4 0.751,-0.8 1.126,-1.202c24.279,-26.187 45.082,-65.545 20.384,-98.775c0.044,16.841 -6.956,31.833 -14.849,46.367c-1.931,3.557 -8.517,13.678 -14.567,12.592l-0.013,-0.003c-0.144,-0.038 -0.143,-0.038 -0.284,-0.084l-0.012,-0.004c-0.162,-0.065 -0.162,-0.065 -0.319,-0.141l-0.011,-0.006c-0.169,-0.098 -0.169,-0.098 -0.33,-0.209l-0.009,-0.007c-0.169,-0.138 -0.169,-0.138 -0.325,-0.29l-0.008,-0.008c-0.137,-0.159 -0.137,-0.159 -0.261,-0.33l-0.006,-0.009c-0.109,-0.181 -0.109,-0.18 -0.202,-0.37l-0.005,-0.01c-0.07,-0.177 -0.07,-0.176 -0.126,-0.357l-0.004,-0.012c-0.038,-0.161 -0.038,-0.161 -0.065,-0.324l-0.001,-0.013c-0.161,-1.523 0.994,-2.733 1.815,-3.879c0.214,-0.303 0.427,-0.606 0.637,-0.912c4.907,-7.202 7.29,-15.849 6.801,-24.556c-0.111,-1.806 -0.251,-3.61 -0.373,-5.415c-0.568,-8.652 -2.853,-22.712 3.089,-30.556c-4.329,0.933 -8.575,2.409 -12.545,4.371c-38.369,18.96 -27.602,67.878 -15.325,100.015c0,0.926 0.001,2.019 -0.617,2.708c-1.271,1.418 -3.428,0.439 -4.054,-0.924c-0.231,-0.604 -0.46,-1.209 -0.688,-1.815c-9.095,-24.368 -19.519,-59.305 -3.809,-83.481c7.062,-10.867 12.187,-15.59 23.672,-21.65c3.354,-1.77 7.123,-2.616 10.742,-3.748c1.225,-0.383 2.502,-0.588 3.77,-0.791l-0.118,-0.221l-0.005,-0.009c-0.066,-0.024 -0.114,-0.041 -0.218,-0.077c-0.278,-0.096 -0.557,-0.19 -0.837,-0.281c-5.836,-1.881 -11.985,-2.875 -18.105,-3.261c-4.609,-0.29 -9.272,0.336 -13.799,1.253c-28.16,5.707 -30.601,41.135 -28.914,63.959l0.006,0.253c-0.238,3.038 -4.619,3.097 -4.992,0.115c-0.04,-0.54 -0.078,-1.08 -0.115,-1.62c-1.554,-23.979 2.294,-59.267 30.463,-66.912c4.669,-1.267 9.523,-2.033 14.36,-2.095c0.27,-0.002 0.54,-0.002 0.809,-0.002c5.96,0.041 11.92,0.874 17.691,2.357m9.383,13.426c-2.731,0.087 -4.054,3.029 -4.53,5.298c-1.93,9.201 -0.59,19.287 0.034,28.534c0.017,0.274 0.032,0.548 0.046,0.822c0.252,5.617 -0.49,11.245 -2.322,16.568l-0.011,0.03c7.072,-10.819 10.939,-23.187 13.566,-35.732c0.611,-2.915 2.678,-9.913 0.133,-12.959c-0.144,-0.167 -0.378,-0.228 -0.568,-0.34c-1.704,-0.985 -4.066,-2.172 -6.162,-2.222c-0.093,-0.001 -0.093,-0.001 -0.186,0.001"/></svg>
