<svg xmlns="http://www.w3.org/2000/svg" fill-rule="evenodd" stroke-linejoin="round" stroke-miterlimit="1.414" clip-rule="evenodd" viewBox="0 0 256 256"><rect width="256" height="256" fill="none"/><path d="M121.09,202.162c-29.496,-4.11 -46.427,-30.556 -53.437,-57.349c-2.024,-7.737 -1.98,-17.073 -2.201,-24.973c-0.054,-1.92 -1.003,-7.204 2.422,-7.684l9.3,-0.522l-9.211,-0.8l-0.375,-0.062c-1.133,-0.369 -1.86,-1.329 -1.907,-2.519c0.023,-0.648 0.047,-1.296 0.073,-1.944c0.912,-21.78 1.567,-22.347 6.176,-43.598c0.615,-2.837 1.4,-12.034 6.292,-12.792l0.068,-0.001l-0.015,-0.019l-0.186,-0.339c-1.156,-3.188 3.743,-8.541 5.417,-10.253c12.736,-13.024 29.731,-15.341 47.047,-18.693l0.358,-0.069c0,0 0.467,-0.039 0.701,-0.034c0,0 0.979,0.208 1.465,0.327c7.645,1.899 15.25,4.098 22.561,7.031c17.783,7.134 25.189,27.068 29.279,44.153c0,0 -0.04,2.18 -0.748,2.87l-0.086,0.061l0.072,0.012c0,0 1.593,1.072 1.84,1.924c0.105,0.517 0.209,1.033 0.31,1.55c2.796,14.365 4.136,29.392 4.209,44.023c0.032,6.407 -0.483,12.806 -0.824,19.204c-0.076,1.439 -0.231,3.81 -1.672,4.776l-0.022,0.011l0.202,0.269c-0.032,1.925 -0.063,3.89 -0.561,5.751c-1.161,4.343 -2.436,8.704 -4.385,12.756c-8.809,18.306 -24.85,33.138 -45.342,36.611c-0.07,10.377 0.274,20.93 -0.527,31.291l-0.01,0.098c-0.042,0.324 -0.058,0.349 -0.136,0.6l-0.003,0.009c-0.246,0.563 -0.56,0.949 -1.069,1.305l-0.001,0c-1.003,0.508 -2.125,0.388 -2.998,-0.321l-0.001,-0.001c-0.406,-0.436 -0.488,-0.569 -0.691,-1.129l-0.003,-0.009l-0.075,-0.354l-0.011,-0.082l-0.011,-0.135c-0.013,-0.247 -0.017,-0.495 -0.029,-0.742l-0.005,-0.093c-0.124,0.037 -0.245,0.069 -0.371,0.102c-4.637,1.159 -7.317,-2.972 -8.398,-6.993c-1.966,-7.319 -2.245,-15.61 -2.481,-23.224m10.045,-95.42c-3.169,31.025 -5.399,63.431 -5.066,94.644c0.073,6.852 1.182,13.655 1.942,20.465c0.072,0.643 1.029,5.581 2.22,5.759c0.032,0.004 0.066,0.002 0.099,0c0.363,-0.031 1.152,-0.301 1.443,-0.388c0.172,-0.049 0.171,-0.048 0.344,-0.094c0.152,-0.037 0.304,-0.072 0.458,-0.099c0.027,-1.269 0.053,-2.537 0.077,-3.806c0.697,-39.079 0.546,-78.264 -1.432,-117.306c-0.028,0.275 -0.057,0.55 -0.085,0.825m6.804,90.017l0.168,-0.031c23.153,-4.403 39.16,-23.549 44.767,-45.816l0.027,-0.107l-21.541,1.602l-0.416,-0.004c-2.791,-0.495 -2.935,-4.117 -0.308,-4.93l23.935,-5.277c2.891,-20.18 0.723,-42.308 -3.026,-62.038l-0.021,-0.111l-29.52,2.195l-0.416,-0.004c-2.724,-0.483 -3.008,-4.094 -0.307,-4.931l28.255,-6.229c-1.215,-4.795 -2.684,-9.543 -4.553,-14.123c-8.304,-20.351 -22.465,-26.136 -43.103,-31.263l-0.46,-0.112l-0.095,-0.023c-0.517,0.1 -1.034,0.202 -1.551,0.304c-17.881,3.563 -35.053,4.637 -45.434,20.848l-0.076,0.119l24.209,5.337c0.795,0.655 1.693,1.394 1.961,2.389c0.417,1.547 -1.644,2.536 -2.685,2.545l-27.764,-2.064c-6.846,15.897 -8.5,33.937 -9.216,51.024c13.89,1.201 27.801,2.195 41.671,3.619c2.567,0.264 3.339,4.508 -0.077,4.987l-41.884,2.353c-0.39,32.828 13.031,74.187 50.499,80.073c-0.401,-28.907 2.014,-56.798 4.65,-85.539c0.711,-7.752 1.745,-15.47 2.581,-23.21c0.253,-2.338 0.195,-7.02 2.059,-9.002l0.009,-0.009c0.182,-0.154 0.182,-0.153 0.378,-0.289l0.009,-0.006c0.294,-0.158 0.295,-0.158 0.608,-0.275l0.008,-0.003c0.304,-0.071 0.304,-0.071 0.615,-0.103c0.077,-0.003 0.154,0.001 0.231,0.001l0.225,0.021c0,0 0.428,0.104 0.635,0.176c0,0 0.431,0.241 0.631,0.385c0,0 0.416,0.446 0.586,0.698c0,0 0.31,0.767 0.365,1.173c0.053,0.523 0.092,1.049 0.136,1.573c3.14,37.897 3.404,76.075 3.235,114.077"/></svg>
