<?xml version="1.0" encoding="UTF-8"?><!DOCTYPE svg PUBLIC "-//W3C//DTD SVG 1.1//EN" "http://www.w3.org/Graphics/SVG/1.1/DTD/svg11.dtd"><svg xmlns="http://www.w3.org/2000/svg" xmlns:xlink="http://www.w3.org/1999/xlink" height="48px" version="1.1" viewBox="0 0 48 48" width="48px" xml:space="preserve"><g id="Expanded"><path d="M23 48H7c-2.757 0-5-2.243-5-5V5a1 1 0 1 1 2 0v38c0 1.654 1.346 3 3 3h16a1 1 0 1 1 0 2z"/><path d="M41 22.999a1 1 0 0 1-1-1V10H7c-2.757 0-5-2.243-5-5s2.243-5 5-5h34a1 1 0 1 1 0 2H7C5.346 2 4 3.346 4 5s1.346 3 3 3h35v13.999a1 1 0 0 1-1 1z"/><path d="M34 48c-6.617 0-12-5.383-12-12s5.383-12 12-12 12 5.383 12 12-5.383 12-12 12zm0-22c-5.514 0-10 4.486-10 10s4.486 10 10 10 10-4.486 10-10-4.486-10-10-10z"/><path d="M34 42a1 1 0 0 1-1-1V31a1 1 0 1 1 2 0v10a1 1 0 0 1-1 1z"/><path d="M34 42.414l-4.707-4.707a.999.999 0 1 1 1.414-1.414L34 39.586l3.293-3.293a.999.999 0 1 1 1.414 1.414L34 42.414z"/><path d="M7 4h33v2H7z"/></g><metadata><rdf:RDF xmlns:rdf="http://www.w3.org/1999/02/22-rdf-syntax-ns#" xmlns:rdfs="http://www.w3.org/2000/01/rdf-schema#" xmlns:dc="http://purl.org/dc/elements/1.1/"><rdf:Description about="https://iconscout.com/legal#licenses" dc:title="book,dowload,streamline" dc:description="book,dowload,streamline" dc:publisher="Iconscout" dc:date="2017-09-19" dc:format="image/svg+xml" dc:language="en"><dc:creator><rdf:Bag><rdf:li>Vincent Le Moign</rdf:li></rdf:Bag></dc:creator></rdf:Description></rdf:RDF></metadata></svg>