<svg xmlns="http://www.w3.org/2000/svg" width="16" height="16" viewBox="0 0 16 16"><path d="M 2 0 L 2 16 L 14 16 L 14 3.2832031 L 13.849609 3.1367188 L 10.644531 0 L 2 0 z M 3 1 L 10 1 L 10 3.9921875 L 13 3.9921875 L 13 15 L 3 15 L 3 1 z M 11 1.7480469 L 12.271484 2.9921875 L 11 2.9921875 L 11 1.7480469 z M 4 6 L 4 7 L 5 7 L 5 6 L 4 6 z M 6 6 L 6 7 L 12 7 L 12 6 L 6 6 z M 4 9 L 4 10 L 5 10 L 5 9 L 4 9 z M 6 9 L 6 10 L 12 10 L 12 9 L 6 9 z M 4 12 L 4 13 L 5 13 L 5 12 L 4 12 z M 6 12 L 6 13 L 12 13 L 12 12 L 6 12 z " color="#000" font-family="sans-serif" font-weight="400" overflow="visible" white-space="normal" style="line-height:normal;text-indent:0;text-align:start;text-decoration-line:none;text-decoration-style:solid;text-decoration-color:#000;text-transform:none;block-progression:tb;isolation:auto;mix-blend-mode:normal"/></svg>