<svg xmlns="http://www.w3.org/2000/svg" id="Layer_1" width="128" height="128" enable-background="new 0 0 128 128" viewBox="0 0 128 128"><g id="XMLID_1_"><g id="XMLID_49_"><path id="XMLID_702_" fill="#231f20" d="M119.7,71.5c-1.5-5.7-5.2-10.5-10.4-13.5c-4.8-2.8-13.6-3.6-21.7-3.7
				c2.5-3.4,3.8-7.3,3.8-11.3c0-7.3-4.4-13.8-11.1-17.8c0.2-2.4,1.2-4.6,2.9-6.3c1.9-1.9,4.4-2.9,7.1-2.9s5.2,1,7.1,2.9
				c0.8,0.8,2,0.8,2.8,0c0.8-0.8,0.8-2,0-2.8c-2.6-2.6-6.2-4.1-9.9-4.1s-7.3,1.5-9.9,4.1c-2,2-3.3,4.5-3.8,7.3
				C73,21.9,68.9,21,64.5,21s-8.5,0.9-12.1,2.4c-0.5-2.7-1.8-5.2-3.8-7.3c-2.6-2.6-6.2-4.1-9.9-4.1c-3.7,0-7.3,1.5-9.9,4.1
				c-0.8,0.8-0.8,2,0,2.8c0.8,0.8,2,0.8,2.8,0c1.9-1.9,4.4-2.9,7.1-2.9c2.7,0,5.2,1,7.1,2.9c1.7,1.7,2.7,3.9,2.9,6.3
				c-6.7,4-11.1,10.5-11.1,17.8c0,4,1.3,7.9,3.8,11.3c-5.3,0-10.9,0.3-15.7,1.3c-1.1,0.2-1.8,1.3-1.6,2.4c0.2,1.1,1.3,1.8,2.4,1.6
				c9.3-1.9,23.1-1.1,28.5-0.7c-2.7,10-9.3,30.4-16.1,34.3c-4.2,2.4-9.1,3.1-13.9,1.8c-4.7-1.3-8.6-4.3-11.1-8.5
				c-3.6-6.2-3.2-13.9,0.9-19.7c0.6-0.9,0.4-2.1-0.5-2.8c-0.9-0.6-2.1-0.4-2.8,0.5c-5.1,7.1-5.5,16.5-1.2,24.1
				c3,5.1,7.8,8.8,13.5,10.4c1.9,0.5,3.9,0.8,5.8,0.8c3.9,0,7.7-1,11.1-3c0.2-0.1,0.4-0.3,0.6-0.4c4.9,12.3,13.5,19.9,23,19.9
				c9.3,0,17.9-7.4,22.8-19.4c3.4,1.9,7.1,2.9,10.9,2.9c1.9,0,3.9-0.3,5.8-0.8c5.7-1.5,10.5-5.2,13.5-10.4
				C120.5,83.3,121.3,77.3,119.7,71.5z M46.7,54.4c-3.4-3.2-5.2-7.2-5.2-11.4c0-9.9,10.3-18,23-18s23,8.1,23,18
				c0,4.1-1.8,8.1-5.2,11.3c-6.5,0.2-11.5,0.7-12,0.7c-0.6,0.1-1.1,0.4-1.4,0.8c-0.3,0.5-0.4,1.1-0.3,1.6c0.1,0.5,0.4,1.6,0.8,3.1
				c-3.5,0.6-7.2,0.5-10.7-0.2c0.4-1.4,0.6-2.4,0.8-2.9c0.1-0.6,0-1.2-0.3-1.6c-0.3-0.5-0.9-0.8-1.4-0.8
				C57.3,55,52.7,54.5,46.7,54.4z M82.4,92.1C76.8,94,70.7,95,64.5,95c-6.5,0-12.8-1.1-18.7-3.2c1.7-2.3,3.3-5.2,4.8-8.3
				c4.5,1,9.2,1.5,14,1.5c4.4,0,8.8-0.4,13.1-1.3C79,86.8,80.7,89.7,82.4,92.1z M54.4,74.1c1.3-3.6,2.4-7,3.2-9.8
				c2.2,0.5,4.6,0.7,6.9,0.7c2,0,4-0.2,6-0.5c0.8,2.8,1.9,6.2,3.2,9.8C67.3,75.3,60.7,75.2,54.4,74.1z M64.5,112
				c-5.4,0-10.4-3.1-14.5-8.6c4.7,1.1,9.5,1.6,14.5,1.6c4.9,0,9.8-0.5,14.5-1.6C74.9,108.9,69.8,112,64.5,112z M114,86.4
				c-2.4,4.2-6.4,7.2-11.1,8.5c-4.7,1.3-9.6,0.6-13.9-1.8C82.3,89.2,75.7,68.8,73,58.8c9-0.7,27.5-1.3,34.3,2.7
				c4.2,2.4,7.2,6.4,8.5,11.1C117.1,77.3,116.5,82.2,114,86.4z"/><path id="XMLID_747_" fill="#231f20" d="M18.1,62.7c0.4,0,0.8-0.1,1.1-0.4c0.4-0.3,0.9-0.6,1.4-0.9c1-0.6,1.3-1.8,0.7-2.7
				c-0.6-1-1.8-1.3-2.7-0.7c-0.6,0.3-1.1,0.7-1.7,1.1c-0.9,0.6-1.1,1.9-0.5,2.8C16.9,62.4,17.5,62.7,18.1,62.7z"/></g></g></svg>