<?xml version="1.0" encoding="utf-8"?>
<svg xmlns="http://www.w3.org/2000/svg" xmlns:xlink="http://www.w3.org/1999/xlink" version="1.1" id="Layer_1" x="0px" y="0px" viewBox="0 0 24 24" style="enable-background:new 0 0 24 24;" xml:space="preserve">
<style type="text/css">
	.st0{fill:none;stroke:#303C42;stroke-linecap:round;stroke-linejoin:round;}
</style>
<title>User Info Stack</title>
<g id="User_Info_Stack">
	<g id="_Group_">
		<path id="_Rectangle_" class="st0" d="M2,3.5h18c0.8,0,1.5,0.7,1.5,1.5v12c0,0.8-0.7,1.5-1.5,1.5H2c-0.8,0-1.5-0.7-1.5-1.5V5    C0.5,4.2,1.2,3.5,2,3.5z" style="fill: none; stroke: #303C42; stroke-linecap: round; stroke-linejoin: round;"/>
		<path id="_Path_" class="st0" d="M23.5,7v12c0,0.8-0.7,1.5-1.5,1.5H4" style="fill: none; stroke: #303C42; stroke-linecap: round; stroke-linejoin: round;"/>
		<line id="_Path_2" class="st0" x1="12.5" y1="14.5" x2="18.5" y2="14.5" style="fill: none; stroke: #303C42; stroke-linecap: round; stroke-linejoin: round;"/>
		<line id="_Path_3" class="st0" x1="12.5" y1="11.5" x2="18.5" y2="11.5" style="fill: none; stroke: #303C42; stroke-linecap: round; stroke-linejoin: round;"/>
		<line id="_Path_4" class="st0" x1="12.5" y1="8.5" x2="18.5" y2="8.5" style="fill: none; stroke: #303C42; stroke-linecap: round; stroke-linejoin: round;"/>
		<circle id="_Path_5" class="st0" cx="7" cy="9" r="1.5" style="fill: none; stroke: #303C42; stroke-linecap: round; stroke-linejoin: round;"/>
		<path id="_Path_6" class="st0" d="M7,12c-1,0-1.9,0.3-2.8,0.7c-0.4,0.2-0.7,0.6-0.7,1.1V14c0,0.3,0.2,0.5,0.5,0.5h6    c0.3,0,0.5-0.2,0.5-0.5v-0.2c0-0.5-0.3-0.9-0.7-1.1C8.9,12.3,8,12,7,12z" style="fill: none; stroke: #303C42; stroke-linecap: round; stroke-linejoin: round;"/>
	</g>
</g>

	<metadata>
		<rdf:RDF xmlns:rdf="http://www.w3.org/1999/02/22-rdf-syntax-ns#" xmlns:rdfs="http://www.w3.org/2000/01/rdf-schema#" xmlns:dc="http://purl.org/dc/elements/1.1/">
			<rdf:Description about="https://iconscout.com/legal#licenses" dc:title="contact; info; stack; user; account; id" dc:description="contact; info; stack; user; account; id" dc:publisher="Iconscout" dc:date="2017-02-16" dc:format="image/svg+xml" dc:language="en">
				<dc:creator>
					<rdf:Bag>
						<rdf:li>Alpár - Etele Méder</rdf:li>
					</rdf:Bag>
				</dc:creator>
			</rdf:Description>
		</rdf:RDF>
    </metadata></svg>
