<?xml version="1.0" encoding="UTF-8"?><!DOCTYPE svg PUBLIC "-//W3C//DTD SVG 1.1//EN" "http://www.w3.org/Graphics/SVG/1.1/DTD/svg11.dtd"><svg xmlns="http://www.w3.org/2000/svg" xmlns:xlink="http://www.w3.org/1999/xlink" version="1.1" id="Layer_1" x="0px" y="0px" width="64px" height="64px" viewBox="0 0 64 64" xml:space="preserve"><path d="M32 0C23.452 0 15.417 3.33 9.373 9.375 3.328 15.417-.001 23.453-.001 32s3.329 16.583 9.374 22.626C15.417 60.671 23.452 64 32 64c8.547 0 16.583-3.33 22.627-9.375 6.045-6.043 9.374-14.079 9.374-22.626s-3.329-16.583-9.374-22.626C48.583 3.329 40.547 0 32 0zm21.213 53.212C47.547 58.879 40.013 62 32 62c-8.014 0-15.547-3.121-21.213-8.789C5.12 47.546 1.999 40.013 1.999 32s3.121-15.546 8.788-21.212C16.453 5.121 23.986 2 32 2c8.013 0 15.547 3.122 21.213 8.789C58.88 16.454 62.001 23.987 62.001 32s-3.121 15.546-8.788 21.212z"/><path d="M31 25h2v22h-2z"/><path d="M31 17h2v4h-2z"/><metadata><rdf:RDF xmlns:rdf="http://www.w3.org/1999/02/22-rdf-syntax-ns#" xmlns:rdfs="http://www.w3.org/2000/01/rdf-schema#" xmlns:dc="http://purl.org/dc/elements/1.1/"><rdf:Description about="https://iconscout.com/legal#licenses" dc:title="arrows,info" dc:description="arrows,info" dc:publisher="Iconscout" dc:date="2017-09-21" dc:format="image/svg+xml" dc:language="en"><dc:creator><rdf:Bag><rdf:li>Dario Ferrando</rdf:li></rdf:Bag></dc:creator></rdf:Description></rdf:RDF></metadata></svg>