<?xml version="1.0" encoding="UTF-8"?><!DOCTYPE svg PUBLIC "-//W3C//DTD SVG 1.1//EN" "http://www.w3.org/Graphics/SVG/1.1/DTD/svg11.dtd"><svg xmlns="http://www.w3.org/2000/svg" xmlns:xlink="http://www.w3.org/1999/xlink" version="1.1" id="Layer_1" x="0px" y="0px" width="512px" height="512px" viewBox="0 0 512 512" xml:space="preserve"><path d="M303.7 128h-221C63.9 128 47 142.1 47 160.7v187.9c0 18.6 16.9 35.4 35.7 35.4h221c18.8 0 33.3-16.8 33.3-35.4V160.7c0-18.6-14.5-32.7-33.3-32.7zM320 348.6c0 9.3-6.9 18.4-16.3 18.4h-221c-9.4 0-18.7-9.1-18.7-18.4V160.7c0-9.3 9-15.5 18.4-15.5l221 .1c9.4 0 16.6 6.1 16.6 15.4v187.9z"/><path d="M367 213v85.6l98 53.4V160l-98 53zm81-23v132.3l-64-33.5v-65.6l64.1-33.6-.1.4z"/><metadata><rdf:RDF xmlns:rdf="http://www.w3.org/1999/02/22-rdf-syntax-ns#" xmlns:rdfs="http://www.w3.org/2000/01/rdf-schema#" xmlns:dc="http://purl.org/dc/elements/1.1/"><rdf:Description about="https://iconscout.com/legal#licenses" dc:title="ios,videocam,outline" dc:description="ios,videocam,outline" dc:publisher="Iconscout" dc:date="2017-09-24" dc:format="image/svg+xml" dc:language="en"><dc:creator><rdf:Bag><rdf:li>Benjamin J Sperry</rdf:li></rdf:Bag></dc:creator></rdf:Description></rdf:RDF></metadata></svg>